{"glyphs":{"0":{"ha":938,"x_min":49,"x_max":889,"o":"m 468 -19 q 149 101 249 -19 q 49 464 49 221 q 149 826 49 706 q 468 947 249 947 q 790 826 690 947 q 889 464 889 706 q 790 101 889 221 q 468 -19 690 -19 m 468 201 q 519 211 494 201 q 563 248 543 221 q 594 327 582 275 q 606 464 606 379 q 594 599 606 547 q 563 677 582 650 q 519 715 543 704 q 468 725 494 725 q 419 715 443 725 q 375 677 394 704 q 344 599 356 650 q 333 464 333 547 q 344 327 333 379 q 375 248 356 275 q 419 211 394 221 q 468 201 443 201 z "},"1":{"ha":664,"x_min":56,"x_max":511,"o":"m 233 0 l 233 661 l 56 569 l 56 804 l 276 926 l 511 926 l 511 0 l 233 0 z "},"2":{"ha":861,"x_min":93,"x_max":769,"o":"m 93 0 l 93 189 q 193 251 140 214 q 295 333 246 288 q 384 425 344 378 q 447 519 424 472 q 471 607 471 567 q 449 690 471 661 q 395 730 426 719 q 336 740 364 740 q 222 710 276 740 q 100 626 167 679 l 100 854 q 239 919 160 890 q 429 947 318 947 q 600 915 528 947 q 711 818 672 883 q 750 651 750 753 q 726 530 750 585 q 663 430 703 475 q 574 347 622 385 q 475 278 525 310 q 381 215 425 246 l 331 250 l 769 250 l 769 0 l 93 0 z "},"3":{"ha":833,"x_min":94,"x_max":740,"o":"m 376 -11 q 230 12 301 -11 q 94 67 158 35 l 94 296 q 229 222 164 254 q 367 189 294 189 q 465 210 428 189 q 503 274 503 232 q 476 345 503 317 q 363 374 449 374 l 211 374 l 211 574 l 365 574 q 440 598 418 574 q 463 650 463 622 q 444 702 463 685 q 397 726 425 719 q 339 733 368 733 q 247 723 297 733 q 111 672 197 713 l 111 874 q 233 921 167 903 q 365 939 299 939 q 478 927 419 939 q 588 887 538 915 q 671 809 639 858 q 703 685 703 760 q 690 621 703 651 q 657 565 678 590 q 610 524 636 540 q 558 503 585 508 q 632 469 599 492 q 690 415 665 446 q 727 344 714 383 q 740 260 740 304 q 706 124 740 176 q 617 42 672 71 q 499 1 563 13 q 376 -11 436 -11 z "},"4":{"ha":858,"x_min":54,"x_max":822,"o":"m 431 0 l 431 236 l 54 236 l 54 419 l 460 926 l 711 926 l 711 439 l 822 439 l 822 236 l 711 236 l 711 0 l 431 0 m 281 439 l 431 439 l 431 629 l 281 439 z "},"5":{"ha":850,"x_min":101,"x_max":801,"o":"m 382 -19 q 215 6 293 -19 q 101 63 138 32 l 101 317 q 166 261 126 288 q 252 218 206 235 q 344 201 299 201 q 407 207 376 201 q 463 224 438 213 q 502 256 488 236 q 517 304 517 276 q 500 363 517 339 q 453 401 483 388 q 385 414 424 414 q 324 408 356 414 q 267 392 293 401 q 225 374 240 382 l 108 504 l 172 928 l 719 928 l 719 692 l 339 692 l 300 454 l 129 529 q 269 617 188 590 q 467 644 351 644 q 595 625 535 644 q 702 567 656 606 q 775 469 749 528 q 801 329 801 410 q 767 162 801 229 q 674 55 733 94 q 540 -2 615 15 q 382 -19 464 -19 z "},"6":{"ha":893,"x_min":49,"x_max":844,"o":"m 433 -19 q 140 98 232 -19 q 49 429 49 215 q 81 661 49 568 q 165 811 113 754 q 281 897 218 868 q 407 937 343 926 q 522 947 471 947 q 663 934 604 947 q 753 906 721 921 l 753 676 q 656 715 704 701 q 542 729 607 729 q 447 716 485 729 q 385 678 408 703 q 349 622 361 654 q 332 551 336 589 q 328 472 328 513 q 337 333 328 386 q 363 251 346 279 q 404 213 381 224 q 457 203 428 203 q 499 208 481 203 q 533 225 518 214 q 555 255 547 236 q 563 300 563 274 q 535 390 563 361 q 465 418 508 418 q 397 404 424 418 q 354 356 369 390 q 329 264 339 322 l 257 351 q 276 432 261 388 q 322 517 292 476 q 401 585 353 558 q 521 613 450 613 q 767 533 690 611 q 844 294 844 456 q 817 164 844 222 q 738 65 790 106 q 610 2 686 24 q 433 -19 533 -19 z "},"7":{"ha":832,"x_min":92,"x_max":772,"o":"m 171 0 l 489 736 l 535 675 l 92 675 l 92 926 l 772 926 l 772 779 l 475 0 l 171 0 z "},"8":{"ha":906,"x_min":49,"x_max":857,"o":"m 453 -19 q 277 -1 353 -19 q 151 51 201 17 q 74 138 100 86 q 49 256 49 189 q 60 329 49 296 q 93 389 72 363 q 142 436 114 415 q 206 471 171 457 q 155 501 179 483 q 111 544 131 519 q 81 599 92 568 q 71 669 71 631 q 113 828 71 767 q 240 918 156 889 q 453 947 325 947 q 665 918 581 947 q 792 828 750 889 q 835 669 835 767 q 824 599 835 631 q 794 544 814 568 q 751 501 775 519 q 700 471 728 483 q 763 436 735 457 q 813 389 792 415 q 845 329 833 363 q 857 256 857 296 q 831 138 857 189 q 755 51 806 86 q 628 -1 704 17 q 453 -19 553 -19 m 453 190 q 501 200 481 190 q 534 226 521 210 q 554 264 547 243 q 561 308 561 285 q 549 351 561 328 q 513 390 538 374 q 453 406 489 406 q 392 390 417 406 q 356 351 368 374 q 344 308 344 328 q 351 264 344 285 q 372 226 358 243 q 406 200 385 210 q 453 190 426 190 m 453 546 q 492 556 469 546 q 531 585 514 565 q 547 636 547 606 q 536 683 547 660 q 504 722 525 707 q 453 738 483 738 q 401 722 422 738 q 369 683 381 707 q 358 636 358 660 q 375 585 358 606 q 415 556 392 565 q 453 546 438 546 z "},"9":{"ha":897,"x_min":49,"x_max":844,"o":"m 371 -19 q 231 -6 289 -19 q 140 22 172 7 l 140 251 q 238 213 189 226 q 351 199 286 199 q 447 212 408 199 q 508 249 485 225 q 544 306 532 274 q 561 377 557 339 q 565 456 565 415 q 556 595 565 542 q 529 676 547 649 q 487 715 511 704 q 431 725 463 725 q 392 719 410 725 q 360 703 374 714 q 338 673 346 692 q 331 628 331 654 q 358 539 331 568 q 429 510 386 510 q 497 524 471 510 q 540 572 524 538 q 564 664 556 606 l 636 576 q 617 496 632 540 q 571 410 601 451 q 492 342 540 369 q 372 315 443 315 q 126 394 204 317 q 49 633 49 472 q 75 765 49 707 q 151 863 101 822 q 272 926 201 904 q 431 947 342 947 q 749 831 654 947 q 844 499 844 714 q 813 267 844 360 q 728 117 781 174 q 613 31 675 60 q 487 -9 550 1 q 371 -19 424 -19 z "},"A":{"ha":989,"x_min":14,"x_max":975,"o":"m 14 0 l 356 926 l 664 926 l 975 0 l 690 0 l 406 892 l 553 904 l 271 0 l 14 0 m 226 163 l 274 357 l 681 357 l 707 163 l 226 163 z "},"Á":{"ha":989,"x_min":14,"x_max":975,"o":"m 14 0 l 356 926 l 664 926 l 975 0 l 690 0 l 406 892 l 553 904 l 271 0 l 14 0 m 226 163 l 274 357 l 681 357 l 707 163 l 226 163 m 428 992 l 467 1147 l 732 1147 l 547 992 l 428 992 z "},"Ă":{"ha":989,"x_min":14,"x_max":975,"o":"m 14 0 l 356 926 l 664 926 l 975 0 l 690 0 l 406 892 l 553 904 l 271 0 l 14 0 m 226 163 l 274 357 l 681 357 l 707 163 l 226 163 z "},"Ắ":{"ha":989,"x_min":14,"x_max":975,"o":"m 14 0 l 356 926 l 664 926 l 975 0 l 690 0 l 406 892 l 553 904 l 271 0 l 14 0 m 226 163 l 274 357 l 681 357 l 707 163 l 226 163 z "},"Ặ":{"ha":989,"x_min":14,"x_max":975,"o":"m 14 0 l 356 926 l 664 926 l 975 0 l 690 0 l 406 892 l 553 904 l 271 0 l 14 0 m 226 163 l 274 357 l 681 357 l 707 163 l 226 163 z "},"Ằ":{"ha":989,"x_min":14,"x_max":975,"o":"m 14 0 l 356 926 l 664 926 l 975 0 l 690 0 l 406 892 l 553 904 l 271 0 l 14 0 m 226 163 l 274 357 l 681 357 l 707 163 l 226 163 z "},"Ẳ":{"ha":989,"x_min":14,"x_max":975,"o":"m 14 0 l 356 926 l 664 926 l 975 0 l 690 0 l 406 892 l 553 904 l 271 0 l 14 0 m 226 163 l 274 357 l 681 357 l 707 163 l 226 163 z "},"Ẵ":{"ha":989,"x_min":14,"x_max":975,"o":"m 14 0 l 356 926 l 664 926 l 975 0 l 690 0 l 406 892 l 553 904 l 271 0 l 14 0 m 226 163 l 274 357 l 681 357 l 707 163 l 226 163 z "},"Ǎ":{"ha":989,"x_min":14,"x_max":975,"o":"m 14 0 l 356 926 l 664 926 l 975 0 l 690 0 l 406 892 l 553 904 l 271 0 l 14 0 m 226 163 l 274 357 l 681 357 l 707 163 l 226 163 z "},"Â":{"ha":989,"x_min":14,"x_max":975,"o":"m 14 0 l 356 926 l 664 926 l 975 0 l 690 0 l 406 892 l 553 904 l 271 0 l 14 0 m 226 163 l 274 357 l 681 357 l 707 163 l 226 163 z "},"Ấ":{"ha":989,"x_min":14,"x_max":986,"o":"m 14 0 l 356 926 l 664 926 l 975 0 l 690 0 l 406 892 l 553 904 l 271 0 l 14 0 m 226 163 l 274 357 l 681 357 l 707 163 l 226 163 z "},"Ậ":{"ha":989,"x_min":14,"x_max":975,"o":"m 14 0 l 356 926 l 664 926 l 975 0 l 690 0 l 406 892 l 553 904 l 271 0 l 14 0 m 226 163 l 274 357 l 681 357 l 707 163 l 226 163 z "},"Ầ":{"ha":989,"x_min":14,"x_max":975,"o":"m 14 0 l 356 926 l 664 926 l 975 0 l 690 0 l 406 892 l 553 904 l 271 0 l 14 0 m 226 163 l 274 357 l 681 357 l 707 163 l 226 163 z "},"Ẩ":{"ha":989,"x_min":14,"x_max":975,"o":"m 14 0 l 356 926 l 664 926 l 975 0 l 690 0 l 406 892 l 553 904 l 271 0 l 14 0 m 226 163 l 274 357 l 681 357 l 707 163 l 226 163 z "},"Ẫ":{"ha":989,"x_min":14,"x_max":975,"o":"m 14 0 l 356 926 l 664 926 l 975 0 l 690 0 l 406 892 l 553 904 l 271 0 l 14 0 m 226 163 l 274 357 l 681 357 l 707 163 l 226 163 z "},"Ȁ":{"ha":989,"x_min":14,"x_max":975,"o":"m 14 0 l 356 926 l 664 926 l 975 0 l 690 0 l 406 892 l 553 904 l 271 0 l 14 0 m 226 163 l 274 357 l 681 357 l 707 163 l 226 163 z "},"Ä":{"ha":989,"x_min":14,"x_max":975,"o":"m 14 0 l 356 926 l 664 926 l 975 0 l 690 0 l 406 892 l 553 904 l 271 0 l 14 0 m 226 163 l 274 357 l 681 357 l 707 163 l 226 163 z "},"Ȧ":{"ha":989,"x_min":14,"x_max":975,"o":"m 14 0 l 356 926 l 664 926 l 975 0 l 690 0 l 406 892 l 553 904 l 271 0 l 14 0 m 226 163 l 274 357 l 681 357 l 707 163 l 226 163 z "},"Ạ":{"ha":989,"x_min":14,"x_max":975,"o":"m 14 0 l 356 926 l 664 926 l 975 0 l 690 0 l 406 892 l 553 904 l 271 0 l 14 0 m 226 163 l 274 357 l 681 357 l 707 163 l 226 163 z "},"À":{"ha":989,"x_min":14,"x_max":975,"o":"m 14 0 l 356 926 l 664 926 l 975 0 l 690 0 l 406 892 l 553 904 l 271 0 l 14 0 m 226 163 l 274 357 l 681 357 l 707 163 l 226 163 m 435 992 l 292 1144 l 510 1144 l 568 992 l 435 992 z "},"Ả":{"ha":989,"x_min":14,"x_max":975,"o":"m 14 0 l 356 926 l 664 926 l 975 0 l 690 0 l 406 892 l 553 904 l 271 0 l 14 0 m 226 163 l 274 357 l 681 357 l 707 163 l 226 163 z "},"Ȃ":{"ha":989,"x_min":14,"x_max":975,"o":"m 14 0 l 356 926 l 664 926 l 975 0 l 690 0 l 406 892 l 553 904 l 271 0 l 14 0 m 226 163 l 274 357 l 681 357 l 707 163 l 226 163 z "},"Ā":{"ha":989,"x_min":14,"x_max":975,"o":"m 14 0 l 356 926 l 664 926 l 975 0 l 690 0 l 406 892 l 553 904 l 271 0 l 14 0 m 226 163 l 274 357 l 681 357 l 707 163 l 226 163 z "},"Ą":{"ha":989,"x_min":14,"x_max":981,"o":"m 14 0 l 356 926 l 664 926 l 975 0 l 690 0 l 406 892 l 553 904 l 271 0 l 14 0 m 226 163 l 274 357 l 681 357 l 707 163 l 226 163 z "},"Å":{"ha":989,"x_min":14,"x_max":975,"o":"m 14 0 l 356 926 l 664 926 l 975 0 l 690 0 l 406 892 l 553 904 l 271 0 l 14 0 m 226 163 l 274 357 l 681 357 l 707 163 l 226 163 z "},"Ǻ":{"ha":989,"x_min":14,"x_max":975,"o":"m 14 0 l 356 926 l 664 926 l 975 0 l 690 0 l 406 892 l 553 904 l 271 0 l 14 0 m 226 163 l 274 357 l 681 357 l 707 163 l 226 163 m 428 1253 l 467 1408 l 732 1408 l 547 1253 l 428 1253 z "},"Ã":{"ha":989,"x_min":14,"x_max":975,"o":"m 14 0 l 356 926 l 664 926 l 975 0 l 690 0 l 406 892 l 553 904 l 271 0 l 14 0 m 226 163 l 274 357 l 681 357 l 707 163 l 226 163 z "},"Æ":{"ha":1471,"x_min":14,"x_max":1388,"o":"m 742 844 l 844 822 l 324 0 l 14 0 l 665 926 l 1388 926 l 1388 718 l 1019 718 l 1019 575 l 1333 575 l 1333 365 l 1019 365 l 1019 210 l 1388 210 l 1388 0 l 742 0 l 742 844 m 856 167 l 285 167 l 353 356 l 876 356 l 856 167 z "},"Ǽ":{"ha":1471,"x_min":14,"x_max":1388,"o":"m 742 844 l 844 822 l 324 0 l 14 0 l 665 926 l 1388 926 l 1388 718 l 1019 718 l 1019 575 l 1333 575 l 1333 365 l 1019 365 l 1019 210 l 1388 210 l 1388 0 l 742 0 l 742 844 m 856 167 l 285 167 l 353 356 l 876 356 l 856 167 m 965 992 l 1004 1147 l 1269 1147 l 1085 992 l 965 992 z "},"B":{"ha":957,"x_min":90,"x_max":908,"o":"m 90 0 l 90 926 l 519 926 q 690 904 613 926 q 816 826 768 882 q 864 667 864 769 q 828 559 864 603 q 742 490 792 515 q 649 454 692 465 l 617 517 q 774 488 710 517 q 874 408 839 460 q 908 288 908 357 q 859 125 908 189 q 731 31 810 61 q 561 0 651 0 l 90 0 m 369 208 l 535 208 q 578 218 558 208 q 609 248 597 228 q 621 297 621 268 q 614 335 621 319 q 595 362 607 351 q 567 378 583 372 q 531 383 550 383 l 369 383 l 369 208 m 368 578 l 528 578 q 553 587 542 578 q 573 610 565 596 q 581 643 581 625 q 559 701 581 683 q 514 718 538 718 l 368 718 l 368 578 z "},"C":{"ha":879,"x_min":42,"x_max":810,"o":"m 510 -21 q 163 95 283 -21 q 42 463 42 211 q 156 826 42 703 q 510 950 271 950 q 660 932 583 950 q 810 882 738 914 l 810 644 q 667 719 733 697 q 549 742 601 742 q 433 717 482 742 q 356 631 383 692 q 329 461 329 571 q 357 294 329 354 q 437 211 385 235 q 563 188 489 188 q 669 209 606 188 q 810 282 733 231 l 810 44 q 722 10 774 25 q 615 -12 671 -4 q 510 -21 560 -21 z "},"Ć":{"ha":879,"x_min":42,"x_max":810,"o":"m 510 -21 q 163 95 283 -21 q 42 463 42 211 q 156 826 42 703 q 510 950 271 950 q 660 932 583 950 q 810 882 738 914 l 810 644 q 667 719 733 697 q 549 742 601 742 q 433 717 482 742 q 356 631 383 692 q 329 461 329 571 q 357 294 329 354 q 437 211 385 235 q 563 188 489 188 q 669 209 606 188 q 810 282 733 231 l 810 44 q 722 10 774 25 q 615 -12 671 -4 q 510 -21 560 -21 m 426 1033 l 465 1189 l 731 1189 l 546 1033 l 426 1033 z "},"Č":{"ha":879,"x_min":42,"x_max":810,"o":"m 510 -21 q 163 95 283 -21 q 42 463 42 211 q 156 826 42 703 q 510 950 271 950 q 660 932 583 950 q 810 882 738 914 l 810 644 q 667 719 733 697 q 549 742 601 742 q 433 717 482 742 q 356 631 383 692 q 329 461 329 571 q 357 294 329 354 q 437 211 385 235 q 563 188 489 188 q 669 209 606 188 q 810 282 733 231 l 810 44 q 722 10 774 25 q 615 -12 671 -4 q 510 -21 560 -21 z "},"Ç":{"ha":879,"x_min":42,"x_max":810,"o":"m 510 -21 q 163 95 283 -21 q 42 463 42 211 q 156 826 42 703 q 510 950 271 950 q 660 932 583 950 q 810 882 738 914 l 810 644 q 667 719 733 697 q 549 742 601 742 q 433 717 482 742 q 356 631 383 692 q 329 461 329 571 q 357 294 329 354 q 437 211 385 235 q 563 188 489 188 q 669 209 606 188 q 810 282 733 231 l 810 44 q 722 10 774 25 q 615 -12 671 -4 q 510 -21 560 -21 z "},"Ĉ":{"ha":879,"x_min":42,"x_max":810,"o":"m 510 -21 q 163 95 283 -21 q 42 463 42 211 q 156 826 42 703 q 510 950 271 950 q 660 932 583 950 q 810 882 738 914 l 810 644 q 667 719 733 697 q 549 742 601 742 q 433 717 482 742 q 356 631 383 692 q 329 461 329 571 q 357 294 329 354 q 437 211 385 235 q 563 188 489 188 q 669 209 606 188 q 810 282 733 231 l 810 44 q 722 10 774 25 q 615 -12 671 -4 q 510 -21 560 -21 z "},"Ċ":{"ha":879,"x_min":42,"x_max":810,"o":"m 510 -21 q 163 95 283 -21 q 42 463 42 211 q 156 826 42 703 q 510 950 271 950 q 660 932 583 950 q 810 882 738 914 l 810 644 q 667 719 733 697 q 549 742 601 742 q 433 717 482 742 q 356 631 383 692 q 329 461 329 571 q 357 294 329 354 q 437 211 385 235 q 563 188 489 188 q 669 209 606 188 q 810 282 733 231 l 810 44 q 722 10 774 25 q 615 -12 671 -4 q 510 -21 560 -21 z "},"D":{"ha":1014,"x_min":90,"x_max":965,"o":"m 90 0 l 90 926 l 497 926 q 853 808 742 926 q 965 463 965 690 q 853 118 965 236 q 497 0 742 0 l 90 0 m 368 208 l 463 208 q 623 269 565 208 q 681 463 681 329 q 623 658 681 597 q 463 718 565 718 l 368 718 l 368 208 z "},"Ǆ":{"ha":1908,"x_min":90,"x_max":1839,"o":"m 90 0 l 90 926 l 497 926 q 853 808 742 926 q 965 463 965 690 q 853 118 965 236 q 497 0 742 0 l 90 0 m 368 208 l 463 208 q 623 269 565 208 q 681 463 681 329 q 623 658 681 597 q 463 718 565 718 l 368 718 l 368 208 z "},"Ð":{"ha":1014,"x_min":7,"x_max":965,"o":"m 90 0 l 90 926 l 497 926 q 853 808 742 926 q 965 463 965 690 q 853 118 965 236 q 497 0 742 0 l 90 0 m 368 208 l 463 208 q 623 269 565 208 q 681 463 681 329 q 623 658 681 597 q 463 718 565 718 l 368 718 l 368 208 m 7 389 l 7 539 l 457 539 l 457 389 l 7 389 z "},"Ď":{"ha":1014,"x_min":90,"x_max":965,"o":"m 90 0 l 90 926 l 497 926 q 853 808 742 926 q 965 463 965 690 q 853 118 965 236 q 497 0 742 0 l 90 0 m 368 208 l 463 208 q 623 269 565 208 q 681 463 681 329 q 623 658 681 597 q 463 718 565 718 l 368 718 l 368 208 z "},"Đ":{"ha":1014,"x_min":7,"x_max":965,"o":"m 90 0 l 90 926 l 497 926 q 853 808 742 926 q 965 463 965 690 q 853 118 965 236 q 497 0 742 0 l 90 0 m 368 208 l 463 208 q 623 269 565 208 q 681 463 681 329 q 623 658 681 597 q 463 718 565 718 l 368 718 l 368 208 m 7 389 l 7 539 l 457 539 l 457 389 l 7 389 z "},"ǲ":{"ha":1719,"x_min":90,"x_max":1657,"o":"m 90 0 l 90 926 l 497 926 q 853 808 742 926 q 965 463 965 690 q 853 118 965 236 q 497 0 742 0 l 90 0 m 368 208 l 463 208 q 623 269 565 208 q 681 463 681 329 q 623 658 681 597 q 463 718 565 718 l 368 718 l 368 208 m 1076 0 l 1076 196 l 1439 571 l 1458 522 l 1083 522 l 1083 707 l 1657 707 l 1657 514 l 1333 133 l 1324 199 l 1657 199 l 1657 0 l 1076 0 z "},"ǅ":{"ha":1719,"x_min":90,"x_max":1657,"o":"m 90 0 l 90 926 l 497 926 q 853 808 742 926 q 965 463 965 690 q 853 118 965 236 q 497 0 742 0 l 90 0 m 368 208 l 463 208 q 623 269 565 208 q 681 463 681 329 q 623 658 681 597 q 463 718 565 718 l 368 718 l 368 208 z "},"E":{"ha":831,"x_min":90,"x_max":747,"o":"m 90 0 l 90 926 l 747 926 l 747 718 l 369 718 l 369 568 l 693 568 l 693 360 l 368 360 l 368 208 l 747 208 l 747 0 l 90 0 z "},"É":{"ha":831,"x_min":90,"x_max":747,"o":"m 90 0 l 90 926 l 747 926 l 747 718 l 369 718 l 369 568 l 693 568 l 693 360 l 368 360 l 368 208 l 747 208 l 747 0 l 90 0 m 353 992 l 392 1147 l 657 1147 l 472 992 l 353 992 z "},"Ĕ":{"ha":831,"x_min":90,"x_max":747,"o":"m 90 0 l 90 926 l 747 926 l 747 718 l 369 718 l 369 568 l 693 568 l 693 360 l 368 360 l 368 208 l 747 208 l 747 0 l 90 0 z "},"Ě":{"ha":831,"x_min":90,"x_max":747,"o":"m 90 0 l 90 926 l 747 926 l 747 718 l 369 718 l 369 568 l 693 568 l 693 360 l 368 360 l 368 208 l 747 208 l 747 0 l 90 0 z "},"Ḝ":{"ha":831,"x_min":90,"x_max":747,"o":"m 90 0 l 90 926 l 747 926 l 747 718 l 369 718 l 369 568 l 693 568 l 693 360 l 368 360 l 368 208 l 747 208 l 747 0 l 90 0 z "},"Ê":{"ha":831,"x_min":90,"x_max":747,"o":"m 90 0 l 90 926 l 747 926 l 747 718 l 369 718 l 369 568 l 693 568 l 693 360 l 368 360 l 368 208 l 747 208 l 747 0 l 90 0 z "},"Ế":{"ha":831,"x_min":90,"x_max":911,"o":"m 90 0 l 90 926 l 747 926 l 747 718 l 369 718 l 369 568 l 693 568 l 693 360 l 368 360 l 368 208 l 747 208 l 747 0 l 90 0 z "},"Ệ":{"ha":831,"x_min":90,"x_max":747,"o":"m 90 0 l 90 926 l 747 926 l 747 718 l 369 718 l 369 568 l 693 568 l 693 360 l 368 360 l 368 208 l 747 208 l 747 0 l 90 0 z "},"Ề":{"ha":831,"x_min":-46,"x_max":747,"o":"m 90 0 l 90 926 l 747 926 l 747 718 l 369 718 l 369 568 l 693 568 l 693 360 l 368 360 l 368 208 l 747 208 l 747 0 l 90 0 z "},"Ể":{"ha":831,"x_min":90,"x_max":807,"o":"m 90 0 l 90 926 l 747 926 l 747 718 l 369 718 l 369 568 l 693 568 l 693 360 l 368 360 l 368 208 l 747 208 l 747 0 l 90 0 z "},"Ễ":{"ha":831,"x_min":90,"x_max":747,"o":"m 90 0 l 90 926 l 747 926 l 747 718 l 369 718 l 369 568 l 693 568 l 693 360 l 368 360 l 368 208 l 747 208 l 747 0 l 90 0 z "},"Ȅ":{"ha":831,"x_min":90,"x_max":747,"o":"m 90 0 l 90 926 l 747 926 l 747 718 l 369 718 l 369 568 l 693 568 l 693 360 l 368 360 l 368 208 l 747 208 l 747 0 l 90 0 z "},"Ë":{"ha":831,"x_min":90,"x_max":747,"o":"m 90 0 l 90 926 l 747 926 l 747 718 l 369 718 l 369 568 l 693 568 l 693 360 l 368 360 l 368 208 l 747 208 l 747 0 l 90 0 z "},"Ė":{"ha":831,"x_min":90,"x_max":747,"o":"m 90 0 l 90 926 l 747 926 l 747 718 l 369 718 l 369 568 l 693 568 l 693 360 l 368 360 l 368 208 l 747 208 l 747 0 l 90 0 z "},"Ẹ":{"ha":831,"x_min":90,"x_max":747,"o":"m 90 0 l 90 926 l 747 926 l 747 718 l 369 718 l 369 568 l 693 568 l 693 360 l 368 360 l 368 208 l 747 208 l 747 0 l 90 0 z "},"È":{"ha":831,"x_min":90,"x_max":747,"o":"m 90 0 l 90 926 l 747 926 l 747 718 l 369 718 l 369 568 l 693 568 l 693 360 l 368 360 l 368 208 l 747 208 l 747 0 l 90 0 m 360 992 l 217 1144 l 435 1144 l 493 992 l 360 992 z "},"Ẻ":{"ha":831,"x_min":90,"x_max":747,"o":"m 90 0 l 90 926 l 747 926 l 747 718 l 369 718 l 369 568 l 693 568 l 693 360 l 368 360 l 368 208 l 747 208 l 747 0 l 90 0 z "},"Ȇ":{"ha":831,"x_min":90,"x_max":747,"o":"m 90 0 l 90 926 l 747 926 l 747 718 l 369 718 l 369 568 l 693 568 l 693 360 l 368 360 l 368 208 l 747 208 l 747 0 l 90 0 z "},"Ē":{"ha":831,"x_min":90,"x_max":747,"o":"m 90 0 l 90 926 l 747 926 l 747 718 l 369 718 l 369 568 l 693 568 l 693 360 l 368 360 l 368 208 l 747 208 l 747 0 l 90 0 z "},"Ḗ":{"ha":831,"x_min":90,"x_max":747,"o":"m 90 0 l 90 926 l 747 926 l 747 718 l 369 718 l 369 568 l 693 568 l 693 360 l 368 360 l 368 208 l 747 208 l 747 0 l 90 0 m 353 1193 l 392 1349 l 657 1349 l 472 1193 l 353 1193 z "},"Ḕ":{"ha":831,"x_min":90,"x_max":747,"o":"m 90 0 l 90 926 l 747 926 l 747 718 l 369 718 l 369 568 l 693 568 l 693 360 l 368 360 l 368 208 l 747 208 l 747 0 l 90 0 m 360 1193 l 217 1346 l 435 1346 l 493 1193 l 360 1193 z "},"Ę":{"ha":831,"x_min":90,"x_max":747,"o":"m 90 0 l 90 926 l 747 926 l 747 718 l 369 718 l 369 568 l 693 568 l 693 360 l 368 360 l 368 208 l 747 208 l 747 0 l 90 0 z "},"Ẽ":{"ha":831,"x_min":90,"x_max":747,"o":"m 90 0 l 90 926 l 747 926 l 747 718 l 369 718 l 369 568 l 693 568 l 693 360 l 368 360 l 368 208 l 747 208 l 747 0 l 90 0 z "},"F":{"ha":810,"x_min":90,"x_max":747,"o":"m 90 0 l 90 926 l 747 926 l 747 718 l 368 718 l 368 540 l 693 540 l 693 331 l 368 331 l 368 0 l 90 0 z "},"Ḟ":{"ha":806,"x_min":90,"x_max":747,"o":"m 90 0 l 90 926 l 747 926 l 747 718 l 368 718 l 368 540 l 693 540 l 693 331 l 368 331 l 368 0 l 90 0 z "},"G":{"ha":992,"x_min":49,"x_max":901,"o":"m 511 -21 q 272 26 376 -21 q 108 178 168 72 q 49 463 49 285 q 108 744 49 636 q 272 901 168 851 q 510 950 376 950 q 690 931 603 950 q 858 881 778 913 l 858 633 q 695 712 767 683 q 546 740 624 740 q 434 717 482 740 q 360 635 386 694 q 333 464 333 575 q 361 295 333 356 q 434 210 389 235 q 531 186 479 186 q 585 190 561 186 q 624 204 610 194 l 624 325 l 500 325 l 500 533 l 901 533 l 901 90 q 712 8 811 38 q 511 -21 613 -21 z "},"Ǵ":{"ha":992,"x_min":49,"x_max":901,"o":"m 511 -21 q 272 26 376 -21 q 108 178 168 72 q 49 463 49 285 q 108 744 49 636 q 272 901 168 851 q 510 950 376 950 q 690 931 603 950 q 858 881 778 913 l 858 633 q 695 712 767 683 q 546 740 624 740 q 434 717 482 740 q 360 635 386 694 q 333 464 333 575 q 361 295 333 356 q 434 210 389 235 q 531 186 479 186 q 585 190 561 186 q 624 204 610 194 l 624 325 l 500 325 l 500 533 l 901 533 l 901 90 q 712 8 811 38 q 511 -21 613 -21 m 453 1019 l 492 1175 l 757 1175 l 572 1019 l 453 1019 z "},"Ğ":{"ha":992,"x_min":49,"x_max":901,"o":"m 511 -21 q 272 26 376 -21 q 108 178 168 72 q 49 463 49 285 q 108 744 49 636 q 272 901 168 851 q 510 950 376 950 q 690 931 603 950 q 858 881 778 913 l 858 633 q 695 712 767 683 q 546 740 624 740 q 434 717 482 740 q 360 635 386 694 q 333 464 333 575 q 361 295 333 356 q 434 210 389 235 q 531 186 479 186 q 585 190 561 186 q 624 204 610 194 l 624 325 l 500 325 l 500 533 l 901 533 l 901 90 q 712 8 811 38 q 511 -21 613 -21 z "},"Ǧ":{"ha":992,"x_min":49,"x_max":901,"o":"m 511 -21 q 272 26 376 -21 q 108 178 168 72 q 49 463 49 285 q 108 744 49 636 q 272 901 168 851 q 510 950 376 950 q 690 931 603 950 q 858 881 778 913 l 858 633 q 695 712 767 683 q 546 740 624 740 q 434 717 482 740 q 360 635 386 694 q 333 464 333 575 q 361 295 333 356 q 434 210 389 235 q 531 186 479 186 q 585 190 561 186 q 624 204 610 194 l 624 325 l 500 325 l 500 533 l 901 533 l 901 90 q 712 8 811 38 q 511 -21 613 -21 z "},"Ĝ":{"ha":992,"x_min":49,"x_max":901,"o":"m 511 -21 q 272 26 376 -21 q 108 178 168 72 q 49 463 49 285 q 108 744 49 636 q 272 901 168 851 q 510 950 376 950 q 690 931 603 950 q 858 881 778 913 l 858 633 q 695 712 767 683 q 546 740 624 740 q 434 717 482 740 q 360 635 386 694 q 333 464 333 575 q 361 295 333 356 q 434 210 389 235 q 531 186 479 186 q 585 190 561 186 q 624 204 610 194 l 624 325 l 500 325 l 500 533 l 901 533 l 901 90 q 712 8 811 38 q 511 -21 613 -21 z "},"Ģ":{"ha":992,"x_min":49,"x_max":901,"o":"m 511 -21 q 272 26 376 -21 q 108 178 168 72 q 49 463 49 285 q 108 744 49 636 q 272 901 168 851 q 510 950 376 950 q 690 931 603 950 q 858 881 778 913 l 858 633 q 695 712 767 683 q 546 740 624 740 q 434 717 482 740 q 360 635 386 694 q 333 464 333 575 q 361 295 333 356 q 434 210 389 235 q 531 186 479 186 q 585 190 561 186 q 624 204 610 194 l 624 325 l 500 325 l 500 533 l 901 533 l 901 90 q 712 8 811 38 q 511 -21 613 -21 z "},"Ġ":{"ha":992,"x_min":49,"x_max":901,"o":"m 511 -21 q 272 26 376 -21 q 108 178 168 72 q 49 463 49 285 q 108 744 49 636 q 272 901 168 851 q 510 950 376 950 q 690 931 603 950 q 858 881 778 913 l 858 633 q 695 712 767 683 q 546 740 624 740 q 434 717 482 740 q 360 635 386 694 q 333 464 333 575 q 361 295 333 356 q 434 210 389 235 q 531 186 479 186 q 585 190 561 186 q 624 204 610 194 l 624 325 l 500 325 l 500 533 l 901 533 l 901 90 q 712 8 811 38 q 511 -21 613 -21 z "},"Ḡ":{"ha":992,"x_min":49,"x_max":901,"o":"m 511 -21 q 272 26 376 -21 q 108 178 168 72 q 49 463 49 285 q 108 744 49 636 q 272 901 168 851 q 510 950 376 950 q 690 931 603 950 q 858 881 778 913 l 858 633 q 695 712 767 683 q 546 740 624 740 q 434 717 482 740 q 360 635 386 694 q 333 464 333 575 q 361 295 333 356 q 434 210 389 235 q 531 186 479 186 q 585 190 561 186 q 624 204 610 194 l 624 325 l 500 325 l 500 533 l 901 533 l 901 90 q 712 8 811 38 q 511 -21 613 -21 z "},"H":{"ha":1011,"x_min":90,"x_max":921,"o":"m 90 0 l 90 926 l 368 926 l 368 569 l 643 569 l 643 926 l 921 926 l 921 0 l 643 0 l 643 347 l 368 347 l 368 0 l 90 0 z "},"Ħ":{"ha":1011,"x_min":35,"x_max":976,"o":"m 35 682 l 35 804 l 976 804 l 976 682 l 35 682 m 90 0 l 90 926 l 368 926 l 368 569 l 643 569 l 643 926 l 921 926 l 921 0 l 643 0 l 643 347 l 368 347 l 368 0 l 90 0 z "},"Ḫ":{"ha":1011,"x_min":90,"x_max":921,"o":"m 90 0 l 90 926 l 368 926 l 368 569 l 643 569 l 643 926 l 921 926 l 921 0 l 643 0 l 643 347 l 368 347 l 368 0 l 90 0 z "},"Ĥ":{"ha":1011,"x_min":90,"x_max":921,"o":"m 90 0 l 90 926 l 368 926 l 368 569 l 643 569 l 643 926 l 921 926 l 921 0 l 643 0 l 643 347 l 368 347 l 368 0 l 90 0 z "},"I":{"ha":460,"x_min":90,"x_max":369,"o":"m 90 0 l 90 926 l 369 926 l 369 0 l 90 0 z "},"Ĳ":{"ha":1139,"x_min":90,"x_max":1049,"o":"m 90 0 l 90 926 l 369 926 l 369 0 l 90 0 m 735 -21 q 612 -6 671 -21 q 501 32 553 10 l 501 281 q 590 219 553 244 q 663 194 628 194 q 738 218 707 194 q 769 294 769 242 l 769 926 l 1049 926 l 1049 283 q 1022 139 1049 197 q 950 45 994 81 q 849 -6 906 10 q 735 -21 793 -21 z "},"Í":{"ha":460,"x_min":90,"x_max":478,"o":"m 90 0 l 90 926 l 369 926 l 369 0 l 90 0 m 174 992 l 213 1147 l 478 1147 l 293 992 l 174 992 z "},"Ĭ":{"ha":460,"x_min":22,"x_max":460,"o":"m 90 0 l 90 926 l 369 926 l 369 0 l 90 0 z "},"Ǐ":{"ha":460,"x_min":19,"x_max":447,"o":"m 90 0 l 90 926 l 369 926 l 369 0 l 90 0 z "},"Î":{"ha":460,"x_min":13,"x_max":468,"o":"m 90 0 l 90 926 l 369 926 l 369 0 l 90 0 z "},"Ȉ":{"ha":460,"x_min":-83,"x_max":460,"o":"m 90 0 l 90 926 l 369 926 l 369 0 l 90 0 z "},"Ï":{"ha":460,"x_min":-8,"x_max":476,"o":"m 90 0 l 90 926 l 369 926 l 369 0 l 90 0 z "},"Ḯ":{"ha":460,"x_min":-8,"x_max":478,"o":"m 90 0 l 90 926 l 369 926 l 369 0 l 90 0 m 174 1181 l 213 1336 l 478 1336 l 293 1181 l 174 1181 z "},"İ":{"ha":460,"x_min":90,"x_max":369,"o":"m 90 0 l 90 926 l 369 926 l 369 0 l 90 0 z "},"Ị":{"ha":460,"x_min":90,"x_max":369,"o":"m 90 0 l 90 926 l 369 926 l 369 0 l 90 0 z "},"Ì":{"ha":460,"x_min":38,"x_max":369,"o":"m 90 0 l 90 926 l 369 926 l 369 0 l 90 0 m 181 992 l 38 1144 l 256 1144 l 314 992 l 181 992 z "},"Ỉ":{"ha":460,"x_min":90,"x_max":376,"o":"m 90 0 l 90 926 l 369 926 l 369 0 l 90 0 z "},"Ȋ":{"ha":460,"x_min":22,"x_max":460,"o":"m 90 0 l 90 926 l 369 926 l 369 0 l 90 0 z "},"Ī":{"ha":460,"x_min":28,"x_max":436,"o":"m 90 0 l 90 926 l 369 926 l 369 0 l 90 0 z "},"Į":{"ha":460,"x_min":26,"x_max":371,"o":"m 225 -269 q 74 -235 121 -269 q 26 -129 26 -200 q 80 -29 26 -69 q 218 43 133 11 l 363 0 q 265 -49 306 -22 q 225 -103 225 -75 q 239 -143 225 -133 q 274 -153 253 -153 q 323 -138 299 -153 q 371 -101 347 -124 l 371 -233 q 317 -257 349 -244 q 225 -269 285 -269 m 90 0 l 90 926 l 369 926 l 369 0 l 90 0 z "},"Ĩ":{"ha":460,"x_min":-29,"x_max":536,"o":"m 90 0 l 90 926 l 369 926 l 369 0 l 90 0 z "},"J":{"ha":679,"x_min":42,"x_max":589,"o":"m 275 -21 q 152 -6 211 -21 q 42 32 93 10 l 42 281 q 131 219 93 244 q 203 194 168 194 q 278 218 247 194 q 310 294 310 242 l 310 926 l 589 926 l 589 283 q 562 139 589 197 q 490 45 535 81 q 390 -6 446 10 q 275 -21 333 -21 z "},"Ĵ":{"ha":679,"x_min":42,"x_max":679,"o":"m 275 -21 q 152 -6 211 -21 q 42 32 93 10 l 42 281 q 131 219 93 244 q 203 194 168 194 q 278 218 247 194 q 310 294 310 242 l 310 926 l 589 926 l 589 283 q 562 139 589 197 q 490 45 535 81 q 390 -6 446 10 q 275 -21 333 -21 z "},"K":{"ha":983,"x_min":90,"x_max":963,"o":"m 360 271 l 251 419 l 586 926 l 936 926 l 360 271 m 90 0 l 90 926 l 369 926 l 369 0 l 90 0 m 581 596 l 963 0 l 619 0 l 364 419 l 581 596 z "},"Ķ":{"ha":983,"x_min":90,"x_max":963,"o":"m 360 271 l 251 419 l 586 926 l 936 926 l 360 271 m 90 0 l 90 926 l 369 926 l 369 0 l 90 0 m 581 596 l 963 0 l 619 0 l 364 419 l 581 596 z "},"L":{"ha":789,"x_min":90,"x_max":740,"o":"m 90 0 l 90 926 l 369 926 l 369 210 l 740 210 l 740 0 l 90 0 z "},"Ǉ":{"ha":1468,"x_min":90,"x_max":1378,"o":"m 90 0 l 90 926 l 369 926 l 369 210 l 740 210 l 740 0 l 90 0 m 1064 -21 q 941 -6 1000 -21 q 831 32 882 10 l 831 281 q 919 219 882 244 q 992 194 957 194 q 1067 218 1036 194 q 1099 294 1099 242 l 1099 926 l 1378 926 l 1378 283 q 1351 139 1378 197 q 1279 45 1324 81 q 1178 -6 1235 10 q 1064 -21 1122 -21 z "},"Ĺ":{"ha":789,"x_min":90,"x_max":740,"o":"m 90 0 l 90 926 l 369 926 l 369 210 l 740 210 l 740 0 l 90 0 m 175 992 l 214 1147 l 479 1147 l 294 992 l 175 992 z "},"Ľ":{"ha":789,"x_min":90,"x_max":740,"o":"m 90 0 l 90 926 l 369 926 l 369 210 l 740 210 l 740 0 l 90 0 z "},"Ļ":{"ha":789,"x_min":90,"x_max":740,"o":"m 90 0 l 90 926 l 369 926 l 369 210 l 740 210 l 740 0 l 90 0 z "},"Ŀ":{"ha":789,"x_min":90,"x_max":740,"o":"m 90 0 l 90 926 l 369 926 l 369 210 l 740 210 l 740 0 l 90 0 m 518 365 l 518 557 l 718 557 l 718 365 l 518 365 z "},"Ḷ":{"ha":789,"x_min":90,"x_max":740,"o":"m 90 0 l 90 926 l 369 926 l 369 210 l 740 210 l 740 0 l 90 0 z "},"ǈ":{"ha":1232,"x_min":90,"x_max":1149,"o":"m 90 0 l 90 926 l 369 926 l 369 210 l 740 210 l 740 0 l 90 0 m 796 -268 l 796 -68 q 846 -67 824 -74 q 881 -42 868 -61 q 893 7 893 -24 l 893 707 l 1146 707 l 1149 10 q 1101 -162 1149 -101 q 972 -245 1053 -222 q 796 -268 892 -268 m 890 804 l 890 986 l 1149 986 l 1149 804 l 890 804 z "},"Ḻ":{"ha":789,"x_min":90,"x_max":740,"o":"m 90 0 l 90 926 l 369 926 l 369 210 l 740 210 l 740 0 l 90 0 z "},"Ł":{"ha":800,"x_min":6,"x_max":740,"o":"m 563 700 l 563 531 l 6 225 l 6 394 l 563 700 m 90 0 l 90 926 l 369 926 l 369 210 l 740 210 l 740 0 l 90 0 z "},"M":{"ha":1211,"x_min":90,"x_max":1121,"o":"m 90 0 l 90 926 l 371 926 l 678 519 l 533 519 l 849 926 l 1121 926 l 1121 0 l 843 0 l 843 726 l 886 625 l 599 253 l 301 639 l 354 665 l 354 0 l 90 0 z "},"Ṃ":{"ha":1211,"x_min":90,"x_max":1121,"o":"m 90 0 l 90 926 l 371 926 l 678 519 l 533 519 l 849 926 l 1121 926 l 1121 0 l 843 0 l 843 726 l 886 625 l 599 253 l 301 639 l 354 665 l 354 0 l 90 0 m 522 -221 l 522 -69 l 689 -69 l 689 -221 l 522 -221 z "},"N":{"ha":1007,"x_min":90,"x_max":917,"o":"m 90 0 l 90 926 l 315 926 l 749 360 l 664 176 l 664 926 l 917 926 l 917 0 l 722 0 l 288 543 l 343 669 l 343 0 l 90 0 z "},"Ǌ":{"ha":1686,"x_min":90,"x_max":1596,"o":"m 90 0 l 90 926 l 315 926 l 749 360 l 664 176 l 664 926 l 917 926 l 917 0 l 722 0 l 288 543 l 343 669 l 343 0 l 90 0 m 1282 -21 q 1159 -6 1218 -21 q 1049 32 1100 10 l 1049 281 q 1138 219 1100 244 q 1210 194 1175 194 q 1285 218 1254 194 q 1317 294 1317 242 l 1317 926 l 1596 926 l 1596 283 q 1569 139 1596 197 q 1497 45 1542 81 q 1397 -6 1453 10 q 1282 -21 1340 -21 z "},"Ń":{"ha":1007,"x_min":90,"x_max":917,"o":"m 90 0 l 90 926 l 315 926 l 749 360 l 664 176 l 664 926 l 917 926 l 917 0 l 722 0 l 288 543 l 343 669 l 343 0 l 90 0 m 438 992 l 476 1147 l 742 1147 l 557 992 l 438 992 z "},"Ň":{"ha":1007,"x_min":90,"x_max":917,"o":"m 90 0 l 90 926 l 315 926 l 749 360 l 664 176 l 664 926 l 917 926 l 917 0 l 722 0 l 288 543 l 343 669 l 343 0 l 90 0 z "},"Ņ":{"ha":1007,"x_min":90,"x_max":917,"o":"m 90 0 l 90 926 l 315 926 l 749 360 l 664 176 l 664 926 l 917 926 l 917 0 l 722 0 l 288 543 l 343 669 l 343 0 l 90 0 z "},"Ṇ":{"ha":1007,"x_min":90,"x_max":917,"o":"m 90 0 l 90 926 l 315 926 l 749 360 l 664 176 l 664 926 l 917 926 l 917 0 l 722 0 l 288 543 l 343 669 l 343 0 l 90 0 z "},"Ŋ":{"ha":1099,"x_min":121,"x_max":975,"o":"m 622 -268 l 622 -96 q 674 -90 649 -96 q 718 -66 700 -85 q 736 -11 736 -47 l 736 42 l 767 -40 l 360 551 l 360 0 l 121 0 l 121 926 l 360 926 l 736 371 l 736 926 l 975 926 l 975 0 q 924 -165 972 -107 q 796 -246 875 -224 q 622 -268 717 -268 z "},"Ɲ":{"ha":1021,"x_min":7,"x_max":931,"o":"m 357 10 q 310 -162 357 -101 q 183 -245 263 -222 q 7 -268 103 -268 l 7 -68 q 57 -67 35 -74 q 92 -42 79 -61 q 104 7 104 -24 l 104 926 l 329 926 l 763 360 l 678 176 l 678 926 l 931 926 l 931 0 l 736 0 l 301 543 l 357 669 l 357 10 z "},"ǋ":{"ha":1450,"x_min":90,"x_max":1367,"o":"m 90 0 l 90 926 l 315 926 l 749 360 l 664 176 l 664 926 l 917 926 l 917 0 l 722 0 l 288 543 l 343 669 l 343 0 l 90 0 m 1014 -268 l 1014 -68 q 1064 -67 1042 -74 q 1099 -42 1086 -61 q 1111 7 1111 -24 l 1111 707 l 1364 707 l 1367 10 q 1319 -162 1367 -101 q 1190 -245 1271 -222 q 1014 -268 1110 -268 m 1108 804 l 1108 986 l 1367 986 l 1367 804 l 1108 804 z "},"Ṉ":{"ha":1007,"x_min":90,"x_max":917,"o":"m 90 0 l 90 926 l 315 926 l 749 360 l 664 176 l 664 926 l 917 926 l 917 0 l 722 0 l 288 543 l 343 669 l 343 0 l 90 0 z "},"Ñ":{"ha":1007,"x_min":90,"x_max":917,"o":"m 90 0 l 90 926 l 315 926 l 749 360 l 664 176 l 664 926 l 917 926 l 917 0 l 722 0 l 288 543 l 343 669 l 343 0 l 90 0 z "},"O":{"ha":1033,"x_min":49,"x_max":985,"o":"m 517 -21 q 274 31 379 -21 q 108 189 168 82 q 49 463 49 296 q 174 824 49 701 q 517 947 299 947 q 760 896 654 947 q 925 738 865 844 q 985 464 985 632 q 860 102 985 225 q 517 -21 736 -21 m 517 201 q 611 226 571 201 q 674 308 651 250 q 697 465 697 365 q 674 622 697 565 q 611 702 651 679 q 517 725 571 725 q 422 701 463 725 q 359 619 382 676 q 336 461 336 563 q 359 305 336 361 q 422 225 382 249 q 517 201 463 201 z "},"Ó":{"ha":1033,"x_min":49,"x_max":985,"o":"m 517 -21 q 274 31 379 -21 q 108 189 168 82 q 49 463 49 296 q 174 824 49 701 q 517 947 299 947 q 760 896 654 947 q 925 738 865 844 q 985 464 985 632 q 860 102 985 225 q 517 -21 736 -21 m 517 201 q 611 226 571 201 q 674 308 651 250 q 697 465 697 365 q 674 622 697 565 q 611 702 651 679 q 517 725 571 725 q 422 701 463 725 q 359 619 382 676 q 336 461 336 563 q 359 305 336 361 q 422 225 382 249 q 517 201 463 201 m 450 1033 l 489 1189 l 754 1189 l 569 1033 l 450 1033 z "},"Ŏ":{"ha":1033,"x_min":49,"x_max":985,"o":"m 517 -21 q 274 31 379 -21 q 108 189 168 82 q 49 463 49 296 q 174 824 49 701 q 517 947 299 947 q 760 896 654 947 q 925 738 865 844 q 985 464 985 632 q 860 102 985 225 q 517 -21 736 -21 m 517 201 q 611 226 571 201 q 674 308 651 250 q 697 465 697 365 q 674 622 697 565 q 611 702 651 679 q 517 725 571 725 q 422 701 463 725 q 359 619 382 676 q 336 461 336 563 q 359 305 336 361 q 422 225 382 249 q 517 201 463 201 z "},"Ǒ":{"ha":1033,"x_min":49,"x_max":985,"o":"m 517 -21 q 274 31 379 -21 q 108 189 168 82 q 49 463 49 296 q 174 824 49 701 q 517 947 299 947 q 760 896 654 947 q 925 738 865 844 q 985 464 985 632 q 860 102 985 225 q 517 -21 736 -21 m 517 201 q 611 226 571 201 q 674 308 651 250 q 697 465 697 365 q 674 622 697 565 q 611 702 651 679 q 517 725 571 725 q 422 701 463 725 q 359 619 382 676 q 336 461 336 563 q 359 305 336 361 q 422 225 382 249 q 517 201 463 201 z "},"Ô":{"ha":1033,"x_min":49,"x_max":985,"o":"m 517 -21 q 274 31 379 -21 q 108 189 168 82 q 49 463 49 296 q 174 824 49 701 q 517 947 299 947 q 760 896 654 947 q 925 738 865 844 q 985 464 985 632 q 860 102 985 225 q 517 -21 736 -21 m 517 201 q 611 226 571 201 q 674 308 651 250 q 697 465 697 365 q 674 622 697 565 q 611 702 651 679 q 517 725 571 725 q 422 701 463 725 q 359 619 382 676 q 336 461 336 563 q 359 305 336 361 q 422 225 382 249 q 517 201 463 201 z "},"Ố":{"ha":1033,"x_min":49,"x_max":1008,"o":"m 517 -21 q 274 31 379 -21 q 108 189 168 82 q 49 463 49 296 q 174 824 49 701 q 517 947 299 947 q 760 896 654 947 q 925 738 865 844 q 985 464 985 632 q 860 102 985 225 q 517 -21 736 -21 m 517 201 q 611 226 571 201 q 674 308 651 250 q 697 465 697 365 q 674 622 697 565 q 611 702 651 679 q 517 725 571 725 q 422 701 463 725 q 359 619 382 676 q 336 461 336 563 q 359 305 336 361 q 422 225 382 249 q 517 201 463 201 z "},"Ộ":{"ha":1033,"x_min":49,"x_max":985,"o":"m 517 -21 q 274 31 379 -21 q 108 189 168 82 q 49 463 49 296 q 174 824 49 701 q 517 947 299 947 q 760 896 654 947 q 925 738 865 844 q 985 464 985 632 q 860 102 985 225 q 517 -21 736 -21 m 517 201 q 611 226 571 201 q 674 308 651 250 q 697 465 697 365 q 674 622 697 565 q 611 702 651 679 q 517 725 571 725 q 422 701 463 725 q 359 619 382 676 q 336 461 336 563 q 359 305 336 361 q 422 225 382 249 q 517 201 463 201 z "},"Ồ":{"ha":1033,"x_min":49,"x_max":985,"o":"m 517 -21 q 274 31 379 -21 q 108 189 168 82 q 49 463 49 296 q 174 824 49 701 q 517 947 299 947 q 760 896 654 947 q 925 738 865 844 q 985 464 985 632 q 860 102 985 225 q 517 -21 736 -21 m 517 201 q 611 226 571 201 q 674 308 651 250 q 697 465 697 365 q 674 622 697 565 q 611 702 651 679 q 517 725 571 725 q 422 701 463 725 q 359 619 382 676 q 336 461 336 563 q 359 305 336 361 q 422 225 382 249 q 517 201 463 201 z "},"Ổ":{"ha":1033,"x_min":49,"x_max":985,"o":"m 517 -21 q 274 31 379 -21 q 108 189 168 82 q 49 463 49 296 q 174 824 49 701 q 517 947 299 947 q 760 896 654 947 q 925 738 865 844 q 985 464 985 632 q 860 102 985 225 q 517 -21 736 -21 m 517 201 q 611 226 571 201 q 674 308 651 250 q 697 465 697 365 q 674 622 697 565 q 611 702 651 679 q 517 725 571 725 q 422 701 463 725 q 359 619 382 676 q 336 461 336 563 q 359 305 336 361 q 422 225 382 249 q 517 201 463 201 z "},"Ỗ":{"ha":1033,"x_min":49,"x_max":985,"o":"m 517 -21 q 274 31 379 -21 q 108 189 168 82 q 49 463 49 296 q 174 824 49 701 q 517 947 299 947 q 760 896 654 947 q 925 738 865 844 q 985 464 985 632 q 860 102 985 225 q 517 -21 736 -21 m 517 201 q 611 226 571 201 q 674 308 651 250 q 697 465 697 365 q 674 622 697 565 q 611 702 651 679 q 517 725 571 725 q 422 701 463 725 q 359 619 382 676 q 336 461 336 563 q 359 305 336 361 q 422 225 382 249 q 517 201 463 201 z "},"Ȍ":{"ha":1033,"x_min":49,"x_max":985,"o":"m 517 -21 q 274 31 379 -21 q 108 189 168 82 q 49 463 49 296 q 174 824 49 701 q 517 947 299 947 q 760 896 654 947 q 925 738 865 844 q 985 464 985 632 q 860 102 985 225 q 517 -21 736 -21 m 517 201 q 611 226 571 201 q 674 308 651 250 q 697 465 697 365 q 674 622 697 565 q 611 702 651 679 q 517 725 571 725 q 422 701 463 725 q 359 619 382 676 q 336 461 336 563 q 359 305 336 361 q 422 225 382 249 q 517 201 463 201 z "},"Ö":{"ha":1033,"x_min":49,"x_max":985,"o":"m 517 -21 q 274 31 379 -21 q 108 189 168 82 q 49 463 49 296 q 174 824 49 701 q 517 947 299 947 q 760 896 654 947 q 925 738 865 844 q 985 464 985 632 q 860 102 985 225 q 517 -21 736 -21 m 517 201 q 611 226 571 201 q 674 308 651 250 q 697 465 697 365 q 674 622 697 565 q 611 702 651 679 q 517 725 571 725 q 422 701 463 725 q 359 619 382 676 q 336 461 336 563 q 359 305 336 361 q 422 225 382 249 q 517 201 463 201 z "},"Ȫ":{"ha":1033,"x_min":49,"x_max":985,"o":"m 517 -21 q 274 31 379 -21 q 108 189 168 82 q 49 463 49 296 q 174 824 49 701 q 517 947 299 947 q 760 896 654 947 q 925 738 865 844 q 985 464 985 632 q 860 102 985 225 q 517 -21 736 -21 m 517 201 q 611 226 571 201 q 674 308 651 250 q 697 465 697 365 q 674 622 697 565 q 611 702 651 679 q 517 725 571 725 q 422 701 463 725 q 359 619 382 676 q 336 461 336 563 q 359 305 336 361 q 422 225 382 249 q 517 201 463 201 z "},"Ȱ":{"ha":1033,"x_min":49,"x_max":985,"o":"m 517 -21 q 274 31 379 -21 q 108 189 168 82 q 49 463 49 296 q 174 824 49 701 q 517 947 299 947 q 760 896 654 947 q 925 738 865 844 q 985 464 985 632 q 860 102 985 225 q 517 -21 736 -21 m 517 201 q 611 226 571 201 q 674 308 651 250 q 697 465 697 365 q 674 622 697 565 q 611 702 651 679 q 517 725 571 725 q 422 701 463 725 q 359 619 382 676 q 336 461 336 563 q 359 305 336 361 q 422 225 382 249 q 517 201 463 201 z "},"Ọ":{"ha":1033,"x_min":49,"x_max":985,"o":"m 517 -21 q 274 31 379 -21 q 108 189 168 82 q 49 463 49 296 q 174 824 49 701 q 517 947 299 947 q 760 896 654 947 q 925 738 865 844 q 985 464 985 632 q 860 102 985 225 q 517 -21 736 -21 m 517 201 q 611 226 571 201 q 674 308 651 250 q 697 465 697 365 q 674 622 697 565 q 611 702 651 679 q 517 725 571 725 q 422 701 463 725 q 359 619 382 676 q 336 461 336 563 q 359 305 336 361 q 422 225 382 249 q 517 201 463 201 z "},"Ò":{"ha":1033,"x_min":49,"x_max":985,"o":"m 517 -21 q 274 31 379 -21 q 108 189 168 82 q 49 463 49 296 q 174 824 49 701 q 517 947 299 947 q 760 896 654 947 q 925 738 865 844 q 985 464 985 632 q 860 102 985 225 q 517 -21 736 -21 m 517 201 q 611 226 571 201 q 674 308 651 250 q 697 465 697 365 q 674 622 697 565 q 611 702 651 679 q 517 725 571 725 q 422 701 463 725 q 359 619 382 676 q 336 461 336 563 q 359 305 336 361 q 422 225 382 249 q 517 201 463 201 m 457 1033 l 314 1186 l 532 1186 l 590 1033 l 457 1033 z "},"Ỏ":{"ha":1033,"x_min":49,"x_max":985,"o":"m 517 -21 q 274 31 379 -21 q 108 189 168 82 q 49 463 49 296 q 174 824 49 701 q 517 947 299 947 q 760 896 654 947 q 925 738 865 844 q 985 464 985 632 q 860 102 985 225 q 517 -21 736 -21 m 517 201 q 611 226 571 201 q 674 308 651 250 q 697 465 697 365 q 674 622 697 565 q 611 702 651 679 q 517 725 571 725 q 422 701 463 725 q 359 619 382 676 q 336 461 336 563 q 359 305 336 361 q 422 225 382 249 q 517 201 463 201 z "},"Ơ":{"ha":1033,"x_min":49,"x_max":985,"o":"m 517 -21 q 274 31 379 -21 q 108 189 168 82 q 49 463 49 296 q 174 824 49 701 q 517 947 299 947 q 760 896 654 947 q 925 738 865 844 q 985 464 985 632 q 860 102 985 225 q 517 -21 736 -21 m 517 201 q 611 226 571 201 q 674 308 651 250 q 697 465 697 365 q 674 622 697 565 q 611 702 651 679 q 517 725 571 725 q 422 701 463 725 q 359 619 382 676 q 336 461 336 563 q 359 305 336 361 q 422 225 382 249 q 517 201 463 201 z "},"Ớ":{"ha":1033,"x_min":49,"x_max":985,"o":"m 517 -21 q 274 31 379 -21 q 108 189 168 82 q 49 463 49 296 q 174 824 49 701 q 517 947 299 947 q 760 896 654 947 q 925 738 865 844 q 985 464 985 632 q 860 102 985 225 q 517 -21 736 -21 m 517 201 q 611 226 571 201 q 674 308 651 250 q 697 465 697 365 q 674 622 697 565 q 611 702 651 679 q 517 725 571 725 q 422 701 463 725 q 359 619 382 676 q 336 461 336 563 q 359 305 336 361 q 422 225 382 249 q 517 201 463 201 m 450 1033 l 489 1189 l 754 1189 l 569 1033 l 450 1033 z "},"Ợ":{"ha":1033,"x_min":49,"x_max":985,"o":"m 517 -21 q 274 31 379 -21 q 108 189 168 82 q 49 463 49 296 q 174 824 49 701 q 517 947 299 947 q 760 896 654 947 q 925 738 865 844 q 985 464 985 632 q 860 102 985 225 q 517 -21 736 -21 m 517 201 q 611 226 571 201 q 674 308 651 250 q 697 465 697 365 q 674 622 697 565 q 611 702 651 679 q 517 725 571 725 q 422 701 463 725 q 359 619 382 676 q 336 461 336 563 q 359 305 336 361 q 422 225 382 249 q 517 201 463 201 z "},"Ờ":{"ha":1033,"x_min":49,"x_max":985,"o":"m 517 -21 q 274 31 379 -21 q 108 189 168 82 q 49 463 49 296 q 174 824 49 701 q 517 947 299 947 q 760 896 654 947 q 925 738 865 844 q 985 464 985 632 q 860 102 985 225 q 517 -21 736 -21 m 517 201 q 611 226 571 201 q 674 308 651 250 q 697 465 697 365 q 674 622 697 565 q 611 702 651 679 q 517 725 571 725 q 422 701 463 725 q 359 619 382 676 q 336 461 336 563 q 359 305 336 361 q 422 225 382 249 q 517 201 463 201 m 457 1033 l 314 1186 l 532 1186 l 590 1033 l 457 1033 z "},"Ở":{"ha":1033,"x_min":49,"x_max":985,"o":"m 517 -21 q 274 31 379 -21 q 108 189 168 82 q 49 463 49 296 q 174 824 49 701 q 517 947 299 947 q 760 896 654 947 q 925 738 865 844 q 985 464 985 632 q 860 102 985 225 q 517 -21 736 -21 m 517 201 q 611 226 571 201 q 674 308 651 250 q 697 465 697 365 q 674 622 697 565 q 611 702 651 679 q 517 725 571 725 q 422 701 463 725 q 359 619 382 676 q 336 461 336 563 q 359 305 336 361 q 422 225 382 249 q 517 201 463 201 z "},"Ỡ":{"ha":1033,"x_min":49,"x_max":985,"o":"m 517 -21 q 274 31 379 -21 q 108 189 168 82 q 49 463 49 296 q 174 824 49 701 q 517 947 299 947 q 760 896 654 947 q 925 738 865 844 q 985 464 985 632 q 860 102 985 225 q 517 -21 736 -21 m 517 201 q 611 226 571 201 q 674 308 651 250 q 697 465 697 365 q 674 622 697 565 q 611 702 651 679 q 517 725 571 725 q 422 701 463 725 q 359 619 382 676 q 336 461 336 563 q 359 305 336 361 q 422 225 382 249 q 517 201 463 201 z "},"Ő":{"ha":1033,"x_min":49,"x_max":985,"o":"m 517 -21 q 274 31 379 -21 q 108 189 168 82 q 49 463 49 296 q 174 824 49 701 q 517 947 299 947 q 760 896 654 947 q 925 738 865 844 q 985 464 985 632 q 860 102 985 225 q 517 -21 736 -21 m 517 201 q 611 226 571 201 q 674 308 651 250 q 697 465 697 365 q 674 622 697 565 q 611 702 651 679 q 517 725 571 725 q 422 701 463 725 q 359 619 382 676 q 336 461 336 563 q 359 305 336 361 q 422 225 382 249 q 517 201 463 201 z "},"Ȏ":{"ha":1033,"x_min":49,"x_max":985,"o":"m 517 -21 q 274 31 379 -21 q 108 189 168 82 q 49 463 49 296 q 174 824 49 701 q 517 947 299 947 q 760 896 654 947 q 925 738 865 844 q 985 464 985 632 q 860 102 985 225 q 517 -21 736 -21 m 517 201 q 611 226 571 201 q 674 308 651 250 q 697 465 697 365 q 674 622 697 565 q 611 702 651 679 q 517 725 571 725 q 422 701 463 725 q 359 619 382 676 q 336 461 336 563 q 359 305 336 361 q 422 225 382 249 q 517 201 463 201 z "},"Ō":{"ha":1033,"x_min":49,"x_max":985,"o":"m 517 -21 q 274 31 379 -21 q 108 189 168 82 q 49 463 49 296 q 174 824 49 701 q 517 947 299 947 q 760 896 654 947 q 925 738 865 844 q 985 464 985 632 q 860 102 985 225 q 517 -21 736 -21 m 517 201 q 611 226 571 201 q 674 308 651 250 q 697 465 697 365 q 674 622 697 565 q 611 702 651 679 q 517 725 571 725 q 422 701 463 725 q 359 619 382 676 q 336 461 336 563 q 359 305 336 361 q 422 225 382 249 q 517 201 463 201 z "},"Ṓ":{"ha":1033,"x_min":49,"x_max":985,"o":"m 517 -21 q 274 31 379 -21 q 108 189 168 82 q 49 463 49 296 q 174 824 49 701 q 517 947 299 947 q 760 896 654 947 q 925 738 865 844 q 985 464 985 632 q 860 102 985 225 q 517 -21 736 -21 m 517 201 q 611 226 571 201 q 674 308 651 250 q 697 465 697 365 q 674 622 697 565 q 611 702 651 679 q 517 725 571 725 q 422 701 463 725 q 359 619 382 676 q 336 461 336 563 q 359 305 336 361 q 422 225 382 249 q 517 201 463 201 m 450 1235 l 489 1390 l 754 1390 l 569 1235 l 450 1235 z "},"Ṑ":{"ha":1033,"x_min":49,"x_max":985,"o":"m 517 -21 q 274 31 379 -21 q 108 189 168 82 q 49 463 49 296 q 174 824 49 701 q 517 947 299 947 q 760 896 654 947 q 925 738 865 844 q 985 464 985 632 q 860 102 985 225 q 517 -21 736 -21 m 517 201 q 611 226 571 201 q 674 308 651 250 q 697 465 697 365 q 674 622 697 565 q 611 702 651 679 q 517 725 571 725 q 422 701 463 725 q 359 619 382 676 q 336 461 336 563 q 359 305 336 361 q 422 225 382 249 q 517 201 463 201 m 457 1235 l 314 1388 l 532 1388 l 590 1235 l 457 1235 z "},"Ǫ":{"ha":1033,"x_min":49,"x_max":985,"o":"m 517 -21 q 274 31 379 -21 q 108 189 168 82 q 49 463 49 296 q 174 824 49 701 q 517 947 299 947 q 760 896 654 947 q 925 738 865 844 q 985 464 985 632 q 860 102 985 225 q 517 -21 736 -21 m 517 201 q 611 226 571 201 q 674 308 651 250 q 697 465 697 365 q 674 622 697 565 q 611 702 651 679 q 517 725 571 725 q 422 701 463 725 q 359 619 382 676 q 336 461 336 563 q 359 305 336 361 q 422 225 382 249 q 517 201 463 201 z "},"Ø":{"ha":1033,"x_min":14,"x_max":1014,"o":"m 14 0 l 840 925 l 1014 925 l 186 0 l 14 0 m 517 -21 q 274 31 379 -21 q 108 189 168 82 q 49 463 49 296 q 174 824 49 701 q 517 947 299 947 q 760 896 654 947 q 925 738 865 844 q 985 464 985 632 q 860 102 985 225 q 517 -21 736 -21 m 517 201 q 611 226 571 201 q 674 308 651 250 q 697 465 697 365 q 674 622 697 565 q 611 702 651 679 q 517 725 571 725 q 422 701 463 725 q 359 619 382 676 q 336 461 336 563 q 359 305 336 361 q 422 225 382 249 q 517 201 463 201 z "},"Ǿ":{"ha":1033,"x_min":14,"x_max":1014,"o":"m 14 0 l 840 925 l 1014 925 l 186 0 l 14 0 m 517 -21 q 274 31 379 -21 q 108 189 168 82 q 49 463 49 296 q 174 824 49 701 q 517 947 299 947 q 760 896 654 947 q 925 738 865 844 q 985 464 985 632 q 860 102 985 225 q 517 -21 736 -21 m 517 201 q 611 226 571 201 q 674 308 651 250 q 697 465 697 365 q 674 622 697 565 q 611 702 651 679 q 517 725 571 725 q 422 701 463 725 q 359 619 382 676 q 336 461 336 563 q 359 305 336 361 q 422 225 382 249 q 517 201 463 201 m 450 992 l 489 1147 l 754 1147 l 569 992 l 450 992 z "},"Õ":{"ha":1033,"x_min":49,"x_max":985,"o":"m 517 -21 q 274 31 379 -21 q 108 189 168 82 q 49 463 49 296 q 174 824 49 701 q 517 947 299 947 q 760 896 654 947 q 925 738 865 844 q 985 464 985 632 q 860 102 985 225 q 517 -21 736 -21 m 517 201 q 611 226 571 201 q 674 308 651 250 q 697 465 697 365 q 674 622 697 565 q 611 702 651 679 q 517 725 571 725 q 422 701 463 725 q 359 619 382 676 q 336 461 336 563 q 359 305 336 361 q 422 225 382 249 q 517 201 463 201 z "},"Ṍ":{"ha":1033,"x_min":49,"x_max":985,"o":"m 517 -21 q 274 31 379 -21 q 108 189 168 82 q 49 463 49 296 q 174 824 49 701 q 517 947 299 947 q 760 896 654 947 q 925 738 865 844 q 985 464 985 632 q 860 102 985 225 q 517 -21 736 -21 m 517 201 q 611 226 571 201 q 674 308 651 250 q 697 465 697 365 q 674 622 697 565 q 611 702 651 679 q 517 725 571 725 q 422 701 463 725 q 359 619 382 676 q 336 461 336 563 q 359 305 336 361 q 422 225 382 249 q 517 201 463 201 m 450 1324 l 489 1479 l 754 1479 l 569 1324 l 450 1324 z "},"Ṏ":{"ha":1033,"x_min":49,"x_max":985,"o":"m 517 -21 q 274 31 379 -21 q 108 189 168 82 q 49 463 49 296 q 174 824 49 701 q 517 947 299 947 q 760 896 654 947 q 925 738 865 844 q 985 464 985 632 q 860 102 985 225 q 517 -21 736 -21 m 517 201 q 611 226 571 201 q 674 308 651 250 q 697 465 697 365 q 674 622 697 565 q 611 702 651 679 q 517 725 571 725 q 422 701 463 725 q 359 619 382 676 q 336 461 336 563 q 359 305 336 361 q 422 225 382 249 q 517 201 463 201 z "},"Ȭ":{"ha":1033,"x_min":49,"x_max":985,"o":"m 517 -21 q 274 31 379 -21 q 108 189 168 82 q 49 463 49 296 q 174 824 49 701 q 517 947 299 947 q 760 896 654 947 q 925 738 865 844 q 985 464 985 632 q 860 102 985 225 q 517 -21 736 -21 m 517 201 q 611 226 571 201 q 674 308 651 250 q 697 465 697 365 q 674 622 697 565 q 611 702 651 679 q 517 725 571 725 q 422 701 463 725 q 359 619 382 676 q 336 461 336 563 q 359 305 336 361 q 422 225 382 249 q 517 201 463 201 z "},"Œ":{"ha":1442,"x_min":49,"x_max":1358,"o":"m 517 -21 q 274 31 379 -21 q 108 189 168 82 q 49 463 49 296 q 174 824 49 701 q 517 947 299 947 q 760 896 654 947 q 925 738 865 844 q 985 464 985 632 q 860 102 985 225 q 517 -21 736 -21 m 517 201 q 611 226 571 201 q 674 308 651 250 q 697 465 697 365 q 674 622 697 565 q 611 702 651 679 q 517 725 571 725 q 422 701 463 725 q 359 619 382 676 q 336 461 336 563 q 359 305 336 361 q 422 225 382 249 q 517 201 463 201 m 701 0 l 701 926 l 1358 926 l 1358 718 l 981 718 l 981 568 l 1304 568 l 1304 360 l 979 360 l 979 208 l 1358 208 l 1358 0 l 701 0 z "},"P":{"ha":953,"x_min":90,"x_max":904,"o":"m 368 282 l 368 0 l 90 0 l 90 926 l 544 926 q 807 853 710 926 q 904 618 904 779 q 807 369 904 457 q 544 282 710 282 l 368 282 m 368 490 l 510 490 q 544 497 528 490 q 574 517 561 503 q 594 551 586 531 q 601 597 601 571 q 594 651 601 629 q 574 689 586 674 q 544 711 561 704 q 510 718 528 718 l 368 718 l 368 490 z "},"Þ":{"ha":907,"x_min":119,"x_max":832,"o":"m 119 0 l 119 926 l 358 926 l 358 789 l 478 789 q 740 703 647 789 q 832 464 832 618 q 740 223 832 308 q 478 138 647 138 l 358 138 l 358 0 l 119 0 m 358 335 l 456 335 q 522 346 496 335 q 565 376 549 357 q 588 419 581 396 q 594 464 594 442 q 588 509 594 486 q 565 551 581 532 q 522 583 549 571 q 456 594 496 594 l 358 594 l 358 335 z "},"Q":{"ha":1033,"x_min":49,"x_max":985,"o":"m 517 -35 q 169 83 290 -35 q 49 463 49 201 q 163 836 49 711 q 517 961 278 961 q 865 843 744 961 q 985 464 985 725 q 871 90 985 215 q 517 -35 757 -35 m 517 146 q 611 172 571 146 q 674 267 651 199 q 697 465 697 336 q 674 642 697 579 q 611 728 651 704 q 517 753 571 753 q 422 728 463 753 q 359 640 382 703 q 336 461 336 576 q 359 265 336 333 q 422 172 382 197 q 517 146 463 146 m 889 3 q 935 8 917 3 q 983 31 954 13 l 983 -129 q 925 -149 961 -142 q 835 -156 889 -156 q 754 -147 796 -156 q 676 -115 713 -139 q 613 -47 639 -92 q 576 69 586 -3 q 551 171 569 129 q 508 234 532 213 q 457 256 483 256 q 381 238 418 256 q 314 176 343 219 l 314 339 q 392 413 338 382 q 513 443 447 443 q 613 422 563 443 q 705 342 664 401 q 765 167 746 283 q 808 51 776 99 q 889 3 839 3 z "},"R":{"ha":1032,"x_min":90,"x_max":983,"o":"m 90 0 l 90 926 l 572 926 q 835 851 738 926 q 932 622 932 776 q 911 512 932 569 q 846 409 890 454 q 732 346 801 364 l 693 442 l 983 0 l 625 0 l 411 394 l 532 296 l 368 296 l 368 0 l 90 0 m 368 492 l 538 492 q 601 517 574 492 q 629 610 629 543 q 601 692 629 667 q 538 718 574 718 l 368 718 l 368 492 z "},"Ŕ":{"ha":1032,"x_min":90,"x_max":983,"o":"m 90 0 l 90 926 l 572 926 q 835 851 738 926 q 932 622 932 776 q 911 512 932 569 q 846 409 890 454 q 732 346 801 364 l 693 442 l 983 0 l 625 0 l 411 394 l 532 296 l 368 296 l 368 0 l 90 0 m 368 492 l 538 492 q 601 517 574 492 q 629 610 629 543 q 601 692 629 667 q 538 718 574 718 l 368 718 l 368 492 m 408 992 l 447 1147 l 713 1147 l 528 992 l 408 992 z "},"Ř":{"ha":1032,"x_min":90,"x_max":983,"o":"m 90 0 l 90 926 l 572 926 q 835 851 738 926 q 932 622 932 776 q 911 512 932 569 q 846 409 890 454 q 732 346 801 364 l 693 442 l 983 0 l 625 0 l 411 394 l 532 296 l 368 296 l 368 0 l 90 0 m 368 492 l 538 492 q 601 517 574 492 q 629 610 629 543 q 601 692 629 667 q 538 718 574 718 l 368 718 l 368 492 z "},"Ŗ":{"ha":1032,"x_min":90,"x_max":983,"o":"m 90 0 l 90 926 l 572 926 q 835 851 738 926 q 932 622 932 776 q 911 512 932 569 q 846 409 890 454 q 732 346 801 364 l 693 442 l 983 0 l 625 0 l 411 394 l 532 296 l 368 296 l 368 0 l 90 0 m 368 492 l 538 492 q 601 517 574 492 q 629 610 629 543 q 601 692 629 667 q 538 718 574 718 l 368 718 l 368 492 z "},"Ȑ":{"ha":1032,"x_min":90,"x_max":983,"o":"m 90 0 l 90 926 l 572 926 q 835 851 738 926 q 932 622 932 776 q 911 512 932 569 q 846 409 890 454 q 732 346 801 364 l 693 442 l 983 0 l 625 0 l 411 394 l 532 296 l 368 296 l 368 0 l 90 0 m 368 492 l 538 492 q 601 517 574 492 q 629 610 629 543 q 601 692 629 667 q 538 718 574 718 l 368 718 l 368 492 z "},"Ȓ":{"ha":1032,"x_min":90,"x_max":983,"o":"m 90 0 l 90 926 l 572 926 q 835 851 738 926 q 932 622 932 776 q 911 512 932 569 q 846 409 890 454 q 732 346 801 364 l 693 442 l 983 0 l 625 0 l 411 394 l 532 296 l 368 296 l 368 0 l 90 0 m 368 492 l 538 492 q 601 517 574 492 q 629 610 629 543 q 601 692 629 667 q 538 718 574 718 l 368 718 l 368 492 z "},"Ṟ":{"ha":1032,"x_min":90,"x_max":983,"o":"m 90 0 l 90 926 l 572 926 q 835 851 738 926 q 932 622 932 776 q 911 512 932 569 q 846 409 890 454 q 732 346 801 364 l 693 442 l 983 0 l 625 0 l 411 394 l 532 296 l 368 296 l 368 0 l 90 0 m 368 492 l 538 492 q 601 517 574 492 q 629 610 629 543 q 601 692 629 667 q 538 718 574 718 l 368 718 l 368 492 z "},"S":{"ha":814,"x_min":49,"x_max":765,"o":"m 422 -21 q 290 -16 351 -21 q 176 1 229 -11 q 78 36 124 14 l 78 294 q 234 213 151 238 q 378 188 317 188 q 451 202 422 188 q 479 260 479 217 q 449 305 479 288 q 365 338 418 322 q 246 375 313 353 q 173 407 208 388 q 110 456 138 426 q 65 528 82 486 q 49 631 49 571 q 73 754 49 696 q 145 856 97 813 q 267 925 193 900 q 438 950 340 950 q 542 944 496 950 q 631 924 589 938 q 715 890 674 911 l 715 626 q 642 679 685 654 q 555 722 600 704 q 468 742 510 739 q 405 739 436 744 q 353 716 374 733 q 333 665 333 699 q 356 617 333 635 q 417 588 378 600 q 506 563 457 576 q 613 525 565 546 q 695 474 661 504 q 747 399 729 443 q 765 294 765 356 q 722 130 765 201 q 601 19 678 58 q 422 -21 524 -21 z "},"Ś":{"ha":814,"x_min":49,"x_max":765,"o":"m 422 -21 q 290 -16 351 -21 q 176 1 229 -11 q 78 36 124 14 l 78 294 q 234 213 151 238 q 378 188 317 188 q 451 202 422 188 q 479 260 479 217 q 449 305 479 288 q 365 338 418 322 q 246 375 313 353 q 173 407 208 388 q 110 456 138 426 q 65 528 82 486 q 49 631 49 571 q 73 754 49 696 q 145 856 97 813 q 267 925 193 900 q 438 950 340 950 q 542 944 496 950 q 631 924 589 938 q 715 890 674 911 l 715 626 q 642 679 685 654 q 555 722 600 704 q 468 742 510 739 q 405 739 436 744 q 353 716 374 733 q 333 665 333 699 q 356 617 333 635 q 417 588 378 600 q 506 563 457 576 q 613 525 565 546 q 695 474 661 504 q 747 399 729 443 q 765 294 765 356 q 722 130 765 201 q 601 19 678 58 q 422 -21 524 -21 m 371 1033 l 410 1189 l 675 1189 l 490 1033 l 371 1033 z "},"Ṥ":{"ha":814,"x_min":49,"x_max":765,"o":"m 422 -21 q 290 -16 351 -21 q 176 1 229 -11 q 78 36 124 14 l 78 294 q 234 213 151 238 q 378 188 317 188 q 451 202 422 188 q 479 260 479 217 q 449 305 479 288 q 365 338 418 322 q 246 375 313 353 q 173 407 208 388 q 110 456 138 426 q 65 528 82 486 q 49 631 49 571 q 73 754 49 696 q 145 856 97 813 q 267 925 193 900 q 438 950 340 950 q 542 944 496 950 q 631 924 589 938 q 715 890 674 911 l 715 626 q 642 679 685 654 q 555 722 600 704 q 468 742 510 739 q 405 739 436 744 q 353 716 374 733 q 333 665 333 699 q 356 617 333 635 q 417 588 378 600 q 506 563 457 576 q 613 525 565 546 q 695 474 661 504 q 747 399 729 443 q 765 294 765 356 q 722 130 765 201 q 601 19 678 58 q 422 -21 524 -21 m 432 1033 l 471 1189 l 736 1189 l 551 1033 l 432 1033 z "},"Š":{"ha":814,"x_min":49,"x_max":765,"o":"m 422 -21 q 290 -16 351 -21 q 176 1 229 -11 q 78 36 124 14 l 78 294 q 234 213 151 238 q 378 188 317 188 q 451 202 422 188 q 479 260 479 217 q 449 305 479 288 q 365 338 418 322 q 246 375 313 353 q 173 407 208 388 q 110 456 138 426 q 65 528 82 486 q 49 631 49 571 q 73 754 49 696 q 145 856 97 813 q 267 925 193 900 q 438 950 340 950 q 542 944 496 950 q 631 924 589 938 q 715 890 674 911 l 715 626 q 642 679 685 654 q 555 722 600 704 q 468 742 510 739 q 405 739 436 744 q 353 716 374 733 q 333 665 333 699 q 356 617 333 635 q 417 588 378 600 q 506 563 457 576 q 613 525 565 546 q 695 474 661 504 q 747 399 729 443 q 765 294 765 356 q 722 130 765 201 q 601 19 678 58 q 422 -21 524 -21 z "},"Ṧ":{"ha":814,"x_min":49,"x_max":765,"o":"m 422 -21 q 290 -16 351 -21 q 176 1 229 -11 q 78 36 124 14 l 78 294 q 234 213 151 238 q 378 188 317 188 q 451 202 422 188 q 479 260 479 217 q 449 305 479 288 q 365 338 418 322 q 246 375 313 353 q 173 407 208 388 q 110 456 138 426 q 65 528 82 486 q 49 631 49 571 q 73 754 49 696 q 145 856 97 813 q 267 925 193 900 q 438 950 340 950 q 542 944 496 950 q 631 924 589 938 q 715 890 674 911 l 715 626 q 642 679 685 654 q 555 722 600 704 q 468 742 510 739 q 405 739 436 744 q 353 716 374 733 q 333 665 333 699 q 356 617 333 635 q 417 588 378 600 q 506 563 457 576 q 613 525 565 546 q 695 474 661 504 q 747 399 729 443 q 765 294 765 356 q 722 130 765 201 q 601 19 678 58 q 422 -21 524 -21 z "},"Ş":{"ha":814,"x_min":49,"x_max":765,"o":"m 422 -21 q 290 -16 351 -21 q 176 1 229 -11 q 78 36 124 14 l 78 294 q 234 213 151 238 q 378 188 317 188 q 451 202 422 188 q 479 260 479 217 q 449 305 479 288 q 365 338 418 322 q 246 375 313 353 q 173 407 208 388 q 110 456 138 426 q 65 528 82 486 q 49 631 49 571 q 73 754 49 696 q 145 856 97 813 q 267 925 193 900 q 438 950 340 950 q 542 944 496 950 q 631 924 589 938 q 715 890 674 911 l 715 626 q 642 679 685 654 q 555 722 600 704 q 468 742 510 739 q 405 739 436 744 q 353 716 374 733 q 333 665 333 699 q 356 617 333 635 q 417 588 378 600 q 506 563 457 576 q 613 525 565 546 q 695 474 661 504 q 747 399 729 443 q 765 294 765 356 q 722 130 765 201 q 601 19 678 58 q 422 -21 524 -21 z "},"Ŝ":{"ha":814,"x_min":49,"x_max":765,"o":"m 422 -21 q 290 -16 351 -21 q 176 1 229 -11 q 78 36 124 14 l 78 294 q 234 213 151 238 q 378 188 317 188 q 451 202 422 188 q 479 260 479 217 q 449 305 479 288 q 365 338 418 322 q 246 375 313 353 q 173 407 208 388 q 110 456 138 426 q 65 528 82 486 q 49 631 49 571 q 73 754 49 696 q 145 856 97 813 q 267 925 193 900 q 438 950 340 950 q 542 944 496 950 q 631 924 589 938 q 715 890 674 911 l 715 626 q 642 679 685 654 q 555 722 600 704 q 468 742 510 739 q 405 739 436 744 q 353 716 374 733 q 333 665 333 699 q 356 617 333 635 q 417 588 378 600 q 506 563 457 576 q 613 525 565 546 q 695 474 661 504 q 747 399 729 443 q 765 294 765 356 q 722 130 765 201 q 601 19 678 58 q 422 -21 524 -21 z "},"Ș":{"ha":814,"x_min":49,"x_max":765,"o":"m 422 -21 q 290 -16 351 -21 q 176 1 229 -11 q 78 36 124 14 l 78 294 q 234 213 151 238 q 378 188 317 188 q 451 202 422 188 q 479 260 479 217 q 449 305 479 288 q 365 338 418 322 q 246 375 313 353 q 173 407 208 388 q 110 456 138 426 q 65 528 82 486 q 49 631 49 571 q 73 754 49 696 q 145 856 97 813 q 267 925 193 900 q 438 950 340 950 q 542 944 496 950 q 631 924 589 938 q 715 890 674 911 l 715 626 q 642 679 685 654 q 555 722 600 704 q 468 742 510 739 q 405 739 436 744 q 353 716 374 733 q 333 665 333 699 q 356 617 333 635 q 417 588 378 600 q 506 563 457 576 q 613 525 565 546 q 695 474 661 504 q 747 399 729 443 q 765 294 765 356 q 722 130 765 201 q 601 19 678 58 q 422 -21 524 -21 z "},"Ṡ":{"ha":814,"x_min":49,"x_max":765,"o":"m 422 -21 q 290 -16 351 -21 q 176 1 229 -11 q 78 36 124 14 l 78 294 q 234 213 151 238 q 378 188 317 188 q 451 202 422 188 q 479 260 479 217 q 449 305 479 288 q 365 338 418 322 q 246 375 313 353 q 173 407 208 388 q 110 456 138 426 q 65 528 82 486 q 49 631 49 571 q 73 754 49 696 q 145 856 97 813 q 267 925 193 900 q 438 950 340 950 q 542 944 496 950 q 631 924 589 938 q 715 890 674 911 l 715 626 q 642 679 685 654 q 555 722 600 704 q 468 742 510 739 q 405 739 436 744 q 353 716 374 733 q 333 665 333 699 q 356 617 333 635 q 417 588 378 600 q 506 563 457 576 q 613 525 565 546 q 695 474 661 504 q 747 399 729 443 q 765 294 765 356 q 722 130 765 201 q 601 19 678 58 q 422 -21 524 -21 z "},"Ṣ":{"ha":814,"x_min":49,"x_max":765,"o":"m 422 -21 q 290 -16 351 -21 q 176 1 229 -11 q 78 36 124 14 l 78 294 q 234 213 151 238 q 378 188 317 188 q 451 202 422 188 q 479 260 479 217 q 449 305 479 288 q 365 338 418 322 q 246 375 313 353 q 173 407 208 388 q 110 456 138 426 q 65 528 82 486 q 49 631 49 571 q 73 754 49 696 q 145 856 97 813 q 267 925 193 900 q 438 950 340 950 q 542 944 496 950 q 631 924 589 938 q 715 890 674 911 l 715 626 q 642 679 685 654 q 555 722 600 704 q 468 742 510 739 q 405 739 436 744 q 353 716 374 733 q 333 665 333 699 q 356 617 333 635 q 417 588 378 600 q 506 563 457 576 q 613 525 565 546 q 695 474 661 504 q 747 399 729 443 q 765 294 765 356 q 722 130 765 201 q 601 19 678 58 q 422 -21 524 -21 z "},"Ṩ":{"ha":814,"x_min":49,"x_max":765,"o":"m 422 -21 q 290 -16 351 -21 q 176 1 229 -11 q 78 36 124 14 l 78 294 q 234 213 151 238 q 378 188 317 188 q 451 202 422 188 q 479 260 479 217 q 449 305 479 288 q 365 338 418 322 q 246 375 313 353 q 173 407 208 388 q 110 456 138 426 q 65 528 82 486 q 49 631 49 571 q 73 754 49 696 q 145 856 97 813 q 267 925 193 900 q 438 950 340 950 q 542 944 496 950 q 631 924 589 938 q 715 890 674 911 l 715 626 q 642 679 685 654 q 555 722 600 704 q 468 742 510 739 q 405 739 436 744 q 353 716 374 733 q 333 665 333 699 q 356 617 333 635 q 417 588 378 600 q 506 563 457 576 q 613 525 565 546 q 695 474 661 504 q 747 399 729 443 q 765 294 765 356 q 722 130 765 201 q 601 19 678 58 q 422 -21 524 -21 z "},"ẞ":{"ha":1015,"x_min":90,"x_max":960,"o":"m 90 0 l 90 603 q 142 797 90 721 q 287 910 193 872 q 507 947 381 947 q 699 913 614 947 q 847 826 783 879 q 947 711 910 772 l 947 686 l 672 426 l 697 603 q 835 536 776 576 q 927 432 894 496 q 960 268 960 368 q 933 151 960 206 q 860 55 907 97 q 753 -11 814 13 q 626 -35 693 -35 q 529 -22 583 -35 q 439 15 475 -8 l 439 260 q 510 196 475 218 q 581 174 546 174 q 643 192 613 174 q 674 267 674 211 q 641 366 674 322 q 562 442 608 410 q 475 496 515 475 l 475 508 l 701 721 l 753 617 q 694 680 725 649 q 624 732 664 711 q 529 753 585 753 q 451 735 489 753 q 390 676 414 717 q 367 568 367 635 l 365 0 l 90 0 z "},"Ə":{"ha":1039,"x_min":49,"x_max":990,"o":"m 492 951 q 752 889 640 951 q 927 712 864 826 q 990 439 990 597 q 932 187 990 293 q 763 23 874 81 q 494 -35 653 -35 q 240 28 339 -35 q 94 211 140 90 q 49 508 49 332 l 811 508 l 844 346 l 265 346 l 314 432 q 336 266 315 324 q 399 187 357 208 q 507 165 442 165 q 594 188 549 165 q 672 262 640 210 q 704 404 704 314 q 636 654 704 578 q 424 731 568 731 q 310 720 368 731 q 202 696 251 710 q 121 668 153 682 l 121 892 q 283 936 194 921 q 492 951 372 951 z "},"T":{"ha":817,"x_min":35,"x_max":782,"o":"m 267 0 l 267 718 l 35 718 l 35 926 l 782 926 l 782 718 l 544 718 l 544 0 l 267 0 z "},"Ŧ":{"ha":817,"x_min":35,"x_max":782,"o":"m 267 0 l 267 718 l 35 718 l 35 926 l 782 926 l 782 718 l 544 718 l 544 0 l 267 0 m 183 389 l 183 539 l 633 539 l 633 389 l 183 389 z "},"Ť":{"ha":808,"x_min":17,"x_max":792,"o":"m 283 0 l 283 710 l 17 710 l 17 926 l 792 926 l 792 710 l 522 710 l 522 0 l 283 0 m 371 1006 l 204 1175 l 346 1175 l 404 1114 l 463 1175 l 604 1175 l 438 1006 l 371 1006 z "},"Ţ":{"ha":817,"x_min":35,"x_max":782,"o":"m 267 0 l 267 718 l 35 718 l 35 926 l 782 926 l 782 718 l 544 718 l 544 0 l 267 0 z "},"Ṯ":{"ha":817,"x_min":35,"x_max":782,"o":"m 267 0 l 267 718 l 35 718 l 35 926 l 782 926 l 782 718 l 544 718 l 544 0 l 267 0 z "},"U":{"ha":1028,"x_min":90,"x_max":938,"o":"m 543 -35 q 201 51 313 -35 q 90 332 90 138 l 90 926 l 382 926 l 382 349 q 415 217 382 260 q 528 174 449 174 q 635 217 596 174 q 674 349 674 260 l 674 926 l 938 926 l 938 332 q 886 122 938 203 q 746 3 835 40 q 543 -35 657 -35 z "},"Ú":{"ha":1028,"x_min":90,"x_max":938,"o":"m 543 -35 q 201 51 313 -35 q 90 332 90 138 l 90 926 l 382 926 l 382 349 q 415 217 382 260 q 528 174 449 174 q 635 217 596 174 q 674 349 674 260 l 674 926 l 938 926 l 938 332 q 886 122 938 203 q 746 3 835 40 q 543 -35 657 -35 m 447 1006 l 486 1161 l 751 1161 l 567 1006 l 447 1006 z "},"Ŭ":{"ha":1028,"x_min":90,"x_max":938,"o":"m 543 -35 q 201 51 313 -35 q 90 332 90 138 l 90 926 l 382 926 l 382 349 q 415 217 382 260 q 528 174 449 174 q 635 217 596 174 q 674 349 674 260 l 674 926 l 938 926 l 938 332 q 886 122 938 203 q 746 3 835 40 q 543 -35 657 -35 z "},"Ǔ":{"ha":1028,"x_min":90,"x_max":938,"o":"m 543 -35 q 201 51 313 -35 q 90 332 90 138 l 90 926 l 382 926 l 382 349 q 415 217 382 260 q 528 174 449 174 q 635 217 596 174 q 674 349 674 260 l 674 926 l 938 926 l 938 332 q 886 122 938 203 q 746 3 835 40 q 543 -35 657 -35 z "},"Û":{"ha":1028,"x_min":90,"x_max":938,"o":"m 543 -35 q 201 51 313 -35 q 90 332 90 138 l 90 926 l 382 926 l 382 349 q 415 217 382 260 q 528 174 449 174 q 635 217 596 174 q 674 349 674 260 l 674 926 l 938 926 l 938 332 q 886 122 938 203 q 746 3 835 40 q 543 -35 657 -35 z "},"Ȕ":{"ha":1028,"x_min":90,"x_max":938,"o":"m 543 -35 q 201 51 313 -35 q 90 332 90 138 l 90 926 l 382 926 l 382 349 q 415 217 382 260 q 528 174 449 174 q 635 217 596 174 q 674 349 674 260 l 674 926 l 938 926 l 938 332 q 886 122 938 203 q 746 3 835 40 q 543 -35 657 -35 z "},"Ü":{"ha":1028,"x_min":90,"x_max":938,"o":"m 543 -35 q 201 51 313 -35 q 90 332 90 138 l 90 926 l 382 926 l 382 349 q 415 217 382 260 q 528 174 449 174 q 635 217 596 174 q 674 349 674 260 l 674 926 l 938 926 l 938 332 q 886 122 938 203 q 746 3 835 40 q 543 -35 657 -35 z "},"Ụ":{"ha":1028,"x_min":90,"x_max":938,"o":"m 543 -35 q 201 51 313 -35 q 90 332 90 138 l 90 926 l 382 926 l 382 349 q 415 217 382 260 q 528 174 449 174 q 635 217 596 174 q 674 349 674 260 l 674 926 l 938 926 l 938 332 q 886 122 938 203 q 746 3 835 40 q 543 -35 657 -35 z "},"Ù":{"ha":1028,"x_min":90,"x_max":938,"o":"m 543 -35 q 201 51 313 -35 q 90 332 90 138 l 90 926 l 382 926 l 382 349 q 415 217 382 260 q 528 174 449 174 q 635 217 596 174 q 674 349 674 260 l 674 926 l 938 926 l 938 332 q 886 122 938 203 q 746 3 835 40 q 543 -35 657 -35 m 454 1006 l 311 1158 l 529 1158 l 588 1006 l 454 1006 z "},"Ủ":{"ha":1028,"x_min":90,"x_max":938,"o":"m 543 -35 q 201 51 313 -35 q 90 332 90 138 l 90 926 l 382 926 l 382 349 q 415 217 382 260 q 528 174 449 174 q 635 217 596 174 q 674 349 674 260 l 674 926 l 938 926 l 938 332 q 886 122 938 203 q 746 3 835 40 q 543 -35 657 -35 z "},"Ư":{"ha":1174,"x_min":90,"x_max":1093,"o":"m 543 -35 q 201 51 313 -35 q 90 332 90 138 l 90 926 l 382 926 l 382 349 q 415 217 382 260 q 528 174 449 174 q 635 217 596 174 q 674 349 674 260 l 674 926 l 938 926 l 938 332 q 886 122 938 203 q 746 3 835 40 q 543 -35 657 -35 z "},"Ứ":{"ha":1174,"x_min":90,"x_max":1093,"o":"m 543 -35 q 201 51 313 -35 q 90 332 90 138 l 90 926 l 382 926 l 382 349 q 415 217 382 260 q 528 174 449 174 q 635 217 596 174 q 674 349 674 260 l 674 926 l 938 926 l 938 332 q 886 122 938 203 q 746 3 835 40 q 543 -35 657 -35 m 447 1006 l 486 1161 l 751 1161 l 567 1006 l 447 1006 z "},"Ự":{"ha":1174,"x_min":90,"x_max":1093,"o":"m 543 -35 q 201 51 313 -35 q 90 332 90 138 l 90 926 l 382 926 l 382 349 q 415 217 382 260 q 528 174 449 174 q 635 217 596 174 q 674 349 674 260 l 674 926 l 938 926 l 938 332 q 886 122 938 203 q 746 3 835 40 q 543 -35 657 -35 z "},"Ừ":{"ha":1174,"x_min":90,"x_max":1093,"o":"m 543 -35 q 201 51 313 -35 q 90 332 90 138 l 90 926 l 382 926 l 382 349 q 415 217 382 260 q 528 174 449 174 q 635 217 596 174 q 674 349 674 260 l 674 926 l 938 926 l 938 332 q 886 122 938 203 q 746 3 835 40 q 543 -35 657 -35 m 454 1006 l 311 1158 l 529 1158 l 588 1006 l 454 1006 z "},"Ử":{"ha":1174,"x_min":90,"x_max":1093,"o":"m 543 -35 q 201 51 313 -35 q 90 332 90 138 l 90 926 l 382 926 l 382 349 q 415 217 382 260 q 528 174 449 174 q 635 217 596 174 q 674 349 674 260 l 674 926 l 938 926 l 938 332 q 886 122 938 203 q 746 3 835 40 q 543 -35 657 -35 z "},"Ữ":{"ha":1174,"x_min":90,"x_max":1093,"o":"m 543 -35 q 201 51 313 -35 q 90 332 90 138 l 90 926 l 382 926 l 382 349 q 415 217 382 260 q 528 174 449 174 q 635 217 596 174 q 674 349 674 260 l 674 926 l 938 926 l 938 332 q 886 122 938 203 q 746 3 835 40 q 543 -35 657 -35 z "},"Ű":{"ha":1028,"x_min":90,"x_max":938,"o":"m 543 -35 q 201 51 313 -35 q 90 332 90 138 l 90 926 l 382 926 l 382 349 q 415 217 382 260 q 528 174 449 174 q 635 217 596 174 q 674 349 674 260 l 674 926 l 938 926 l 938 332 q 886 122 938 203 q 746 3 835 40 q 543 -35 657 -35 z "},"Ȗ":{"ha":1028,"x_min":90,"x_max":938,"o":"m 543 -35 q 201 51 313 -35 q 90 332 90 138 l 90 926 l 382 926 l 382 349 q 415 217 382 260 q 528 174 449 174 q 635 217 596 174 q 674 349 674 260 l 674 926 l 938 926 l 938 332 q 886 122 938 203 q 746 3 835 40 q 543 -35 657 -35 z "},"Ū":{"ha":1028,"x_min":90,"x_max":938,"o":"m 543 -35 q 201 51 313 -35 q 90 332 90 138 l 90 926 l 382 926 l 382 349 q 415 217 382 260 q 528 174 449 174 q 635 217 596 174 q 674 349 674 260 l 674 926 l 938 926 l 938 332 q 886 122 938 203 q 746 3 835 40 q 543 -35 657 -35 z "},"Ṻ":{"ha":1028,"x_min":90,"x_max":938,"o":"m 543 -35 q 201 51 313 -35 q 90 332 90 138 l 90 926 l 382 926 l 382 349 q 415 217 382 260 q 528 174 449 174 q 635 217 596 174 q 674 349 674 260 l 674 926 l 938 926 l 938 332 q 886 122 938 203 q 746 3 835 40 q 543 -35 657 -35 z "},"Ų":{"ha":1028,"x_min":90,"x_max":938,"o":"m 543 -35 q 201 51 313 -35 q 90 332 90 138 l 90 926 l 382 926 l 382 349 q 415 217 382 260 q 528 174 449 174 q 635 217 596 174 q 674 349 674 260 l 674 926 l 938 926 l 938 332 q 886 122 938 203 q 746 3 835 40 q 543 -35 657 -35 z "},"Ů":{"ha":1028,"x_min":90,"x_max":938,"o":"m 543 -35 q 201 51 313 -35 q 90 332 90 138 l 90 926 l 382 926 l 382 349 q 415 217 382 260 q 528 174 449 174 q 635 217 596 174 q 674 349 674 260 l 674 926 l 938 926 l 938 332 q 886 122 938 203 q 746 3 835 40 q 543 -35 657 -35 z "},"Ũ":{"ha":1028,"x_min":90,"x_max":938,"o":"m 543 -35 q 201 51 313 -35 q 90 332 90 138 l 90 926 l 382 926 l 382 349 q 415 217 382 260 q 528 174 449 174 q 635 217 596 174 q 674 349 674 260 l 674 926 l 938 926 l 938 332 q 886 122 938 203 q 746 3 835 40 q 543 -35 657 -35 z "},"Ṹ":{"ha":1028,"x_min":90,"x_max":938,"o":"m 543 -35 q 201 51 313 -35 q 90 332 90 138 l 90 926 l 382 926 l 382 349 q 415 217 382 260 q 528 174 449 174 q 635 217 596 174 q 674 349 674 260 l 674 926 l 938 926 l 938 332 q 886 122 938 203 q 746 3 835 40 q 543 -35 657 -35 m 447 1296 l 486 1451 l 751 1451 l 567 1296 l 447 1296 z "},"V":{"ha":1036,"x_min":14,"x_max":1022,"o":"m 356 0 l 14 926 l 339 926 l 576 161 l 488 161 l 725 926 l 1022 926 l 656 0 l 356 0 z "},"W":{"ha":1422,"x_min":35,"x_max":1388,"o":"m 278 0 l 35 926 l 340 926 l 458 258 l 419 258 l 608 926 l 814 926 l 1004 250 l 963 250 l 1082 926 l 1388 926 l 1144 0 l 871 0 l 690 601 l 735 601 l 551 0 l 278 0 z "},"Ẃ":{"ha":1422,"x_min":35,"x_max":1388,"o":"m 278 0 l 35 926 l 340 926 l 458 258 l 419 258 l 608 926 l 814 926 l 1004 250 l 963 250 l 1082 926 l 1388 926 l 1144 0 l 871 0 l 690 601 l 735 601 l 551 0 l 278 0 m 644 992 l 683 1147 l 949 1147 l 764 992 l 644 992 z "},"Ŵ":{"ha":1422,"x_min":35,"x_max":1388,"o":"m 278 0 l 35 926 l 340 926 l 458 258 l 419 258 l 608 926 l 814 926 l 1004 250 l 963 250 l 1082 926 l 1388 926 l 1144 0 l 871 0 l 690 601 l 735 601 l 551 0 l 278 0 z "},"Ẅ":{"ha":1422,"x_min":35,"x_max":1388,"o":"m 278 0 l 35 926 l 340 926 l 458 258 l 419 258 l 608 926 l 814 926 l 1004 250 l 963 250 l 1082 926 l 1388 926 l 1144 0 l 871 0 l 690 601 l 735 601 l 551 0 l 278 0 z "},"Ẁ":{"ha":1422,"x_min":35,"x_max":1388,"o":"m 278 0 l 35 926 l 340 926 l 458 258 l 419 258 l 608 926 l 814 926 l 1004 250 l 963 250 l 1082 926 l 1388 926 l 1144 0 l 871 0 l 690 601 l 735 601 l 551 0 l 278 0 m 651 992 l 508 1144 l 726 1144 l 785 992 l 651 992 z "},"X":{"ha":997,"x_min":14,"x_max":983,"o":"m 983 0 l 636 0 l 14 926 l 361 926 l 983 0 m 499 603 l 671 926 l 972 926 l 639 400 l 499 603 m 535 372 l 328 0 l 32 0 l 401 568 l 535 372 z "},"Y":{"ha":1017,"x_min":35,"x_max":982,"o":"m 389 0 l 389 390 l 35 926 l 378 926 l 629 479 l 494 476 l 714 926 l 982 926 l 628 321 l 667 463 l 667 0 l 389 0 z "},"Ý":{"ha":1017,"x_min":35,"x_max":982,"o":"m 389 0 l 389 390 l 35 926 l 378 926 l 629 479 l 494 476 l 714 926 l 982 926 l 628 321 l 667 463 l 667 0 l 389 0 m 488 992 l 526 1147 l 792 1147 l 607 992 l 488 992 z "},"Ŷ":{"ha":1017,"x_min":35,"x_max":982,"o":"m 389 0 l 389 390 l 35 926 l 378 926 l 629 479 l 494 476 l 714 926 l 982 926 l 628 321 l 667 463 l 667 0 l 389 0 z "},"Ÿ":{"ha":1017,"x_min":35,"x_max":982,"o":"m 389 0 l 389 390 l 35 926 l 378 926 l 629 479 l 494 476 l 714 926 l 982 926 l 628 321 l 667 463 l 667 0 l 389 0 z "},"Ẏ":{"ha":1017,"x_min":35,"x_max":982,"o":"m 389 0 l 389 390 l 35 926 l 378 926 l 629 479 l 494 476 l 714 926 l 982 926 l 628 321 l 667 463 l 667 0 l 389 0 z "},"Ỵ":{"ha":1017,"x_min":35,"x_max":982,"o":"m 389 0 l 389 390 l 35 926 l 378 926 l 629 479 l 494 476 l 714 926 l 982 926 l 628 321 l 667 463 l 667 0 l 389 0 z "},"Ỳ":{"ha":1017,"x_min":35,"x_max":982,"o":"m 389 0 l 389 390 l 35 926 l 378 926 l 629 479 l 494 476 l 714 926 l 982 926 l 628 321 l 667 463 l 667 0 l 389 0 m 494 992 l 351 1144 l 569 1144 l 628 992 l 494 992 z "},"Ỷ":{"ha":1017,"x_min":35,"x_max":982,"o":"m 389 0 l 389 390 l 35 926 l 378 926 l 629 479 l 494 476 l 714 926 l 982 926 l 628 321 l 667 463 l 667 0 l 389 0 z "},"Ȳ":{"ha":1017,"x_min":35,"x_max":982,"o":"m 389 0 l 389 390 l 35 926 l 378 926 l 629 479 l 494 476 l 714 926 l 982 926 l 628 321 l 667 463 l 667 0 l 389 0 z "},"Ỹ":{"ha":1017,"x_min":35,"x_max":982,"o":"m 389 0 l 389 390 l 35 926 l 378 926 l 629 479 l 494 476 l 714 926 l 982 926 l 628 321 l 667 463 l 667 0 l 389 0 z "},"Z":{"ha":894,"x_min":69,"x_max":825,"o":"m 69 0 l 69 197 l 524 758 l 597 714 l 74 714 l 74 926 l 825 926 l 825 733 l 400 185 l 301 210 l 825 210 l 825 0 l 69 0 z "},"Ź":{"ha":894,"x_min":69,"x_max":825,"o":"m 69 0 l 69 197 l 524 758 l 597 714 l 74 714 l 74 926 l 825 926 l 825 733 l 400 185 l 301 210 l 825 210 l 825 0 l 69 0 m 394 992 l 433 1147 l 699 1147 l 514 992 l 394 992 z "},"Ž":{"ha":894,"x_min":69,"x_max":825,"o":"m 69 0 l 69 197 l 524 758 l 597 714 l 74 714 l 74 926 l 825 926 l 825 733 l 400 185 l 301 210 l 825 210 l 825 0 l 69 0 z "},"Ż":{"ha":894,"x_min":69,"x_max":825,"o":"m 69 0 l 69 197 l 524 758 l 597 714 l 74 714 l 74 926 l 825 926 l 825 733 l 400 185 l 301 210 l 825 210 l 825 0 l 69 0 z "},"a":{"ha":804,"x_min":42,"x_max":721,"o":"m 368 -21 q 236 -8 296 -21 q 133 33 176 4 q 65 110 89 61 q 42 232 42 160 q 67 335 42 289 q 147 410 92 382 q 290 439 201 439 q 378 428 333 439 q 460 399 424 417 q 515 360 497 381 l 519 256 q 463 276 493 269 q 401 283 433 283 q 317 269 342 283 q 292 219 292 254 q 302 187 292 203 q 330 160 313 171 q 368 150 347 150 q 451 158 431 150 q 472 188 472 165 l 472 419 q 434 501 472 476 q 326 526 396 526 q 200 502 263 526 q 103 449 138 478 l 103 668 q 213 710 135 689 q 396 731 290 731 q 463 726 422 731 q 549 709 504 722 q 633 668 593 696 q 697 594 672 640 q 721 475 721 547 l 719 146 q 681 54 719 92 q 564 -2 642 17 q 368 -21 486 -21 z "},"á":{"ha":804,"x_min":42,"x_max":721,"o":"m 368 -21 q 236 -8 296 -21 q 133 33 176 4 q 65 110 89 61 q 42 232 42 160 q 67 335 42 289 q 147 410 92 382 q 290 439 201 439 q 378 428 333 439 q 460 399 424 417 q 515 360 497 381 l 519 256 q 463 276 493 269 q 401 283 433 283 q 317 269 342 283 q 292 219 292 254 q 302 187 292 203 q 330 160 313 171 q 368 150 347 150 q 451 158 431 150 q 472 188 472 165 l 472 419 q 434 501 472 476 q 326 526 396 526 q 200 502 263 526 q 103 449 138 478 l 103 668 q 213 710 135 689 q 396 731 290 731 q 463 726 422 731 q 549 709 504 722 q 633 668 593 696 q 697 594 672 640 q 721 475 721 547 l 719 146 q 681 54 719 92 q 564 -2 642 17 q 368 -21 486 -21 z "},"ă":{"ha":804,"x_min":42,"x_max":721,"o":"m 368 -21 q 236 -8 296 -21 q 133 33 176 4 q 65 110 89 61 q 42 232 42 160 q 67 335 42 289 q 147 410 92 382 q 290 439 201 439 q 378 428 333 439 q 460 399 424 417 q 515 360 497 381 l 519 256 q 463 276 493 269 q 401 283 433 283 q 317 269 342 283 q 292 219 292 254 q 302 187 292 203 q 330 160 313 171 q 368 150 347 150 q 451 158 431 150 q 472 188 472 165 l 472 419 q 434 501 472 476 q 326 526 396 526 q 200 502 263 526 q 103 449 138 478 l 103 668 q 213 710 135 689 q 396 731 290 731 q 463 726 422 731 q 549 709 504 722 q 633 668 593 696 q 697 594 672 640 q 721 475 721 547 l 719 146 q 681 54 719 92 q 564 -2 642 17 q 368 -21 486 -21 z "},"ắ":{"ha":804,"x_min":42,"x_max":721,"o":"m 368 -21 q 236 -8 296 -21 q 133 33 176 4 q 65 110 89 61 q 42 232 42 160 q 67 335 42 289 q 147 410 92 382 q 290 439 201 439 q 378 428 333 439 q 460 399 424 417 q 515 360 497 381 l 519 256 q 463 276 493 269 q 401 283 433 283 q 317 269 342 283 q 292 219 292 254 q 302 187 292 203 q 330 160 313 171 q 368 150 347 150 q 451 158 431 150 q 472 188 472 165 l 472 419 q 434 501 472 476 q 326 526 396 526 q 200 502 263 526 q 103 449 138 478 l 103 668 q 213 710 135 689 q 396 731 290 731 q 463 726 422 731 q 549 709 504 722 q 633 668 593 696 q 697 594 672 640 q 721 475 721 547 l 719 146 q 681 54 719 92 q 564 -2 642 17 q 368 -21 486 -21 z "},"ặ":{"ha":765,"x_min":42,"x_max":721,"o":"m 307 -221 l 307 -69 l 474 -69 l 474 -221 l 307 -221 m 390 747 q 253 787 297 747 q 208 896 208 826 l 333 896 q 348 860 336 874 q 390 846 360 846 q 433 860 421 846 q 447 896 444 874 l 572 896 q 528 787 572 826 q 390 747 483 747 m 368 -21 q 236 -8 296 -21 q 133 33 176 4 q 65 110 89 61 q 42 232 42 160 q 67 335 42 289 q 147 410 92 382 q 290 439 201 439 q 378 428 333 439 q 460 399 424 417 q 515 360 497 381 l 519 256 q 463 276 493 269 q 401 283 433 283 q 317 269 342 283 q 292 219 292 254 q 302 187 292 203 q 330 160 313 171 q 368 150 347 150 q 451 158 431 150 q 472 188 472 165 l 472 419 q 434 501 472 476 q 326 526 396 526 q 200 502 263 526 q 103 449 138 478 l 103 668 q 213 710 135 689 q 396 731 290 731 q 463 726 422 731 q 549 709 504 722 q 633 668 593 696 q 697 594 672 640 q 721 475 721 547 l 719 146 q 681 54 719 92 q 564 -2 642 17 q 368 -21 486 -21 z "},"ằ":{"ha":804,"x_min":42,"x_max":721,"o":"m 368 -21 q 236 -8 296 -21 q 133 33 176 4 q 65 110 89 61 q 42 232 42 160 q 67 335 42 289 q 147 410 92 382 q 290 439 201 439 q 378 428 333 439 q 460 399 424 417 q 515 360 497 381 l 519 256 q 463 276 493 269 q 401 283 433 283 q 317 269 342 283 q 292 219 292 254 q 302 187 292 203 q 330 160 313 171 q 368 150 347 150 q 451 158 431 150 q 472 188 472 165 l 472 419 q 434 501 472 476 q 326 526 396 526 q 200 502 263 526 q 103 449 138 478 l 103 668 q 213 710 135 689 q 396 731 290 731 q 463 726 422 731 q 549 709 504 722 q 633 668 593 696 q 697 594 672 640 q 721 475 721 547 l 719 146 q 681 54 719 92 q 564 -2 642 17 q 368 -21 486 -21 z "},"ẳ":{"ha":804,"x_min":42,"x_max":721,"o":"m 368 -21 q 236 -8 296 -21 q 133 33 176 4 q 65 110 89 61 q 42 232 42 160 q 67 335 42 289 q 147 410 92 382 q 290 439 201 439 q 378 428 333 439 q 460 399 424 417 q 515 360 497 381 l 519 256 q 463 276 493 269 q 401 283 433 283 q 317 269 342 283 q 292 219 292 254 q 302 187 292 203 q 330 160 313 171 q 368 150 347 150 q 451 158 431 150 q 472 188 472 165 l 472 419 q 434 501 472 476 q 326 526 396 526 q 200 502 263 526 q 103 449 138 478 l 103 668 q 213 710 135 689 q 396 731 290 731 q 463 726 422 731 q 549 709 504 722 q 633 668 593 696 q 697 594 672 640 q 721 475 721 547 l 719 146 q 681 54 719 92 q 564 -2 642 17 q 368 -21 486 -21 z "},"ẵ":{"ha":804,"x_min":42,"x_max":721,"o":"m 368 -21 q 236 -8 296 -21 q 133 33 176 4 q 65 110 89 61 q 42 232 42 160 q 67 335 42 289 q 147 410 92 382 q 290 439 201 439 q 378 428 333 439 q 460 399 424 417 q 515 360 497 381 l 519 256 q 463 276 493 269 q 401 283 433 283 q 317 269 342 283 q 292 219 292 254 q 302 187 292 203 q 330 160 313 171 q 368 150 347 150 q 451 158 431 150 q 472 188 472 165 l 472 419 q 434 501 472 476 q 326 526 396 526 q 200 502 263 526 q 103 449 138 478 l 103 668 q 213 710 135 689 q 396 731 290 731 q 463 726 422 731 q 549 709 504 722 q 633 668 593 696 q 697 594 672 640 q 721 475 721 547 l 719 146 q 681 54 719 92 q 564 -2 642 17 q 368 -21 486 -21 z "},"ǎ":{"ha":804,"x_min":42,"x_max":721,"o":"m 368 -21 q 236 -8 296 -21 q 133 33 176 4 q 65 110 89 61 q 42 232 42 160 q 67 335 42 289 q 147 410 92 382 q 290 439 201 439 q 378 428 333 439 q 460 399 424 417 q 515 360 497 381 l 519 256 q 463 276 493 269 q 401 283 433 283 q 317 269 342 283 q 292 219 292 254 q 302 187 292 203 q 330 160 313 171 q 368 150 347 150 q 451 158 431 150 q 472 188 472 165 l 472 419 q 434 501 472 476 q 326 526 396 526 q 200 502 263 526 q 103 449 138 478 l 103 668 q 213 710 135 689 q 396 731 290 731 q 463 726 422 731 q 549 709 504 722 q 633 668 593 696 q 697 594 672 640 q 721 475 721 547 l 719 146 q 681 54 719 92 q 564 -2 642 17 q 368 -21 486 -21 z "},"â":{"ha":804,"x_min":42,"x_max":721,"o":"m 368 -21 q 236 -8 296 -21 q 133 33 176 4 q 65 110 89 61 q 42 232 42 160 q 67 335 42 289 q 147 410 92 382 q 290 439 201 439 q 378 428 333 439 q 460 399 424 417 q 515 360 497 381 l 519 256 q 463 276 493 269 q 401 283 433 283 q 317 269 342 283 q 292 219 292 254 q 302 187 292 203 q 330 160 313 171 q 368 150 347 150 q 451 158 431 150 q 472 188 472 165 l 472 419 q 434 501 472 476 q 326 526 396 526 q 200 502 263 526 q 103 449 138 478 l 103 668 q 213 710 135 689 q 396 731 290 731 q 463 726 422 731 q 549 709 504 722 q 633 668 593 696 q 697 594 672 640 q 721 475 721 547 l 719 146 q 681 54 719 92 q 564 -2 642 17 q 368 -21 486 -21 z "},"ấ":{"ha":804,"x_min":42,"x_max":882,"o":"m 368 -21 q 236 -8 296 -21 q 133 33 176 4 q 65 110 89 61 q 42 232 42 160 q 67 335 42 289 q 147 410 92 382 q 290 439 201 439 q 378 428 333 439 q 460 399 424 417 q 515 360 497 381 l 519 256 q 463 276 493 269 q 401 283 433 283 q 317 269 342 283 q 292 219 292 254 q 302 187 292 203 q 330 160 313 171 q 368 150 347 150 q 451 158 431 150 q 472 188 472 165 l 472 419 q 434 501 472 476 q 326 526 396 526 q 200 502 263 526 q 103 449 138 478 l 103 668 q 213 710 135 689 q 396 731 290 731 q 463 726 422 731 q 549 709 504 722 q 633 668 593 696 q 697 594 672 640 q 721 475 721 547 l 719 146 q 681 54 719 92 q 564 -2 642 17 q 368 -21 486 -21 z "},"ậ":{"ha":765,"x_min":42,"x_max":721,"o":"m 310 -221 l 310 -69 l 476 -69 l 476 -221 l 310 -221 m 368 -21 q 236 -8 296 -21 q 133 33 176 4 q 65 110 89 61 q 42 232 42 160 q 67 335 42 289 q 147 410 92 382 q 290 439 201 439 q 378 428 333 439 q 460 399 424 417 q 515 360 497 381 l 519 256 q 463 276 493 269 q 401 283 433 283 q 317 269 342 283 q 292 219 292 254 q 302 187 292 203 q 330 160 313 171 q 368 150 347 150 q 451 158 431 150 q 472 188 472 165 l 472 419 q 434 501 472 476 q 326 526 396 526 q 200 502 263 526 q 103 449 138 478 l 103 668 q 213 710 135 689 q 396 731 290 731 q 463 726 422 731 q 549 709 504 722 q 633 668 593 696 q 697 594 672 640 q 721 475 721 547 l 719 146 q 681 54 719 92 q 564 -2 642 17 q 368 -21 486 -21 z "},"ầ":{"ha":804,"x_min":-75,"x_max":721,"o":"m 368 -21 q 236 -8 296 -21 q 133 33 176 4 q 65 110 89 61 q 42 232 42 160 q 67 335 42 289 q 147 410 92 382 q 290 439 201 439 q 378 428 333 439 q 460 399 424 417 q 515 360 497 381 l 519 256 q 463 276 493 269 q 401 283 433 283 q 317 269 342 283 q 292 219 292 254 q 302 187 292 203 q 330 160 313 171 q 368 150 347 150 q 451 158 431 150 q 472 188 472 165 l 472 419 q 434 501 472 476 q 326 526 396 526 q 200 502 263 526 q 103 449 138 478 l 103 668 q 213 710 135 689 q 396 731 290 731 q 463 726 422 731 q 549 709 504 722 q 633 668 593 696 q 697 594 672 640 q 721 475 721 547 l 719 146 q 681 54 719 92 q 564 -2 642 17 q 368 -21 486 -21 z "},"ẩ":{"ha":804,"x_min":42,"x_max":778,"o":"m 368 -21 q 236 -8 296 -21 q 133 33 176 4 q 65 110 89 61 q 42 232 42 160 q 67 335 42 289 q 147 410 92 382 q 290 439 201 439 q 378 428 333 439 q 460 399 424 417 q 515 360 497 381 l 519 256 q 463 276 493 269 q 401 283 433 283 q 317 269 342 283 q 292 219 292 254 q 302 187 292 203 q 330 160 313 171 q 368 150 347 150 q 451 158 431 150 q 472 188 472 165 l 472 419 q 434 501 472 476 q 326 526 396 526 q 200 502 263 526 q 103 449 138 478 l 103 668 q 213 710 135 689 q 396 731 290 731 q 463 726 422 731 q 549 709 504 722 q 633 668 593 696 q 697 594 672 640 q 721 475 721 547 l 719 146 q 681 54 719 92 q 564 -2 642 17 q 368 -21 486 -21 z "},"ẫ":{"ha":804,"x_min":42,"x_max":721,"o":"m 368 -21 q 236 -8 296 -21 q 133 33 176 4 q 65 110 89 61 q 42 232 42 160 q 67 335 42 289 q 147 410 92 382 q 290 439 201 439 q 378 428 333 439 q 460 399 424 417 q 515 360 497 381 l 519 256 q 463 276 493 269 q 401 283 433 283 q 317 269 342 283 q 292 219 292 254 q 302 187 292 203 q 330 160 313 171 q 368 150 347 150 q 451 158 431 150 q 472 188 472 165 l 472 419 q 434 501 472 476 q 326 526 396 526 q 200 502 263 526 q 103 449 138 478 l 103 668 q 213 710 135 689 q 396 731 290 731 q 463 726 422 731 q 549 709 504 722 q 633 668 593 696 q 697 594 672 640 q 721 475 721 547 l 719 146 q 681 54 719 92 q 564 -2 642 17 q 368 -21 486 -21 z "},"ȁ":{"ha":804,"x_min":38,"x_max":721,"o":"m 368 -21 q 236 -8 296 -21 q 133 33 176 4 q 65 110 89 61 q 42 232 42 160 q 67 335 42 289 q 147 410 92 382 q 290 439 201 439 q 378 428 333 439 q 460 399 424 417 q 515 360 497 381 l 519 256 q 463 276 493 269 q 401 283 433 283 q 317 269 342 283 q 292 219 292 254 q 302 187 292 203 q 330 160 313 171 q 368 150 347 150 q 451 158 431 150 q 472 188 472 165 l 472 419 q 434 501 472 476 q 326 526 396 526 q 200 502 263 526 q 103 449 138 478 l 103 668 q 213 710 135 689 q 396 731 290 731 q 463 726 422 731 q 549 709 504 722 q 633 668 593 696 q 697 594 672 640 q 721 475 721 547 l 719 146 q 681 54 719 92 q 564 -2 642 17 q 368 -21 486 -21 z "},"ä":{"ha":804,"x_min":42,"x_max":721,"o":"m 368 -21 q 236 -8 296 -21 q 133 33 176 4 q 65 110 89 61 q 42 232 42 160 q 67 335 42 289 q 147 410 92 382 q 290 439 201 439 q 378 428 333 439 q 460 399 424 417 q 515 360 497 381 l 519 256 q 463 276 493 269 q 401 283 433 283 q 317 269 342 283 q 292 219 292 254 q 302 187 292 203 q 330 160 313 171 q 368 150 347 150 q 451 158 431 150 q 472 188 472 165 l 472 419 q 434 501 472 476 q 326 526 396 526 q 200 502 263 526 q 103 449 138 478 l 103 668 q 213 710 135 689 q 396 731 290 731 q 463 726 422 731 q 549 709 504 722 q 633 668 593 696 q 697 594 672 640 q 721 475 721 547 l 719 146 q 681 54 719 92 q 564 -2 642 17 q 368 -21 486 -21 z "},"ạ":{"ha":765,"x_min":42,"x_max":721,"o":"m 310 -221 l 310 -69 l 476 -69 l 476 -221 l 310 -221 m 368 -21 q 236 -8 296 -21 q 133 33 176 4 q 65 110 89 61 q 42 232 42 160 q 67 335 42 289 q 147 410 92 382 q 290 439 201 439 q 378 428 333 439 q 460 399 424 417 q 515 360 497 381 l 519 256 q 463 276 493 269 q 401 283 433 283 q 317 269 342 283 q 292 219 292 254 q 302 187 292 203 q 330 160 313 171 q 368 150 347 150 q 451 158 431 150 q 472 188 472 165 l 472 419 q 434 501 472 476 q 326 526 396 526 q 200 502 263 526 q 103 449 138 478 l 103 668 q 213 710 135 689 q 396 731 290 731 q 463 726 422 731 q 549 709 504 722 q 633 668 593 696 q 697 594 672 640 q 721 475 721 547 l 719 146 q 681 54 719 92 q 564 -2 642 17 q 368 -21 486 -21 z "},"à":{"ha":804,"x_min":42,"x_max":721,"o":"m 368 -21 q 236 -8 296 -21 q 133 33 176 4 q 65 110 89 61 q 42 232 42 160 q 67 335 42 289 q 147 410 92 382 q 290 439 201 439 q 378 428 333 439 q 460 399 424 417 q 515 360 497 381 l 519 256 q 463 276 493 269 q 401 283 433 283 q 317 269 342 283 q 292 219 292 254 q 302 187 292 203 q 330 160 313 171 q 368 150 347 150 q 451 158 431 150 q 472 188 472 165 l 472 419 q 434 501 472 476 q 326 526 396 526 q 200 502 263 526 q 103 449 138 478 l 103 668 q 213 710 135 689 q 396 731 290 731 q 463 726 422 731 q 549 709 504 722 q 633 668 593 696 q 697 594 672 640 q 721 475 721 547 l 719 146 q 681 54 719 92 q 564 -2 642 17 q 368 -21 486 -21 z "},"ả":{"ha":804,"x_min":42,"x_max":721,"o":"m 368 -21 q 236 -8 296 -21 q 133 33 176 4 q 65 110 89 61 q 42 232 42 160 q 67 335 42 289 q 147 410 92 382 q 290 439 201 439 q 378 428 333 439 q 460 399 424 417 q 515 360 497 381 l 519 256 q 463 276 493 269 q 401 283 433 283 q 317 269 342 283 q 292 219 292 254 q 302 187 292 203 q 330 160 313 171 q 368 150 347 150 q 451 158 431 150 q 472 188 472 165 l 472 419 q 434 501 472 476 q 326 526 396 526 q 200 502 263 526 q 103 449 138 478 l 103 668 q 213 710 135 689 q 396 731 290 731 q 463 726 422 731 q 549 709 504 722 q 633 668 593 696 q 697 594 672 640 q 721 475 721 547 l 719 146 q 681 54 719 92 q 564 -2 642 17 q 368 -21 486 -21 m 340 783 l 340 865 q 376 875 363 865 q 390 899 390 885 q 375 924 390 917 q 335 931 360 931 q 316 929 326 931 q 292 925 306 928 l 292 1015 q 327 1020 301 1018 q 389 1022 353 1022 q 475 1010 438 1022 q 535 974 513 999 q 557 908 557 949 q 534 840 557 865 q 475 815 511 815 l 475 783 l 340 783 z "},"ȃ":{"ha":804,"x_min":42,"x_max":721,"o":"m 368 -21 q 236 -8 296 -21 q 133 33 176 4 q 65 110 89 61 q 42 232 42 160 q 67 335 42 289 q 147 410 92 382 q 290 439 201 439 q 378 428 333 439 q 460 399 424 417 q 515 360 497 381 l 519 256 q 463 276 493 269 q 401 283 433 283 q 317 269 342 283 q 292 219 292 254 q 302 187 292 203 q 330 160 313 171 q 368 150 347 150 q 451 158 431 150 q 472 188 472 165 l 472 419 q 434 501 472 476 q 326 526 396 526 q 200 502 263 526 q 103 449 138 478 l 103 668 q 213 710 135 689 q 396 731 290 731 q 463 726 422 731 q 549 709 504 722 q 633 668 593 696 q 697 594 672 640 q 721 475 721 547 l 719 146 q 681 54 719 92 q 564 -2 642 17 q 368 -21 486 -21 z "},"ā":{"ha":804,"x_min":42,"x_max":721,"o":"m 368 -21 q 236 -8 296 -21 q 133 33 176 4 q 65 110 89 61 q 42 232 42 160 q 67 335 42 289 q 147 410 92 382 q 290 439 201 439 q 378 428 333 439 q 460 399 424 417 q 515 360 497 381 l 519 256 q 463 276 493 269 q 401 283 433 283 q 317 269 342 283 q 292 219 292 254 q 302 187 292 203 q 330 160 313 171 q 368 150 347 150 q 451 158 431 150 q 472 188 472 165 l 472 419 q 434 501 472 476 q 326 526 396 526 q 200 502 263 526 q 103 449 138 478 l 103 668 q 213 710 135 689 q 396 731 290 731 q 463 726 422 731 q 549 709 504 722 q 633 668 593 696 q 697 594 672 640 q 721 475 721 547 l 719 146 q 681 54 719 92 q 564 -2 642 17 q 368 -21 486 -21 z "},"ą":{"ha":804,"x_min":42,"x_max":721,"o":"m 368 -21 q 236 -8 296 -21 q 133 33 176 4 q 65 110 89 61 q 42 232 42 160 q 67 335 42 289 q 147 410 92 382 q 290 439 201 439 q 378 428 333 439 q 460 399 424 417 q 515 360 497 381 l 519 256 q 463 276 493 269 q 401 283 433 283 q 317 269 342 283 q 292 219 292 254 q 302 187 292 203 q 330 160 313 171 q 368 150 347 150 q 451 158 431 150 q 472 188 472 165 l 472 419 q 434 501 472 476 q 326 526 396 526 q 200 502 263 526 q 103 449 138 478 l 103 668 q 213 710 135 689 q 396 731 290 731 q 463 726 422 731 q 549 709 504 722 q 633 668 593 696 q 697 594 672 640 q 721 475 721 547 l 719 146 q 681 54 719 92 q 564 -2 642 17 q 368 -21 486 -21 z "},"å":{"ha":804,"x_min":42,"x_max":721,"o":"m 368 -21 q 236 -8 296 -21 q 133 33 176 4 q 65 110 89 61 q 42 232 42 160 q 67 335 42 289 q 147 410 92 382 q 290 439 201 439 q 378 428 333 439 q 460 399 424 417 q 515 360 497 381 l 519 256 q 463 276 493 269 q 401 283 433 283 q 317 269 342 283 q 292 219 292 254 q 302 187 292 203 q 330 160 313 171 q 368 150 347 150 q 451 158 431 150 q 472 188 472 165 l 472 419 q 434 501 472 476 q 326 526 396 526 q 200 502 263 526 q 103 449 138 478 l 103 668 q 213 710 135 689 q 396 731 290 731 q 463 726 422 731 q 549 709 504 722 q 633 668 593 696 q 697 594 672 640 q 721 475 721 547 l 719 146 q 681 54 719 92 q 564 -2 642 17 q 368 -21 486 -21 z "},"ǻ":{"ha":804,"x_min":42,"x_max":721,"o":"m 368 -21 q 236 -8 296 -21 q 133 33 176 4 q 65 110 89 61 q 42 232 42 160 q 67 335 42 289 q 147 410 92 382 q 290 439 201 439 q 378 428 333 439 q 460 399 424 417 q 515 360 497 381 l 519 256 q 463 276 493 269 q 401 283 433 283 q 317 269 342 283 q 292 219 292 254 q 302 187 292 203 q 330 160 313 171 q 368 150 347 150 q 451 158 431 150 q 472 188 472 165 l 472 419 q 434 501 472 476 q 326 526 396 526 q 200 502 263 526 q 103 449 138 478 l 103 668 q 213 710 135 689 q 396 731 290 731 q 463 726 422 731 q 549 709 504 722 q 633 668 593 696 q 697 594 672 640 q 721 475 721 547 l 719 146 q 681 54 719 92 q 564 -2 642 17 q 368 -21 486 -21 z "},"ã":{"ha":804,"x_min":42,"x_max":721,"o":"m 368 -21 q 236 -8 296 -21 q 133 33 176 4 q 65 110 89 61 q 42 232 42 160 q 67 335 42 289 q 147 410 92 382 q 290 439 201 439 q 378 428 333 439 q 460 399 424 417 q 515 360 497 381 l 519 256 q 463 276 493 269 q 401 283 433 283 q 317 269 342 283 q 292 219 292 254 q 302 187 292 203 q 330 160 313 171 q 368 150 347 150 q 451 158 431 150 q 472 188 472 165 l 472 419 q 434 501 472 476 q 326 526 396 526 q 200 502 263 526 q 103 449 138 478 l 103 668 q 213 710 135 689 q 396 731 290 731 q 463 726 422 731 q 549 709 504 722 q 633 668 593 696 q 697 594 672 640 q 721 475 721 547 l 719 146 q 681 54 719 92 q 564 -2 642 17 q 368 -21 486 -21 z "},"æ":{"ha":1219,"x_min":42,"x_max":1179,"o":"m 599 56 q 481 -5 550 24 q 326 -33 413 -33 q 186 -10 251 -33 q 81 67 121 13 q 42 219 42 122 q 67 326 42 276 q 147 408 92 376 q 290 439 201 439 q 378 428 333 439 q 460 399 424 417 q 515 360 497 381 l 519 256 q 463 276 493 269 q 401 283 433 283 q 317 263 342 283 q 292 207 292 242 q 301 174 292 190 q 331 148 311 158 q 379 138 350 138 q 431 140 403 138 q 486 149 460 142 q 526 172 513 157 l 599 56 m 472 253 l 472 415 q 434 497 472 472 q 326 522 396 522 q 200 498 263 522 q 103 444 138 474 l 103 668 q 213 710 135 689 q 396 731 290 731 q 463 726 422 731 q 549 709 504 722 q 633 668 593 696 q 697 594 672 640 q 721 475 721 547 l 719 288 q 763 200 719 228 q 910 172 806 172 q 1016 194 961 172 q 1101 235 1071 215 l 1101 25 q 990 -19 1053 -4 q 842 -35 928 -35 q 649 7 732 -35 q 519 115 565 49 q 472 253 472 181 m 472 339 q 567 625 472 521 q 843 729 663 729 q 1035 679 961 729 q 1144 530 1108 629 q 1178 283 1179 431 l 651 283 l 618 432 l 961 432 l 935 346 q 910 500 933 457 q 831 543 888 543 q 778 526 804 543 q 737 472 753 510 q 721 374 721 435 l 472 339 z "},"ǽ":{"ha":1219,"x_min":42,"x_max":1179,"o":"m 599 56 q 481 -5 550 24 q 326 -33 413 -33 q 186 -10 251 -33 q 81 67 121 13 q 42 219 42 122 q 67 326 42 276 q 147 408 92 376 q 290 439 201 439 q 378 428 333 439 q 460 399 424 417 q 515 360 497 381 l 519 256 q 463 276 493 269 q 401 283 433 283 q 317 263 342 283 q 292 207 292 242 q 301 174 292 190 q 331 148 311 158 q 379 138 350 138 q 431 140 403 138 q 486 149 460 142 q 526 172 513 157 l 599 56 m 472 253 l 472 415 q 434 497 472 472 q 326 522 396 522 q 200 498 263 522 q 103 444 138 474 l 103 668 q 213 710 135 689 q 396 731 290 731 q 463 726 422 731 q 549 709 504 722 q 633 668 593 696 q 697 594 672 640 q 721 475 721 547 l 719 288 q 763 200 719 228 q 910 172 806 172 q 1016 194 961 172 q 1101 235 1071 215 l 1101 25 q 990 -19 1053 -4 q 842 -35 928 -35 q 649 7 732 -35 q 519 115 565 49 q 472 253 472 181 m 472 339 q 567 625 472 521 q 843 729 663 729 q 1035 679 961 729 q 1144 530 1108 629 q 1178 283 1179 431 l 651 283 l 618 432 l 961 432 l 935 346 q 910 500 933 457 q 831 543 888 543 q 778 526 804 543 q 737 472 753 510 q 721 374 721 435 l 472 339 z "},"b":{"ha":854,"x_min":83,"x_max":813,"o":"m 426 -21 q 304 -12 365 -21 q 193 17 243 -4 q 113 78 143 39 q 83 182 83 118 l 83 953 l 331 953 l 331 565 l 289 643 q 351 698 313 679 q 430 724 390 717 q 494 731 469 731 q 730 637 647 731 q 813 354 813 543 q 787 183 813 254 q 711 67 761 111 q 590 1 661 22 q 426 -21 518 -21 m 426 186 q 501 203 471 186 q 547 254 532 221 q 563 336 563 288 q 542 459 563 417 q 490 517 522 501 q 422 533 458 533 q 376 528 401 533 q 331 513 350 524 l 331 249 q 341 213 331 226 q 373 192 351 199 q 426 186 394 186 z "},"c":{"ha":703,"x_min":42,"x_max":661,"o":"m 429 -21 q 276 5 346 -21 q 153 78 206 31 q 71 191 100 125 q 42 339 42 257 q 68 501 42 429 q 144 624 94 574 q 265 702 194 675 q 426 729 336 729 q 550 717 486 729 q 658 682 614 704 l 658 469 q 563 510 608 493 q 469 526 518 526 q 345 491 397 526 q 293 374 293 456 q 336 235 293 283 q 483 186 379 186 q 583 208 535 186 q 661 249 631 229 l 661 39 q 559 -6 613 10 q 429 -21 506 -21 z "},"ć":{"ha":703,"x_min":42,"x_max":661,"o":"m 429 -21 q 276 5 346 -21 q 153 78 206 31 q 71 191 100 125 q 42 339 42 257 q 68 501 42 429 q 144 624 94 574 q 265 702 194 675 q 426 729 336 729 q 550 717 486 729 q 658 682 614 704 l 658 469 q 563 510 608 493 q 469 526 518 526 q 345 491 397 526 q 293 374 293 456 q 336 235 293 283 q 483 186 379 186 q 583 208 535 186 q 661 249 631 229 l 661 39 q 559 -6 613 10 q 429 -21 506 -21 z "},"č":{"ha":703,"x_min":42,"x_max":661,"o":"m 429 -21 q 276 5 346 -21 q 153 78 206 31 q 71 191 100 125 q 42 339 42 257 q 68 501 42 429 q 144 624 94 574 q 265 702 194 675 q 426 729 336 729 q 550 717 486 729 q 658 682 614 704 l 658 469 q 563 510 608 493 q 469 526 518 526 q 345 491 397 526 q 293 374 293 456 q 336 235 293 283 q 483 186 379 186 q 583 208 535 186 q 661 249 631 229 l 661 39 q 559 -6 613 10 q 429 -21 506 -21 z "},"ç":{"ha":703,"x_min":42,"x_max":661,"o":"m 429 -21 q 276 5 346 -21 q 153 78 206 31 q 71 191 100 125 q 42 339 42 257 q 68 501 42 429 q 144 624 94 574 q 265 702 194 675 q 426 729 336 729 q 550 717 486 729 q 658 682 614 704 l 658 469 q 563 510 608 493 q 469 526 518 526 q 345 491 397 526 q 293 374 293 456 q 336 235 293 283 q 483 186 379 186 q 583 208 535 186 q 661 249 631 229 l 661 39 q 559 -6 613 10 q 429 -21 506 -21 z "},"ḉ":{"ha":703,"x_min":42,"x_max":661,"o":"m 429 -21 q 276 5 346 -21 q 153 78 206 31 q 71 191 100 125 q 42 339 42 257 q 68 501 42 429 q 144 624 94 574 q 265 702 194 675 q 426 729 336 729 q 550 717 486 729 q 658 682 614 704 l 658 469 q 563 510 608 493 q 469 526 518 526 q 345 491 397 526 q 293 374 293 456 q 336 235 293 283 q 483 186 379 186 q 583 208 535 186 q 661 249 631 229 l 661 39 q 559 -6 613 10 q 429 -21 506 -21 z "},"ĉ":{"ha":703,"x_min":42,"x_max":661,"o":"m 429 -21 q 276 5 346 -21 q 153 78 206 31 q 71 191 100 125 q 42 339 42 257 q 68 501 42 429 q 144 624 94 574 q 265 702 194 675 q 426 729 336 729 q 550 717 486 729 q 658 682 614 704 l 658 469 q 563 510 608 493 q 469 526 518 526 q 345 491 397 526 q 293 374 293 456 q 336 235 293 283 q 483 186 379 186 q 583 208 535 186 q 661 249 631 229 l 661 39 q 559 -6 613 10 q 429 -21 506 -21 z "},"ċ":{"ha":703,"x_min":42,"x_max":661,"o":"m 429 -21 q 276 5 346 -21 q 153 78 206 31 q 71 191 100 125 q 42 339 42 257 q 68 501 42 429 q 144 624 94 574 q 265 702 194 675 q 426 729 336 729 q 550 717 486 729 q 658 682 614 704 l 658 469 q 563 510 608 493 q 469 526 518 526 q 345 491 397 526 q 293 374 293 456 q 336 235 293 283 q 483 186 379 186 q 583 208 535 186 q 661 249 631 229 l 661 39 q 559 -6 613 10 q 429 -21 506 -21 z "},"d":{"ha":869,"x_min":42,"x_max":786,"o":"m 440 -21 q 270 -1 344 -21 q 145 62 196 18 q 68 178 94 106 q 42 358 42 251 q 128 634 42 533 q 386 735 214 735 q 438 733 404 735 q 510 716 471 731 q 581 661 549 701 l 536 583 l 536 994 l 786 994 l 786 210 q 758 111 786 154 q 683 39 731 68 q 572 -6 635 10 q 440 -21 510 -21 m 451 188 q 514 199 492 188 q 536 238 536 211 l 536 514 q 499 529 518 524 q 460 535 479 535 q 371 521 408 535 q 314 467 333 507 q 294 349 294 426 q 311 258 294 293 q 363 205 328 222 q 451 188 397 188 z "},"ð":{"ha":818,"x_min":42,"x_max":776,"o":"m 414 -35 q 135 57 229 -35 q 42 350 42 149 q 115 631 42 533 q 315 729 189 729 q 451 700 401 729 q 528 619 500 671 l 532 501 q 476 553 506 536 q 414 571 446 571 q 347 546 375 571 q 306 472 319 521 q 292 350 292 424 q 323 201 292 240 q 414 163 354 163 q 483 192 458 163 q 517 288 507 222 q 526 460 526 353 q 501 660 526 578 q 433 798 475 742 q 338 893 390 854 q 233 963 286 932 l 233 972 l 521 972 q 631 876 585 933 q 706 749 676 819 q 750 599 736 679 q 764 429 764 518 q 678 76 764 188 q 414 -35 592 -35 m 282 751 l 247 885 l 735 971 l 776 850 l 282 751 z "},"ď":{"ha":1114,"x_min":42,"x_max":1097,"o":"m 440 -21 q 270 -1 344 -21 q 145 62 196 18 q 68 178 94 106 q 42 358 42 251 q 128 634 42 533 q 386 735 214 735 q 438 733 404 735 q 510 716 471 731 q 581 661 549 701 l 536 583 l 536 994 l 786 994 l 786 210 q 758 111 786 154 q 683 39 731 68 q 572 -6 635 10 q 440 -21 510 -21 m 451 188 q 514 199 492 188 q 536 238 536 211 l 536 514 q 499 529 518 524 q 460 535 479 535 q 371 521 408 535 q 314 467 333 507 q 294 349 294 426 q 311 258 294 293 q 363 205 328 222 q 451 188 397 188 z "},"đ":{"ha":869,"x_min":42,"x_max":864,"o":"m 440 -21 q 270 -1 344 -21 q 145 62 196 18 q 68 178 94 106 q 42 358 42 251 q 128 634 42 533 q 386 735 214 735 q 438 733 404 735 q 510 716 471 731 q 581 661 549 701 l 536 583 l 536 994 l 786 994 l 786 210 q 758 111 786 154 q 683 39 731 68 q 572 -6 635 10 q 440 -21 510 -21 m 451 188 q 514 199 492 188 q 536 238 536 211 l 536 514 q 499 529 518 524 q 460 535 479 535 q 371 521 408 535 q 314 467 333 507 q 294 349 294 426 q 311 258 294 293 q 363 205 328 222 q 451 188 397 188 m 414 757 l 414 907 l 864 907 l 864 757 l 414 757 z "},"ḏ":{"ha":869,"x_min":42,"x_max":786,"o":"m 440 -21 q 270 -1 344 -21 q 145 62 196 18 q 68 178 94 106 q 42 358 42 251 q 128 634 42 533 q 386 735 214 735 q 438 733 404 735 q 510 716 471 731 q 581 661 549 701 l 536 583 l 536 994 l 786 994 l 786 210 q 758 111 786 154 q 683 39 731 68 q 572 -6 635 10 q 440 -21 510 -21 m 451 188 q 514 199 492 188 q 536 238 536 211 l 536 514 q 499 529 518 524 q 460 535 479 535 q 371 521 408 535 q 314 467 333 507 q 294 349 294 426 q 311 258 294 293 q 363 205 328 222 q 451 188 397 188 z "},"ǆ":{"ha":1575,"x_min":42,"x_max":1513,"o":"m 440 -21 q 270 -1 344 -21 q 145 62 196 18 q 68 178 94 106 q 42 358 42 251 q 128 634 42 533 q 386 735 214 735 q 438 733 404 735 q 510 716 471 731 q 581 661 549 701 l 536 583 l 536 994 l 786 994 l 786 210 q 758 111 786 154 q 683 39 731 68 q 572 -6 635 10 q 440 -21 510 -21 m 451 188 q 514 199 492 188 q 536 238 536 211 l 536 514 q 499 529 518 524 q 460 535 479 535 q 371 521 408 535 q 314 467 333 507 q 294 349 294 426 q 311 258 294 293 q 363 205 328 222 q 451 188 397 188 z "},"e":{"ha":789,"x_min":42,"x_max":749,"o":"m 415 -21 q 221 24 306 -21 q 89 149 136 68 q 42 339 42 231 q 137 630 42 525 q 413 735 232 735 q 604 685 531 735 q 713 534 678 635 q 747 283 749 433 l 221 283 l 188 432 l 531 432 l 504 346 q 480 505 503 461 q 400 549 457 549 q 349 531 374 549 q 308 476 324 514 q 293 374 293 438 q 336 235 293 283 q 483 186 379 186 q 554 196 518 186 q 622 217 590 206 q 675 235 654 229 l 675 25 q 564 -7 626 7 q 415 -21 501 -21 z "},"é":{"ha":789,"x_min":42,"x_max":749,"o":"m 415 -21 q 221 24 306 -21 q 89 149 136 68 q 42 339 42 231 q 137 630 42 525 q 413 735 232 735 q 604 685 531 735 q 713 534 678 635 q 747 283 749 433 l 221 283 l 188 432 l 531 432 l 504 346 q 480 505 503 461 q 400 549 457 549 q 349 531 374 549 q 308 476 324 514 q 293 374 293 438 q 336 235 293 283 q 483 186 379 186 q 554 196 518 186 q 622 217 590 206 q 675 235 654 229 l 675 25 q 564 -7 626 7 q 415 -21 501 -21 z "},"ĕ":{"ha":789,"x_min":42,"x_max":749,"o":"m 415 -21 q 221 24 306 -21 q 89 149 136 68 q 42 339 42 231 q 137 630 42 525 q 413 735 232 735 q 604 685 531 735 q 713 534 678 635 q 747 283 749 433 l 221 283 l 188 432 l 531 432 l 504 346 q 480 505 503 461 q 400 549 457 549 q 349 531 374 549 q 308 476 324 514 q 293 374 293 438 q 336 235 293 283 q 483 186 379 186 q 554 196 518 186 q 622 217 590 206 q 675 235 654 229 l 675 25 q 564 -7 626 7 q 415 -21 501 -21 z "},"ě":{"ha":789,"x_min":42,"x_max":749,"o":"m 415 -21 q 221 24 306 -21 q 89 149 136 68 q 42 339 42 231 q 137 630 42 525 q 413 735 232 735 q 604 685 531 735 q 713 534 678 635 q 747 283 749 433 l 221 283 l 188 432 l 531 432 l 504 346 q 480 505 503 461 q 400 549 457 549 q 349 531 374 549 q 308 476 324 514 q 293 374 293 438 q 336 235 293 283 q 483 186 379 186 q 554 196 518 186 q 622 217 590 206 q 675 235 654 229 l 675 25 q 564 -7 626 7 q 415 -21 501 -21 z "},"ḝ":{"ha":789,"x_min":42,"x_max":749,"o":"m 415 -21 q 221 24 306 -21 q 89 149 136 68 q 42 339 42 231 q 137 630 42 525 q 413 735 232 735 q 604 685 531 735 q 713 534 678 635 q 747 283 749 433 l 221 283 l 188 432 l 531 432 l 504 346 q 480 505 503 461 q 400 549 457 549 q 349 531 374 549 q 308 476 324 514 q 293 374 293 438 q 336 235 293 283 q 483 186 379 186 q 554 196 518 186 q 622 217 590 206 q 675 235 654 229 l 675 25 q 564 -7 626 7 q 415 -21 501 -21 z "},"ê":{"ha":789,"x_min":42,"x_max":749,"o":"m 415 -21 q 221 24 306 -21 q 89 149 136 68 q 42 339 42 231 q 137 630 42 525 q 413 735 232 735 q 604 685 531 735 q 713 534 678 635 q 747 283 749 433 l 221 283 l 188 432 l 531 432 l 504 346 q 480 505 503 461 q 400 549 457 549 q 349 531 374 549 q 308 476 324 514 q 293 374 293 438 q 336 235 293 283 q 483 186 379 186 q 554 196 518 186 q 622 217 590 206 q 675 235 654 229 l 675 25 q 564 -7 626 7 q 415 -21 501 -21 z "},"ế":{"ha":789,"x_min":42,"x_max":896,"o":"m 415 -21 q 221 24 306 -21 q 89 149 136 68 q 42 339 42 231 q 137 630 42 525 q 413 735 232 735 q 604 685 531 735 q 713 534 678 635 q 747 283 749 433 l 221 283 l 188 432 l 531 432 l 504 346 q 480 505 503 461 q 400 549 457 549 q 349 531 374 549 q 308 476 324 514 q 293 374 293 438 q 336 235 293 283 q 483 186 379 186 q 554 196 518 186 q 622 217 590 206 q 675 235 654 229 l 675 25 q 564 -7 626 7 q 415 -21 501 -21 z "},"ệ":{"ha":789,"x_min":42,"x_max":749,"o":"m 415 -21 q 221 24 306 -21 q 89 149 136 68 q 42 339 42 231 q 137 630 42 525 q 413 735 232 735 q 604 685 531 735 q 713 534 678 635 q 747 283 749 433 l 221 283 l 188 432 l 531 432 l 504 346 q 480 505 503 461 q 400 549 457 549 q 349 531 374 549 q 308 476 324 514 q 293 374 293 438 q 336 235 293 283 q 483 186 379 186 q 554 196 518 186 q 622 217 590 206 q 675 235 654 229 l 675 25 q 564 -7 626 7 q 415 -21 501 -21 m 335 -221 l 335 -69 l 501 -69 l 501 -221 l 335 -221 z "},"ề":{"ha":789,"x_min":-61,"x_max":749,"o":"m 415 -21 q 221 24 306 -21 q 89 149 136 68 q 42 339 42 231 q 137 630 42 525 q 413 735 232 735 q 604 685 531 735 q 713 534 678 635 q 747 283 749 433 l 221 283 l 188 432 l 531 432 l 504 346 q 480 505 503 461 q 400 549 457 549 q 349 531 374 549 q 308 476 324 514 q 293 374 293 438 q 336 235 293 283 q 483 186 379 186 q 554 196 518 186 q 622 217 590 206 q 675 235 654 229 l 675 25 q 564 -7 626 7 q 415 -21 501 -21 z "},"ể":{"ha":789,"x_min":42,"x_max":792,"o":"m 415 -21 q 221 24 306 -21 q 89 149 136 68 q 42 339 42 231 q 137 630 42 525 q 413 735 232 735 q 604 685 531 735 q 713 534 678 635 q 747 283 749 433 l 221 283 l 188 432 l 531 432 l 504 346 q 480 505 503 461 q 400 549 457 549 q 349 531 374 549 q 308 476 324 514 q 293 374 293 438 q 336 235 293 283 q 483 186 379 186 q 554 196 518 186 q 622 217 590 206 q 675 235 654 229 l 675 25 q 564 -7 626 7 q 415 -21 501 -21 z "},"ễ":{"ha":789,"x_min":42,"x_max":749,"o":"m 415 -21 q 221 24 306 -21 q 89 149 136 68 q 42 339 42 231 q 137 630 42 525 q 413 735 232 735 q 604 685 531 735 q 713 534 678 635 q 747 283 749 433 l 221 283 l 188 432 l 531 432 l 504 346 q 480 505 503 461 q 400 549 457 549 q 349 531 374 549 q 308 476 324 514 q 293 374 293 438 q 336 235 293 283 q 483 186 379 186 q 554 196 518 186 q 622 217 590 206 q 675 235 654 229 l 675 25 q 564 -7 626 7 q 415 -21 501 -21 z "},"ȅ":{"ha":789,"x_min":42,"x_max":749,"o":"m 415 -21 q 221 24 306 -21 q 89 149 136 68 q 42 339 42 231 q 137 630 42 525 q 413 735 232 735 q 604 685 531 735 q 713 534 678 635 q 747 283 749 433 l 221 283 l 188 432 l 531 432 l 504 346 q 480 505 503 461 q 400 549 457 549 q 349 531 374 549 q 308 476 324 514 q 293 374 293 438 q 336 235 293 283 q 483 186 379 186 q 554 196 518 186 q 622 217 590 206 q 675 235 654 229 l 675 25 q 564 -7 626 7 q 415 -21 501 -21 z "},"ë":{"ha":789,"x_min":42,"x_max":749,"o":"m 415 -21 q 221 24 306 -21 q 89 149 136 68 q 42 339 42 231 q 137 630 42 525 q 413 735 232 735 q 604 685 531 735 q 713 534 678 635 q 747 283 749 433 l 221 283 l 188 432 l 531 432 l 504 346 q 480 505 503 461 q 400 549 457 549 q 349 531 374 549 q 308 476 324 514 q 293 374 293 438 q 336 235 293 283 q 483 186 379 186 q 554 196 518 186 q 622 217 590 206 q 675 235 654 229 l 675 25 q 564 -7 626 7 q 415 -21 501 -21 z "},"ė":{"ha":789,"x_min":42,"x_max":749,"o":"m 415 -21 q 221 24 306 -21 q 89 149 136 68 q 42 339 42 231 q 137 630 42 525 q 413 735 232 735 q 604 685 531 735 q 713 534 678 635 q 747 283 749 433 l 221 283 l 188 432 l 531 432 l 504 346 q 480 505 503 461 q 400 549 457 549 q 349 531 374 549 q 308 476 324 514 q 293 374 293 438 q 336 235 293 283 q 483 186 379 186 q 554 196 518 186 q 622 217 590 206 q 675 235 654 229 l 675 25 q 564 -7 626 7 q 415 -21 501 -21 z "},"ẹ":{"ha":789,"x_min":42,"x_max":749,"o":"m 415 -21 q 221 24 306 -21 q 89 149 136 68 q 42 339 42 231 q 137 630 42 525 q 413 735 232 735 q 604 685 531 735 q 713 534 678 635 q 747 283 749 433 l 221 283 l 188 432 l 531 432 l 504 346 q 480 505 503 461 q 400 549 457 549 q 349 531 374 549 q 308 476 324 514 q 293 374 293 438 q 336 235 293 283 q 483 186 379 186 q 554 196 518 186 q 622 217 590 206 q 675 235 654 229 l 675 25 q 564 -7 626 7 q 415 -21 501 -21 m 335 -221 l 335 -69 l 501 -69 l 501 -221 l 335 -221 z "},"è":{"ha":789,"x_min":42,"x_max":749,"o":"m 415 -21 q 221 24 306 -21 q 89 149 136 68 q 42 339 42 231 q 137 630 42 525 q 413 735 232 735 q 604 685 531 735 q 713 534 678 635 q 747 283 749 433 l 221 283 l 188 432 l 531 432 l 504 346 q 480 505 503 461 q 400 549 457 549 q 349 531 374 549 q 308 476 324 514 q 293 374 293 438 q 336 235 293 283 q 483 186 379 186 q 554 196 518 186 q 622 217 590 206 q 675 235 654 229 l 675 25 q 564 -7 626 7 q 415 -21 501 -21 z "},"ẻ":{"ha":789,"x_min":42,"x_max":749,"o":"m 415 -21 q 221 24 306 -21 q 89 149 136 68 q 42 339 42 231 q 137 630 42 525 q 413 735 232 735 q 604 685 531 735 q 713 534 678 635 q 747 283 749 433 l 221 283 l 188 432 l 531 432 l 504 346 q 480 505 503 461 q 400 549 457 549 q 349 531 374 549 q 308 476 324 514 q 293 374 293 438 q 336 235 293 283 q 483 186 379 186 q 554 196 518 186 q 622 217 590 206 q 675 235 654 229 l 675 25 q 564 -7 626 7 q 415 -21 501 -21 m 354 769 l 354 851 q 390 861 376 851 q 404 885 404 871 q 389 910 404 903 q 349 917 374 917 q 330 915 340 917 q 306 911 319 914 l 306 1001 q 341 1006 315 1004 q 403 1008 367 1008 q 489 997 451 1008 q 549 960 526 985 q 571 894 571 935 q 548 826 571 851 q 489 801 525 801 l 489 769 l 354 769 z "},"ȇ":{"ha":789,"x_min":42,"x_max":749,"o":"m 415 -21 q 221 24 306 -21 q 89 149 136 68 q 42 339 42 231 q 137 630 42 525 q 413 735 232 735 q 604 685 531 735 q 713 534 678 635 q 747 283 749 433 l 221 283 l 188 432 l 531 432 l 504 346 q 480 505 503 461 q 400 549 457 549 q 349 531 374 549 q 308 476 324 514 q 293 374 293 438 q 336 235 293 283 q 483 186 379 186 q 554 196 518 186 q 622 217 590 206 q 675 235 654 229 l 675 25 q 564 -7 626 7 q 415 -21 501 -21 z "},"ē":{"ha":789,"x_min":42,"x_max":749,"o":"m 415 -21 q 221 24 306 -21 q 89 149 136 68 q 42 339 42 231 q 137 630 42 525 q 413 735 232 735 q 604 685 531 735 q 713 534 678 635 q 747 283 749 433 l 221 283 l 188 432 l 531 432 l 504 346 q 480 505 503 461 q 400 549 457 549 q 349 531 374 549 q 308 476 324 514 q 293 374 293 438 q 336 235 293 283 q 483 186 379 186 q 554 196 518 186 q 622 217 590 206 q 675 235 654 229 l 675 25 q 564 -7 626 7 q 415 -21 501 -21 z "},"ḗ":{"ha":789,"x_min":42,"x_max":749,"o":"m 415 -21 q 221 24 306 -21 q 89 149 136 68 q 42 339 42 231 q 137 630 42 525 q 413 735 232 735 q 604 685 531 735 q 713 534 678 635 q 747 283 749 433 l 221 283 l 188 432 l 531 432 l 504 346 q 480 505 503 461 q 400 549 457 549 q 349 531 374 549 q 308 476 324 514 q 293 374 293 438 q 336 235 293 283 q 483 186 379 186 q 554 196 518 186 q 622 217 590 206 q 675 235 654 229 l 675 25 q 564 -7 626 7 q 415 -21 501 -21 z "},"ḕ":{"ha":789,"x_min":42,"x_max":749,"o":"m 415 -21 q 221 24 306 -21 q 89 149 136 68 q 42 339 42 231 q 137 630 42 525 q 413 735 232 735 q 604 685 531 735 q 713 534 678 635 q 747 283 749 433 l 221 283 l 188 432 l 531 432 l 504 346 q 480 505 503 461 q 400 549 457 549 q 349 531 374 549 q 308 476 324 514 q 293 374 293 438 q 336 235 293 283 q 483 186 379 186 q 554 196 518 186 q 622 217 590 206 q 675 235 654 229 l 675 25 q 564 -7 626 7 q 415 -21 501 -21 z "},"ę":{"ha":789,"x_min":42,"x_max":749,"o":"m 415 -21 q 221 24 306 -21 q 89 149 136 68 q 42 339 42 231 q 137 630 42 525 q 413 735 232 735 q 604 685 531 735 q 713 534 678 635 q 747 283 749 433 l 221 283 l 188 432 l 531 432 l 504 346 q 480 505 503 461 q 400 549 457 549 q 349 531 374 549 q 308 476 324 514 q 293 374 293 438 q 336 235 293 283 q 483 186 379 186 q 554 196 518 186 q 622 217 590 206 q 675 235 654 229 l 675 25 q 564 -7 626 7 q 415 -21 501 -21 z "},"ẽ":{"ha":789,"x_min":42,"x_max":749,"o":"m 415 -21 q 221 24 306 -21 q 89 149 136 68 q 42 339 42 231 q 137 630 42 525 q 413 735 232 735 q 604 685 531 735 q 713 534 678 635 q 747 283 749 433 l 221 283 l 188 432 l 531 432 l 504 346 q 480 505 503 461 q 400 549 457 549 q 349 531 374 549 q 308 476 324 514 q 293 374 293 438 q 336 235 293 283 q 483 186 379 186 q 554 196 518 186 q 622 217 590 206 q 675 235 654 229 l 675 25 q 564 -7 626 7 q 415 -21 501 -21 z "},"ə":{"ha":789,"x_min":40,"x_max":747,"o":"m 374 714 q 568 669 483 714 q 700 544 653 625 q 747 354 747 463 q 652 63 747 168 q 376 -42 557 -42 q 185 8 258 -42 q 76 159 111 58 q 42 410 40 260 l 568 410 l 601 261 l 258 261 l 285 347 q 309 188 286 232 q 389 144 332 144 q 440 162 415 144 q 481 217 465 179 q 496 319 496 256 q 453 458 496 410 q 306 507 410 507 q 235 497 271 507 q 167 476 199 488 q 114 458 135 464 l 114 668 q 225 700 163 686 q 374 714 288 714 z "},"f":{"ha":558,"x_min":35,"x_max":524,"o":"m 131 0 l 131 519 l 35 519 l 35 707 l 133 707 l 133 714 q 146 828 133 779 q 182 913 158 878 q 240 968 206 947 q 320 999 275 989 q 421 1008 365 1008 q 475 1004 444 1008 q 524 993 506 1000 l 524 769 q 492 801 508 789 q 444 813 476 813 q 418 808 429 813 q 400 794 407 803 q 390 774 393 786 q 386 750 386 763 l 386 707 l 524 707 l 524 519 l 383 519 l 383 0 l 131 0 z "},"g":{"ha":838,"x_min":42,"x_max":768,"o":"m 347 -21 q 188 24 257 -14 q 81 136 119 61 q 42 331 42 211 q 69 524 42 446 q 149 647 96 601 q 282 711 203 692 q 465 731 361 731 q 630 706 563 731 q 733 638 697 682 q 768 533 768 594 l 768 0 q 740 -149 768 -87 q 659 -249 711 -210 q 538 -306 607 -287 q 385 -324 468 -324 q 206 -310 279 -324 q 99 -274 133 -296 l 99 -53 q 165 -80 119 -64 q 267 -107 210 -96 q 378 -118 324 -118 q 462 -102 431 -118 q 507 -57 493 -86 q 521 14 521 -28 l 521 132 l 565 106 q 517 38 544 67 q 450 -6 490 10 q 347 -21 410 -21 m 424 161 q 478 167 456 161 q 521 185 501 174 l 521 474 q 507 513 521 500 q 472 530 493 525 q 429 535 451 535 q 351 513 382 535 q 306 448 321 490 q 292 347 292 406 q 332 210 292 260 q 424 161 372 161 z "},"ğ":{"ha":838,"x_min":42,"x_max":768,"o":"m 347 -21 q 188 24 257 -14 q 81 136 119 61 q 42 331 42 211 q 69 524 42 446 q 149 647 96 601 q 282 711 203 692 q 465 731 361 731 q 630 706 563 731 q 733 638 697 682 q 768 533 768 594 l 768 0 q 740 -149 768 -87 q 659 -249 711 -210 q 538 -306 607 -287 q 385 -324 468 -324 q 206 -310 279 -324 q 99 -274 133 -296 l 99 -53 q 165 -80 119 -64 q 267 -107 210 -96 q 378 -118 324 -118 q 462 -102 431 -118 q 507 -57 493 -86 q 521 14 521 -28 l 521 132 l 565 106 q 517 38 544 67 q 450 -6 490 10 q 347 -21 410 -21 m 424 161 q 478 167 456 161 q 521 185 501 174 l 521 474 q 507 513 521 500 q 472 530 493 525 q 429 535 451 535 q 351 513 382 535 q 306 448 321 490 q 292 347 292 406 q 332 210 292 260 q 424 161 372 161 z "},"ǧ":{"ha":838,"x_min":42,"x_max":768,"o":"m 347 -21 q 188 24 257 -14 q 81 136 119 61 q 42 331 42 211 q 69 524 42 446 q 149 647 96 601 q 282 711 203 692 q 465 731 361 731 q 630 706 563 731 q 733 638 697 682 q 768 533 768 594 l 768 0 q 740 -149 768 -87 q 659 -249 711 -210 q 538 -306 607 -287 q 385 -324 468 -324 q 206 -310 279 -324 q 99 -274 133 -296 l 99 -53 q 165 -80 119 -64 q 267 -107 210 -96 q 378 -118 324 -118 q 462 -102 431 -118 q 507 -57 493 -86 q 521 14 521 -28 l 521 132 l 565 106 q 517 38 544 67 q 450 -6 490 10 q 347 -21 410 -21 m 424 161 q 478 167 456 161 q 521 185 501 174 l 521 474 q 507 513 521 500 q 472 530 493 525 q 429 535 451 535 q 351 513 382 535 q 306 448 321 490 q 292 347 292 406 q 332 210 292 260 q 424 161 372 161 z "},"ĝ":{"ha":838,"x_min":42,"x_max":768,"o":"m 347 -21 q 188 24 257 -14 q 81 136 119 61 q 42 331 42 211 q 69 524 42 446 q 149 647 96 601 q 282 711 203 692 q 465 731 361 731 q 630 706 563 731 q 733 638 697 682 q 768 533 768 594 l 768 0 q 740 -149 768 -87 q 659 -249 711 -210 q 538 -306 607 -287 q 385 -324 468 -324 q 206 -310 279 -324 q 99 -274 133 -296 l 99 -53 q 165 -80 119 -64 q 267 -107 210 -96 q 378 -118 324 -118 q 462 -102 431 -118 q 507 -57 493 -86 q 521 14 521 -28 l 521 132 l 565 106 q 517 38 544 67 q 450 -6 490 10 q 347 -21 410 -21 m 424 161 q 478 167 456 161 q 521 185 501 174 l 521 474 q 507 513 521 500 q 472 530 493 525 q 429 535 451 535 q 351 513 382 535 q 306 448 321 490 q 292 347 292 406 q 332 210 292 260 q 424 161 372 161 z "},"ģ":{"ha":838,"x_min":42,"x_max":768,"o":"m 347 -21 q 188 24 257 -14 q 81 136 119 61 q 42 331 42 211 q 69 524 42 446 q 149 647 96 601 q 282 711 203 692 q 465 731 361 731 q 630 706 563 731 q 733 638 697 682 q 768 533 768 594 l 768 0 q 740 -149 768 -87 q 659 -249 711 -210 q 538 -306 607 -287 q 385 -324 468 -324 q 206 -310 279 -324 q 99 -274 133 -296 l 99 -53 q 165 -80 119 -64 q 267 -107 210 -96 q 378 -118 324 -118 q 462 -102 431 -118 q 507 -57 493 -86 q 521 14 521 -28 l 521 132 l 565 106 q 517 38 544 67 q 450 -6 490 10 q 347 -21 410 -21 m 424 161 q 478 167 456 161 q 521 185 501 174 l 521 474 q 507 513 521 500 q 472 530 493 525 q 429 535 451 535 q 351 513 382 535 q 306 448 321 490 q 292 347 292 406 q 332 210 292 260 q 424 161 372 161 z "},"ġ":{"ha":838,"x_min":42,"x_max":768,"o":"m 347 -21 q 188 24 257 -14 q 81 136 119 61 q 42 331 42 211 q 69 524 42 446 q 149 647 96 601 q 282 711 203 692 q 465 731 361 731 q 630 706 563 731 q 733 638 697 682 q 768 533 768 594 l 768 0 q 740 -149 768 -87 q 659 -249 711 -210 q 538 -306 607 -287 q 385 -324 468 -324 q 206 -310 279 -324 q 99 -274 133 -296 l 99 -53 q 165 -80 119 -64 q 267 -107 210 -96 q 378 -118 324 -118 q 462 -102 431 -118 q 507 -57 493 -86 q 521 14 521 -28 l 521 132 l 565 106 q 517 38 544 67 q 450 -6 490 10 q 347 -21 410 -21 m 424 161 q 478 167 456 161 q 521 185 501 174 l 521 474 q 507 513 521 500 q 472 530 493 525 q 429 535 451 535 q 351 513 382 535 q 306 448 321 490 q 292 347 292 406 q 332 210 292 260 q 424 161 372 161 z "},"ḡ":{"ha":838,"x_min":42,"x_max":768,"o":"m 347 -21 q 188 24 257 -14 q 81 136 119 61 q 42 331 42 211 q 69 524 42 446 q 149 647 96 601 q 282 711 203 692 q 465 731 361 731 q 630 706 563 731 q 733 638 697 682 q 768 533 768 594 l 768 0 q 740 -149 768 -87 q 659 -249 711 -210 q 538 -306 607 -287 q 385 -324 468 -324 q 206 -310 279 -324 q 99 -274 133 -296 l 99 -53 q 165 -80 119 -64 q 267 -107 210 -96 q 378 -118 324 -118 q 462 -102 431 -118 q 507 -57 493 -86 q 521 14 521 -28 l 521 132 l 565 106 q 517 38 544 67 q 450 -6 490 10 q 347 -21 410 -21 m 424 161 q 478 167 456 161 q 521 185 501 174 l 521 474 q 507 513 521 500 q 472 530 493 525 q 429 535 451 535 q 351 513 382 535 q 306 448 321 490 q 292 347 292 406 q 332 210 292 260 q 424 161 372 161 z "},"h":{"ha":871,"x_min":83,"x_max":788,"o":"m 83 0 l 83 972 l 338 972 l 338 542 l 218 599 q 358 692 275 656 q 532 729 442 729 q 662 708 604 729 q 753 633 719 686 q 788 482 788 579 l 788 0 l 535 0 l 535 421 q 505 501 535 478 q 419 524 475 524 q 367 516 393 524 q 338 501 342 508 l 333 0 l 83 0 z "},"ħ":{"ha":871,"x_min":0,"x_max":788,"o":"m 83 0 l 83 972 l 338 972 l 338 542 l 218 599 q 358 692 275 656 q 532 729 442 729 q 662 708 604 729 q 753 633 719 686 q 788 482 788 579 l 788 0 l 535 0 l 535 421 q 505 501 535 478 q 419 524 475 524 q 367 516 393 524 q 338 501 342 508 l 333 0 l 83 0 m 0 746 l 0 896 l 450 896 l 450 746 l 0 746 z "},"ḫ":{"ha":871,"x_min":83,"x_max":788,"o":"m 83 0 l 83 972 l 338 972 l 338 542 l 218 599 q 358 692 275 656 q 532 729 442 729 q 662 708 604 729 q 753 633 719 686 q 788 482 788 579 l 788 0 l 535 0 l 535 421 q 505 501 535 478 q 419 524 475 524 q 367 516 393 524 q 338 501 342 508 l 333 0 l 83 0 z "},"ĥ":{"ha":871,"x_min":-24,"x_max":788,"o":"m 83 0 l 83 972 l 338 972 l 338 542 l 218 599 q 358 692 275 656 q 532 729 442 729 q 662 708 604 729 q 753 633 719 686 q 788 482 788 579 l 788 0 l 535 0 l 535 421 q 505 501 535 478 q 419 524 475 524 q 367 516 393 524 q 338 501 342 508 l 333 0 l 83 0 z "},"i":{"ha":425,"x_min":83,"x_max":342,"o":"m 86 0 l 86 693 l 339 693 l 342 0 l 86 0 m 83 790 l 83 972 l 342 972 l 342 790 l 83 790 z "},"ı":{"ha":422,"x_min":83,"x_max":339,"o":"m 83 0 l 83 693 l 336 693 l 339 0 l 83 0 z "},"í":{"ha":499,"x_min":133,"x_max":443,"o":"m 133 0 l 133 693 l 372 693 l 372 0 l 133 0 m 194 772 l 281 935 l 443 935 l 314 772 l 194 772 z "},"ĭ":{"ha":422,"x_min":-7,"x_max":431,"o":"m 83 0 l 83 693 l 336 693 l 339 0 l 83 0 z "},"ǐ":{"ha":422,"x_min":-10,"x_max":418,"o":"m 83 0 l 83 693 l 336 693 l 339 0 l 83 0 z "},"î":{"ha":499,"x_min":53,"x_max":453,"o":"m 133 0 l 133 693 l 372 693 l 372 0 l 133 0 m 53 772 l 219 942 l 286 942 l 453 772 l 311 772 l 253 833 l 194 772 l 53 772 z "},"ȉ":{"ha":422,"x_min":-142,"x_max":447,"o":"m 83 0 l 83 693 l 336 693 l 339 0 l 83 0 z "},"ï":{"ha":499,"x_min":51,"x_max":454,"o":"m 133 0 l 133 693 l 372 693 l 372 0 l 133 0 m 51 772 l 51 924 l 218 924 l 218 772 l 51 772 m 288 772 l 288 924 l 454 924 l 454 772 l 288 772 z "},"ḯ":{"ha":422,"x_min":-17,"x_max":468,"o":"m 83 0 l 83 693 l 336 693 l 339 0 l 83 0 z "},"ị":{"ha":499,"x_min":131,"x_max":375,"o":"m 133 0 l 133 693 l 372 693 l 372 0 l 133 0 m 169 -221 l 169 -69 l 336 -69 l 336 -221 l 169 -221 m 131 772 l 131 954 l 375 954 l 375 772 l 131 772 z "},"ì":{"ha":499,"x_min":63,"x_max":372,"o":"m 133 0 l 133 693 l 372 693 l 372 0 l 133 0 m 192 782 l 63 944 l 225 944 l 311 782 l 192 782 z "},"ỉ":{"ha":499,"x_min":133,"x_max":372,"o":"m 133 0 l 133 693 l 372 693 l 372 0 l 133 0 m 213 772 l 213 854 q 236 858 224 854 q 249 876 249 863 q 235 900 249 894 q 207 906 222 906 q 164 900 188 906 l 164 974 q 196 978 174 976 q 233 981 218 981 q 297 969 268 981 q 344 936 326 958 q 361 881 361 914 q 344 831 361 847 q 310 810 328 815 q 293 804 293 804 l 293 772 l 213 772 z "},"ȋ":{"ha":422,"x_min":-7,"x_max":431,"o":"m 83 0 l 83 693 l 336 693 l 339 0 l 83 0 z "},"ĳ":{"ha":868,"x_min":83,"x_max":785,"o":"m 86 0 l 86 693 l 339 693 l 342 0 l 86 0 m 83 790 l 83 972 l 342 972 l 342 790 l 83 790 m 432 -268 l 432 -68 q 482 -67 460 -74 q 517 -42 504 -61 q 529 7 529 -24 l 529 707 l 782 707 l 785 10 q 737 -162 785 -101 q 608 -245 689 -222 q 432 -268 528 -268 m 526 804 l 526 986 l 785 986 l 785 804 l 526 804 z "},"ī":{"ha":499,"x_min":90,"x_max":415,"o":"m 133 0 l 133 693 l 372 693 l 372 0 l 133 0 m 90 772 l 90 894 l 415 894 l 415 772 l 90 772 z "},"į":{"ha":425,"x_min":7,"x_max":351,"o":"m 206 -268 q 54 -233 101 -268 q 7 -128 7 -199 q 60 -28 7 -68 q 199 44 114 13 l 343 1 q 246 -47 286 -21 q 206 -101 206 -74 q 219 -142 206 -132 q 254 -151 233 -151 q 303 -137 279 -151 q 351 -100 328 -122 l 351 -232 q 297 -256 329 -243 q 206 -268 265 -268 m 86 0 l 86 693 l 339 693 l 342 0 l 86 0 m 83 790 l 83 972 l 342 972 l 342 790 l 83 790 z "},"ĩ":{"ha":422,"x_min":-58,"x_max":507,"o":"m 83 0 l 83 693 l 336 693 l 339 0 l 83 0 z "},"j":{"ha":443,"x_min":7,"x_max":360,"o":"m 7 -268 l 7 -68 q 57 -67 35 -74 q 92 -42 79 -61 q 104 7 104 -24 l 104 707 l 357 707 l 360 10 q 312 -162 360 -101 q 183 -245 264 -222 q 7 -268 103 -268 m 101 804 l 101 986 l 360 986 l 360 804 l 101 804 z "},"ȷ":{"ha":458,"x_min":4,"x_max":357,"o":"m 4 -268 l 4 -96 q 56 -90 31 -96 q 100 -66 82 -85 q 118 -11 118 -47 l 118 693 l 357 693 l 357 10 q 309 -162 357 -101 q 181 -245 261 -222 q 4 -268 100 -268 z "},"ĵ":{"ha":450,"x_min":4,"x_max":438,"o":"m 4 -268 l 4 -96 q 56 -90 31 -96 q 100 -66 82 -85 q 118 -11 118 -47 l 118 693 l 357 693 l 357 10 q 309 -162 357 -101 q 181 -245 261 -222 q 4 -268 100 -268 m 38 772 l 204 942 l 271 942 l 438 772 l 296 772 l 238 833 l 179 772 l 38 772 z "},"k":{"ha":863,"x_min":83,"x_max":828,"o":"m 281 376 l 519 707 l 825 707 l 440 272 l 281 376 m 333 0 l 83 0 l 83 972 l 338 972 l 333 0 m 483 497 l 828 0 l 511 0 l 301 324 l 483 497 z "},"ķ":{"ha":894,"x_min":121,"x_max":842,"o":"m 121 0 l 121 953 l 360 953 l 360 525 l 506 693 l 811 693 l 529 388 l 842 0 l 553 0 l 383 224 l 360 199 l 360 0 l 121 0 m 342 -269 l 342 -179 q 374 -162 363 -175 q 391 -125 386 -149 q 394 -69 396 -101 l 526 -69 q 503 -170 528 -125 q 438 -242 479 -215 q 342 -269 396 -269 z "},"ĸ":{"ha":894,"x_min":121,"x_max":842,"o":"m 121 0 l 121 693 l 360 693 l 360 525 l 506 693 l 811 693 l 529 388 l 842 0 l 553 0 l 383 224 l 360 199 l 360 0 l 121 0 z "},"l":{"ha":417,"x_min":83,"x_max":333,"o":"m 333 0 l 83 0 l 83 972 l 333 972 l 333 0 z "},"ĺ":{"ha":417,"x_min":83,"x_max":446,"o":"m 333 0 l 83 0 l 83 972 l 333 972 l 333 0 m 142 992 l 181 1147 l 446 1147 l 261 992 l 142 992 z "},"ľ":{"ha":579,"x_min":140,"x_max":639,"o":"m 140 0 l 140 957 l 379 957 l 379 0 l 140 0 m 453 757 l 453 847 q 485 865 474 851 q 502 901 497 878 q 506 957 507 925 l 638 957 q 615 856 639 901 q 549 784 590 811 q 453 757 507 757 z "},"ļ":{"ha":417,"x_min":74,"x_max":333,"o":"m 333 0 l 83 0 l 83 972 l 333 972 l 333 0 z "},"ŀ":{"ha":664,"x_min":83,"x_max":629,"o":"m 333 0 l 83 0 l 83 972 l 333 972 l 333 0 m 429 386 l 429 578 l 629 578 l 629 386 l 429 386 z "},"ḷ":{"ha":417,"x_min":83,"x_max":333,"o":"m 333 0 l 83 0 l 83 972 l 333 972 l 333 0 m 125 -221 l 125 -69 l 292 -69 l 292 -221 l 125 -221 z "},"ǉ":{"ha":860,"x_min":83,"x_max":776,"o":"m 333 0 l 83 0 l 83 972 l 333 972 l 333 0 m 424 -268 l 424 -68 q 474 -67 451 -74 q 508 -42 496 -61 q 521 7 521 -24 l 521 707 l 774 707 l 776 10 q 728 -162 776 -101 q 600 -245 681 -222 q 424 -268 519 -268 m 518 804 l 518 986 l 776 986 l 776 804 l 518 804 z "},"ḻ":{"ha":417,"x_min":3,"x_max":411,"o":"m 333 0 l 83 0 l 83 972 l 333 972 l 333 0 z "},"ł":{"ha":599,"x_min":25,"x_max":581,"o":"m 161 0 l 161 300 l 25 225 l 25 394 l 161 469 l 161 957 l 400 957 l 400 600 l 581 700 l 581 531 l 400 431 l 400 0 l 161 0 z "},"m":{"ha":1292,"x_min":83,"x_max":1208,"o":"m 772 482 l 772 0 l 519 0 l 519 421 q 512 469 519 449 q 490 501 504 489 q 453 518 475 513 q 404 524 432 524 q 359 516 378 524 q 336 501 340 508 l 336 0 l 83 0 l 83 646 q 153 673 107 658 q 256 700 199 688 q 372 721 314 713 q 478 729 431 729 q 635 708 569 729 q 737 633 701 686 q 772 482 772 579 m 525 590 q 634 660 567 629 q 776 710 701 692 q 914 729 851 729 q 1072 708 1006 729 q 1173 633 1138 686 q 1208 482 1208 579 l 1208 0 l 956 0 l 956 421 q 948 469 956 449 q 926 501 940 489 q 890 518 911 513 q 840 524 868 524 q 795 516 814 524 q 772 501 776 508 l 525 590 z "},"ṃ":{"ha":1292,"x_min":83,"x_max":1208,"o":"m 772 482 l 772 0 l 519 0 l 519 421 q 512 469 519 449 q 490 501 504 489 q 453 518 475 513 q 404 524 432 524 q 359 516 378 524 q 336 501 340 508 l 336 0 l 83 0 l 83 646 q 153 673 107 658 q 256 700 199 688 q 372 721 314 713 q 478 729 431 729 q 635 708 569 729 q 737 633 701 686 q 772 482 772 579 m 525 590 q 634 660 567 629 q 776 710 701 692 q 914 729 851 729 q 1072 708 1006 729 q 1173 633 1138 686 q 1208 482 1208 579 l 1208 0 l 956 0 l 956 421 q 948 469 956 449 q 926 501 940 489 q 890 518 911 513 q 840 524 868 524 q 795 516 814 524 q 772 501 776 508 l 525 590 m 563 -221 l 563 -69 l 729 -69 l 729 -221 l 563 -221 z "},"n":{"ha":869,"x_min":83,"x_max":786,"o":"m 83 646 q 153 673 107 658 q 256 700 199 688 q 372 721 314 713 q 478 729 431 729 q 639 708 569 729 q 747 633 708 686 q 786 482 786 579 l 786 0 l 533 0 l 533 421 q 526 469 533 449 q 503 501 518 489 q 467 518 489 513 q 418 524 446 524 q 366 516 392 524 q 336 501 340 508 l 336 0 l 83 0 l 83 646 z "},"ń":{"ha":869,"x_min":83,"x_max":786,"o":"m 83 646 q 153 673 107 658 q 256 700 199 688 q 372 721 314 713 q 478 729 431 729 q 639 708 569 729 q 747 633 708 686 q 786 482 786 579 l 786 0 l 533 0 l 533 421 q 526 469 533 449 q 503 501 518 489 q 467 518 489 513 q 418 524 446 524 q 366 516 392 524 q 336 501 340 508 l 336 0 l 83 0 l 83 646 z "},"ŉ":{"ha":899,"x_min":49,"x_max":778,"o":"m 114 0 l 114 619 q 144 633 117 621 q 217 662 171 646 q 326 690 264 678 q 458 703 388 703 q 692 625 606 703 q 778 408 778 547 l 778 0 l 539 0 l 539 446 q 533 480 539 463 q 502 510 526 497 q 422 522 478 522 q 385 520 401 522 q 353 514 368 518 l 353 0 l 114 0 m 49 722 l 49 813 q 81 830 69 817 q 98 867 93 843 q 101 922 103 890 l 233 922 q 210 822 235 867 q 144 749 186 776 q 49 722 103 722 z "},"ň":{"ha":869,"x_min":83,"x_max":786,"o":"m 83 646 q 153 673 107 658 q 256 700 199 688 q 372 721 314 713 q 478 729 431 729 q 639 708 569 729 q 747 633 708 686 q 786 482 786 579 l 786 0 l 533 0 l 533 421 q 526 469 533 449 q 503 501 518 489 q 467 518 489 513 q 418 524 446 524 q 366 516 392 524 q 336 501 340 508 l 336 0 l 83 0 l 83 646 z "},"ņ":{"ha":869,"x_min":83,"x_max":786,"o":"m 83 646 q 153 673 107 658 q 256 700 199 688 q 372 721 314 713 q 478 729 431 729 q 639 708 569 729 q 747 633 708 686 q 786 482 786 579 l 786 0 l 533 0 l 533 421 q 526 469 533 449 q 503 501 518 489 q 467 518 489 513 q 418 524 446 524 q 366 516 392 524 q 336 501 340 508 l 336 0 l 83 0 l 83 646 z "},"ṅ":{"ha":869,"x_min":83,"x_max":786,"o":"m 83 646 q 153 673 107 658 q 256 700 199 688 q 372 721 314 713 q 478 729 431 729 q 639 708 569 729 q 747 633 708 686 q 786 482 786 579 l 786 0 l 533 0 l 533 421 q 526 469 533 449 q 503 501 518 489 q 467 518 489 513 q 418 524 446 524 q 366 516 392 524 q 336 501 340 508 l 336 0 l 83 0 l 83 646 z "},"ṇ":{"ha":869,"x_min":83,"x_max":786,"o":"m 83 646 q 153 673 107 658 q 256 700 199 688 q 372 721 314 713 q 478 729 431 729 q 639 708 569 729 q 747 633 708 686 q 786 482 786 579 l 786 0 l 533 0 l 533 421 q 526 469 533 449 q 503 501 518 489 q 467 518 489 513 q 418 524 446 524 q 366 516 392 524 q 336 501 340 508 l 336 0 l 83 0 l 83 646 m 349 -221 l 349 -69 l 515 -69 l 515 -221 l 349 -221 z "},"ŋ":{"ha":888,"x_min":78,"x_max":747,"o":"m 78 0 l 78 572 q 164 629 108 599 q 287 681 219 660 q 417 703 354 703 q 583 681 508 703 q 703 607 658 660 q 747 460 747 554 l 747 0 q 718 -136 747 -83 q 638 -217 689 -189 q 523 -257 588 -246 q 386 -268 458 -268 l 386 -82 q 438 -76 413 -82 q 482 -52 464 -71 q 500 3 500 -33 l 500 374 q 490 438 500 411 q 457 477 479 464 q 397 490 435 490 q 349 478 371 490 q 325 460 328 465 l 325 0 l 78 0 z "},"ɲ":{"ha":869,"x_min":-14,"x_max":786,"o":"m 83 7 l 83 646 q 153 673 107 658 q 256 700 199 688 q 372 721 314 713 q 478 729 431 729 q 639 708 569 729 q 747 633 708 686 q 786 482 786 579 l 786 0 l 533 0 l 533 421 q 526 469 533 449 q 503 501 518 489 q 467 518 489 513 q 418 524 446 524 q 366 516 392 524 q 336 501 340 508 l 336 10 q 289 -162 336 -101 q 162 -245 242 -222 q -14 -268 82 -268 l -14 -68 q 36 -67 14 -74 q 71 -42 58 -61 q 83 7 83 -24 z "},"ǌ":{"ha":1313,"x_min":83,"x_max":1229,"o":"m 83 646 q 153 673 107 658 q 256 700 199 688 q 372 721 314 713 q 478 729 431 729 q 639 708 569 729 q 747 633 708 686 q 786 482 786 579 l 786 0 l 533 0 l 533 421 q 526 469 533 449 q 503 501 518 489 q 467 518 489 513 q 418 524 446 524 q 366 516 392 524 q 336 501 340 508 l 336 0 l 83 0 l 83 646 m 876 -268 l 876 -68 q 926 -67 904 -74 q 961 -42 949 -61 q 974 7 974 -24 l 974 707 l 1226 707 l 1229 10 q 1181 -162 1229 -101 q 1053 -245 1133 -222 q 876 -268 972 -268 m 971 804 l 971 986 l 1229 986 l 1229 804 l 971 804 z "},"ṉ":{"ha":869,"x_min":83,"x_max":786,"o":"m 83 646 q 153 673 107 658 q 256 700 199 688 q 372 721 314 713 q 478 729 431 729 q 639 708 569 729 q 747 633 708 686 q 786 482 786 579 l 786 0 l 533 0 l 533 421 q 526 469 533 449 q 503 501 518 489 q 467 518 489 513 q 418 524 446 524 q 366 516 392 524 q 336 501 340 508 l 336 0 l 83 0 l 83 646 z "},"ñ":{"ha":869,"x_min":83,"x_max":786,"o":"m 83 646 q 153 673 107 658 q 256 700 199 688 q 372 721 314 713 q 478 729 431 729 q 639 708 569 729 q 747 633 708 686 q 786 482 786 579 l 786 0 l 533 0 l 533 421 q 526 469 533 449 q 503 501 518 489 q 467 518 489 513 q 418 524 446 524 q 366 516 392 524 q 336 501 340 508 l 336 0 l 83 0 l 83 646 z "},"o":{"ha":832,"x_min":42,"x_max":790,"o":"m 414 -21 q 135 74 229 -21 q 42 358 42 168 q 135 650 42 565 q 414 735 229 735 q 619 698 535 735 q 747 578 703 661 q 790 358 790 496 q 693 74 790 168 q 414 -21 596 -21 m 414 176 q 480 195 451 176 q 524 254 508 214 q 540 358 540 294 q 524 474 540 435 q 480 526 508 513 q 414 540 451 540 q 347 526 375 540 q 306 474 319 513 q 292 358 292 435 q 323 218 292 260 q 414 176 354 176 z "},"ó":{"ha":832,"x_min":42,"x_max":790,"o":"m 414 -21 q 135 74 229 -21 q 42 358 42 168 q 135 650 42 565 q 414 735 229 735 q 619 698 535 735 q 747 578 703 661 q 790 358 790 496 q 693 74 790 168 q 414 -21 596 -21 m 414 176 q 480 195 451 176 q 524 254 508 214 q 540 358 540 294 q 524 474 540 435 q 480 526 508 513 q 414 540 451 540 q 347 526 375 540 q 306 474 319 513 q 292 358 292 435 q 323 218 292 260 q 414 176 354 176 z "},"ŏ":{"ha":832,"x_min":42,"x_max":790,"o":"m 414 -21 q 135 74 229 -21 q 42 358 42 168 q 135 650 42 565 q 414 735 229 735 q 619 698 535 735 q 747 578 703 661 q 790 358 790 496 q 693 74 790 168 q 414 -21 596 -21 m 414 176 q 480 195 451 176 q 524 254 508 214 q 540 358 540 294 q 524 474 540 435 q 480 526 508 513 q 414 540 451 540 q 347 526 375 540 q 306 474 319 513 q 292 358 292 435 q 323 218 292 260 q 414 176 354 176 z "},"ǒ":{"ha":832,"x_min":42,"x_max":790,"o":"m 414 -21 q 135 74 229 -21 q 42 358 42 168 q 135 650 42 565 q 414 735 229 735 q 619 698 535 735 q 747 578 703 661 q 790 358 790 496 q 693 74 790 168 q 414 -21 596 -21 m 414 176 q 480 195 451 176 q 524 254 508 214 q 540 358 540 294 q 524 474 540 435 q 480 526 508 513 q 414 540 451 540 q 347 526 375 540 q 306 474 319 513 q 292 358 292 435 q 323 218 292 260 q 414 176 354 176 z "},"ô":{"ha":832,"x_min":42,"x_max":790,"o":"m 414 -21 q 135 74 229 -21 q 42 358 42 168 q 135 650 42 565 q 414 735 229 735 q 619 698 535 735 q 747 578 703 661 q 790 358 790 496 q 693 74 790 168 q 414 -21 596 -21 m 414 176 q 480 195 451 176 q 524 254 508 214 q 540 358 540 294 q 524 474 540 435 q 480 526 508 513 q 414 540 451 540 q 347 526 375 540 q 306 474 319 513 q 292 358 292 435 q 323 218 292 260 q 414 176 354 176 z "},"ố":{"ha":832,"x_min":42,"x_max":908,"o":"m 414 -21 q 135 74 229 -21 q 42 358 42 168 q 135 650 42 565 q 414 735 229 735 q 619 698 535 735 q 747 578 703 661 q 790 358 790 496 q 693 74 790 168 q 414 -21 596 -21 m 414 176 q 480 195 451 176 q 524 254 508 214 q 540 358 540 294 q 524 474 540 435 q 480 526 508 513 q 414 540 451 540 q 347 526 375 540 q 306 474 319 513 q 292 358 292 435 q 323 218 292 260 q 414 176 354 176 z "},"ộ":{"ha":832,"x_min":42,"x_max":790,"o":"m 414 -21 q 135 74 229 -21 q 42 358 42 168 q 135 650 42 565 q 414 735 229 735 q 619 698 535 735 q 747 578 703 661 q 790 358 790 496 q 693 74 790 168 q 414 -21 596 -21 m 414 176 q 480 195 451 176 q 524 254 508 214 q 540 358 540 294 q 524 474 540 435 q 480 526 508 513 q 414 540 451 540 q 347 526 375 540 q 306 474 319 513 q 292 358 292 435 q 323 218 292 260 q 414 176 354 176 m 333 -221 l 333 -69 l 500 -69 l 500 -221 l 333 -221 z "},"ồ":{"ha":832,"x_min":-49,"x_max":790,"o":"m 414 -21 q 135 74 229 -21 q 42 358 42 168 q 135 650 42 565 q 414 735 229 735 q 619 698 535 735 q 747 578 703 661 q 790 358 790 496 q 693 74 790 168 q 414 -21 596 -21 m 414 176 q 480 195 451 176 q 524 254 508 214 q 540 358 540 294 q 524 474 540 435 q 480 526 508 513 q 414 540 451 540 q 347 526 375 540 q 306 474 319 513 q 292 358 292 435 q 323 218 292 260 q 414 176 354 176 z "},"ổ":{"ha":832,"x_min":42,"x_max":804,"o":"m 414 -21 q 135 74 229 -21 q 42 358 42 168 q 135 650 42 565 q 414 735 229 735 q 619 698 535 735 q 747 578 703 661 q 790 358 790 496 q 693 74 790 168 q 414 -21 596 -21 m 414 176 q 480 195 451 176 q 524 254 508 214 q 540 358 540 294 q 524 474 540 435 q 480 526 508 513 q 414 540 451 540 q 347 526 375 540 q 306 474 319 513 q 292 358 292 435 q 323 218 292 260 q 414 176 354 176 z "},"ỗ":{"ha":832,"x_min":42,"x_max":790,"o":"m 414 -21 q 135 74 229 -21 q 42 358 42 168 q 135 650 42 565 q 414 735 229 735 q 619 698 535 735 q 747 578 703 661 q 790 358 790 496 q 693 74 790 168 q 414 -21 596 -21 m 414 176 q 480 195 451 176 q 524 254 508 214 q 540 358 540 294 q 524 474 540 435 q 480 526 508 513 q 414 540 451 540 q 347 526 375 540 q 306 474 319 513 q 292 358 292 435 q 323 218 292 260 q 414 176 354 176 z "},"ȍ":{"ha":832,"x_min":42,"x_max":790,"o":"m 414 -21 q 135 74 229 -21 q 42 358 42 168 q 135 650 42 565 q 414 735 229 735 q 619 698 535 735 q 747 578 703 661 q 790 358 790 496 q 693 74 790 168 q 414 -21 596 -21 m 414 176 q 480 195 451 176 q 524 254 508 214 q 540 358 540 294 q 524 474 540 435 q 480 526 508 513 q 414 540 451 540 q 347 526 375 540 q 306 474 319 513 q 292 358 292 435 q 323 218 292 260 q 414 176 354 176 z "},"ö":{"ha":832,"x_min":42,"x_max":790,"o":"m 414 -21 q 135 74 229 -21 q 42 358 42 168 q 135 650 42 565 q 414 735 229 735 q 619 698 535 735 q 747 578 703 661 q 790 358 790 496 q 693 74 790 168 q 414 -21 596 -21 m 414 176 q 480 195 451 176 q 524 254 508 214 q 540 358 540 294 q 524 474 540 435 q 480 526 508 513 q 414 540 451 540 q 347 526 375 540 q 306 474 319 513 q 292 358 292 435 q 323 218 292 260 q 414 176 354 176 z "},"ȫ":{"ha":832,"x_min":42,"x_max":790,"o":"m 414 -21 q 135 74 229 -21 q 42 358 42 168 q 135 650 42 565 q 414 735 229 735 q 619 698 535 735 q 747 578 703 661 q 790 358 790 496 q 693 74 790 168 q 414 -21 596 -21 m 414 176 q 480 195 451 176 q 524 254 508 214 q 540 358 540 294 q 524 474 540 435 q 480 526 508 513 q 414 540 451 540 q 347 526 375 540 q 306 474 319 513 q 292 358 292 435 q 323 218 292 260 q 414 176 354 176 z "},"ȱ":{"ha":832,"x_min":42,"x_max":790,"o":"m 414 -21 q 135 74 229 -21 q 42 358 42 168 q 135 650 42 565 q 414 735 229 735 q 619 698 535 735 q 747 578 703 661 q 790 358 790 496 q 693 74 790 168 q 414 -21 596 -21 m 414 176 q 480 195 451 176 q 524 254 508 214 q 540 358 540 294 q 524 474 540 435 q 480 526 508 513 q 414 540 451 540 q 347 526 375 540 q 306 474 319 513 q 292 358 292 435 q 323 218 292 260 q 414 176 354 176 z "},"ọ":{"ha":832,"x_min":42,"x_max":790,"o":"m 414 -21 q 135 74 229 -21 q 42 358 42 168 q 135 650 42 565 q 414 735 229 735 q 619 698 535 735 q 747 578 703 661 q 790 358 790 496 q 693 74 790 168 q 414 -21 596 -21 m 414 176 q 480 195 451 176 q 524 254 508 214 q 540 358 540 294 q 524 474 540 435 q 480 526 508 513 q 414 540 451 540 q 347 526 375 540 q 306 474 319 513 q 292 358 292 435 q 323 218 292 260 q 414 176 354 176 m 333 -221 l 333 -69 l 500 -69 l 500 -221 l 333 -221 z "},"ò":{"ha":832,"x_min":42,"x_max":790,"o":"m 414 -21 q 135 74 229 -21 q 42 358 42 168 q 135 650 42 565 q 414 735 229 735 q 619 698 535 735 q 747 578 703 661 q 790 358 790 496 q 693 74 790 168 q 414 -21 596 -21 m 414 176 q 480 195 451 176 q 524 254 508 214 q 540 358 540 294 q 524 474 540 435 q 480 526 508 513 q 414 540 451 540 q 347 526 375 540 q 306 474 319 513 q 292 358 292 435 q 323 218 292 260 q 414 176 354 176 z "},"ỏ":{"ha":832,"x_min":42,"x_max":790,"o":"m 414 -21 q 135 74 229 -21 q 42 358 42 168 q 135 650 42 565 q 414 735 229 735 q 619 698 535 735 q 747 578 703 661 q 790 358 790 496 q 693 74 790 168 q 414 -21 596 -21 m 414 176 q 480 195 451 176 q 524 254 508 214 q 540 358 540 294 q 524 474 540 435 q 480 526 508 513 q 414 540 451 540 q 347 526 375 540 q 306 474 319 513 q 292 358 292 435 q 323 218 292 260 q 414 176 354 176 m 367 783 l 367 865 q 403 875 389 865 q 417 899 417 885 q 401 924 417 917 q 361 931 386 931 q 342 929 353 931 q 318 925 332 928 l 318 1015 q 353 1020 328 1018 q 415 1022 379 1022 q 501 1010 464 1022 q 561 974 539 999 q 583 908 583 949 q 560 840 583 865 q 501 815 538 815 l 501 783 l 367 783 z "},"ơ":{"ha":832,"x_min":42,"x_max":833,"o":"m 414 -21 q 135 74 229 -21 q 42 358 42 168 q 135 650 42 565 q 414 735 229 735 q 619 698 535 735 q 747 578 703 661 q 790 358 790 496 q 693 74 790 168 q 414 -21 596 -21 m 414 176 q 480 195 451 176 q 524 254 508 214 q 540 358 540 294 q 524 474 540 435 q 480 526 508 513 q 414 540 451 540 q 347 526 375 540 q 306 474 319 513 q 292 358 292 435 q 323 218 292 260 q 414 176 354 176 m 588 572 l 582 704 q 657 717 629 704 q 685 758 685 729 l 685 817 l 833 817 l 833 722 q 801 636 833 668 q 715 590 769 604 q 588 572 660 575 z "},"ớ":{"ha":832,"x_min":42,"x_max":833,"o":"m 414 -21 q 135 74 229 -21 q 42 358 42 168 q 135 650 42 565 q 414 735 229 735 q 619 698 535 735 q 747 578 703 661 q 790 358 790 496 q 693 74 790 168 q 414 -21 596 -21 m 414 176 q 480 195 451 176 q 524 254 508 214 q 540 358 540 294 q 524 474 540 435 q 480 526 508 513 q 414 540 451 540 q 347 526 375 540 q 306 474 319 513 q 292 358 292 435 q 323 218 292 260 q 414 176 354 176 m 588 572 l 582 704 q 657 717 629 704 q 685 758 685 729 l 685 817 l 833 817 l 833 722 q 801 636 833 668 q 715 590 769 604 q 588 572 660 575 z "},"ợ":{"ha":832,"x_min":42,"x_max":833,"o":"m 414 -21 q 135 74 229 -21 q 42 358 42 168 q 135 650 42 565 q 414 735 229 735 q 619 698 535 735 q 747 578 703 661 q 790 358 790 496 q 693 74 790 168 q 414 -21 596 -21 m 414 176 q 480 195 451 176 q 524 254 508 214 q 540 358 540 294 q 524 474 540 435 q 480 526 508 513 q 414 540 451 540 q 347 526 375 540 q 306 474 319 513 q 292 358 292 435 q 323 218 292 260 q 414 176 354 176 m 588 572 l 582 704 q 657 717 629 704 q 685 758 685 729 l 685 817 l 833 817 l 833 722 q 801 636 833 668 q 715 590 769 604 q 588 572 660 575 m 333 -221 l 333 -69 l 500 -69 l 500 -221 l 333 -221 z "},"ờ":{"ha":832,"x_min":42,"x_max":833,"o":"m 414 -21 q 135 74 229 -21 q 42 358 42 168 q 135 650 42 565 q 414 735 229 735 q 619 698 535 735 q 747 578 703 661 q 790 358 790 496 q 693 74 790 168 q 414 -21 596 -21 m 414 176 q 480 195 451 176 q 524 254 508 214 q 540 358 540 294 q 524 474 540 435 q 480 526 508 513 q 414 540 451 540 q 347 526 375 540 q 306 474 319 513 q 292 358 292 435 q 323 218 292 260 q 414 176 354 176 m 588 572 l 582 704 q 657 717 629 704 q 685 758 685 729 l 685 817 l 833 817 l 833 722 q 801 636 833 668 q 715 590 769 604 q 588 572 660 575 z "},"ở":{"ha":832,"x_min":42,"x_max":833,"o":"m 414 -21 q 135 74 229 -21 q 42 358 42 168 q 135 650 42 565 q 414 735 229 735 q 619 698 535 735 q 747 578 703 661 q 790 358 790 496 q 693 74 790 168 q 414 -21 596 -21 m 414 176 q 480 195 451 176 q 524 254 508 214 q 540 358 540 294 q 524 474 540 435 q 480 526 508 513 q 414 540 451 540 q 347 526 375 540 q 306 474 319 513 q 292 358 292 435 q 323 218 292 260 q 414 176 354 176 m 588 572 l 582 704 q 657 717 629 704 q 685 758 685 729 l 685 817 l 833 817 l 833 722 q 801 636 833 668 q 715 590 769 604 q 588 572 660 575 m 367 783 l 367 865 q 403 875 389 865 q 417 899 417 885 q 401 924 417 917 q 361 931 386 931 q 342 929 353 931 q 318 925 332 928 l 318 1015 q 353 1020 328 1018 q 415 1022 379 1022 q 501 1010 464 1022 q 561 974 539 999 q 583 908 583 949 q 560 840 583 865 q 501 815 538 815 l 501 783 l 367 783 z "},"ỡ":{"ha":832,"x_min":42,"x_max":833,"o":"m 414 -21 q 135 74 229 -21 q 42 358 42 168 q 135 650 42 565 q 414 735 229 735 q 619 698 535 735 q 747 578 703 661 q 790 358 790 496 q 693 74 790 168 q 414 -21 596 -21 m 414 176 q 480 195 451 176 q 524 254 508 214 q 540 358 540 294 q 524 474 540 435 q 480 526 508 513 q 414 540 451 540 q 347 526 375 540 q 306 474 319 513 q 292 358 292 435 q 323 218 292 260 q 414 176 354 176 m 588 572 l 582 704 q 657 717 629 704 q 685 758 685 729 l 685 817 l 833 817 l 833 722 q 801 636 833 668 q 715 590 769 604 q 588 572 660 575 z "},"ő":{"ha":832,"x_min":42,"x_max":790,"o":"m 414 -21 q 135 74 229 -21 q 42 358 42 168 q 135 650 42 565 q 414 735 229 735 q 619 698 535 735 q 747 578 703 661 q 790 358 790 496 q 693 74 790 168 q 414 -21 596 -21 m 414 176 q 480 195 451 176 q 524 254 508 214 q 540 358 540 294 q 524 474 540 435 q 480 526 508 513 q 414 540 451 540 q 347 526 375 540 q 306 474 319 513 q 292 358 292 435 q 323 218 292 260 q 414 176 354 176 z "},"ȏ":{"ha":832,"x_min":42,"x_max":790,"o":"m 414 -21 q 135 74 229 -21 q 42 358 42 168 q 135 650 42 565 q 414 735 229 735 q 619 698 535 735 q 747 578 703 661 q 790 358 790 496 q 693 74 790 168 q 414 -21 596 -21 m 414 176 q 480 195 451 176 q 524 254 508 214 q 540 358 540 294 q 524 474 540 435 q 480 526 508 513 q 414 540 451 540 q 347 526 375 540 q 306 474 319 513 q 292 358 292 435 q 323 218 292 260 q 414 176 354 176 z "},"ō":{"ha":832,"x_min":42,"x_max":790,"o":"m 414 -21 q 135 74 229 -21 q 42 358 42 168 q 135 650 42 565 q 414 735 229 735 q 619 698 535 735 q 747 578 703 661 q 790 358 790 496 q 693 74 790 168 q 414 -21 596 -21 m 414 176 q 480 195 451 176 q 524 254 508 214 q 540 358 540 294 q 524 474 540 435 q 480 526 508 513 q 414 540 451 540 q 347 526 375 540 q 306 474 319 513 q 292 358 292 435 q 323 218 292 260 q 414 176 354 176 z "},"ṓ":{"ha":832,"x_min":42,"x_max":790,"o":"m 414 -21 q 135 74 229 -21 q 42 358 42 168 q 135 650 42 565 q 414 735 229 735 q 619 698 535 735 q 747 578 703 661 q 790 358 790 496 q 693 74 790 168 q 414 -21 596 -21 m 414 176 q 480 195 451 176 q 524 254 508 214 q 540 358 540 294 q 524 474 540 435 q 480 526 508 513 q 414 540 451 540 q 347 526 375 540 q 306 474 319 513 q 292 358 292 435 q 323 218 292 260 q 414 176 354 176 z "},"ṑ":{"ha":832,"x_min":42,"x_max":790,"o":"m 414 -21 q 135 74 229 -21 q 42 358 42 168 q 135 650 42 565 q 414 735 229 735 q 619 698 535 735 q 747 578 703 661 q 790 358 790 496 q 693 74 790 168 q 414 -21 596 -21 m 414 176 q 480 195 451 176 q 524 254 508 214 q 540 358 540 294 q 524 474 540 435 q 480 526 508 513 q 414 540 451 540 q 347 526 375 540 q 306 474 319 513 q 292 358 292 435 q 323 218 292 260 q 414 176 354 176 z "},"ǫ":{"ha":832,"x_min":42,"x_max":790,"o":"m 414 -21 q 135 74 229 -21 q 42 358 42 168 q 135 650 42 565 q 414 735 229 735 q 619 698 535 735 q 747 578 703 661 q 790 358 790 496 q 693 74 790 168 q 414 -21 596 -21 m 414 176 q 480 195 451 176 q 524 254 508 214 q 540 358 540 294 q 524 474 540 435 q 480 526 508 513 q 414 540 451 540 q 347 526 375 540 q 306 474 319 513 q 292 358 292 435 q 323 218 292 260 q 414 176 354 176 z "},"ø":{"ha":851,"x_min":15,"x_max":833,"o":"m 238 0 l 15 0 l 610 693 l 833 693 l 238 0 m 414 -21 q 135 74 229 -21 q 42 358 42 168 q 135 650 42 565 q 414 735 229 735 q 619 698 535 735 q 747 578 703 661 q 790 358 790 496 q 693 74 790 168 q 414 -21 596 -21 m 414 176 q 480 195 451 176 q 524 254 508 214 q 540 358 540 294 q 524 474 540 435 q 480 526 508 513 q 414 540 451 540 q 347 526 375 540 q 306 474 319 513 q 292 358 292 435 q 323 218 292 260 q 414 176 354 176 z "},"ǿ":{"ha":851,"x_min":15,"x_max":833,"o":"m 238 0 l 15 0 l 610 693 l 833 693 l 238 0 m 414 -21 q 135 74 229 -21 q 42 358 42 168 q 135 650 42 565 q 414 735 229 735 q 619 698 535 735 q 747 578 703 661 q 790 358 790 496 q 693 74 790 168 q 414 -21 596 -21 m 414 176 q 480 195 451 176 q 524 254 508 214 q 540 358 540 294 q 524 474 540 435 q 480 526 508 513 q 414 540 451 540 q 347 526 375 540 q 306 474 319 513 q 292 358 292 435 q 323 218 292 260 q 414 176 354 176 z "},"õ":{"ha":832,"x_min":42,"x_max":790,"o":"m 414 -21 q 135 74 229 -21 q 42 358 42 168 q 135 650 42 565 q 414 735 229 735 q 619 698 535 735 q 747 578 703 661 q 790 358 790 496 q 693 74 790 168 q 414 -21 596 -21 m 414 176 q 480 195 451 176 q 524 254 508 214 q 540 358 540 294 q 524 474 540 435 q 480 526 508 513 q 414 540 451 540 q 347 526 375 540 q 306 474 319 513 q 292 358 292 435 q 323 218 292 260 q 414 176 354 176 z "},"ṍ":{"ha":832,"x_min":42,"x_max":790,"o":"m 414 -21 q 135 74 229 -21 q 42 358 42 168 q 135 650 42 565 q 414 735 229 735 q 619 698 535 735 q 747 578 703 661 q 790 358 790 496 q 693 74 790 168 q 414 -21 596 -21 m 414 176 q 480 195 451 176 q 524 254 508 214 q 540 358 540 294 q 524 474 540 435 q 480 526 508 513 q 414 540 451 540 q 347 526 375 540 q 306 474 319 513 q 292 358 292 435 q 323 218 292 260 q 414 176 354 176 z "},"ṏ":{"ha":832,"x_min":42,"x_max":790,"o":"m 414 -21 q 135 74 229 -21 q 42 358 42 168 q 135 650 42 565 q 414 735 229 735 q 619 698 535 735 q 747 578 703 661 q 790 358 790 496 q 693 74 790 168 q 414 -21 596 -21 m 414 176 q 480 195 451 176 q 524 254 508 214 q 540 358 540 294 q 524 474 540 435 q 480 526 508 513 q 414 540 451 540 q 347 526 375 540 q 306 474 319 513 q 292 358 292 435 q 323 218 292 260 q 414 176 354 176 z "},"ȭ":{"ha":832,"x_min":42,"x_max":790,"o":"m 414 -21 q 135 74 229 -21 q 42 358 42 168 q 135 650 42 565 q 414 735 229 735 q 619 698 535 735 q 747 578 703 661 q 790 358 790 496 q 693 74 790 168 q 414 -21 596 -21 m 414 176 q 480 195 451 176 q 524 254 508 214 q 540 358 540 294 q 524 474 540 435 q 480 526 508 513 q 414 540 451 540 q 347 526 375 540 q 306 474 319 513 q 292 358 292 435 q 323 218 292 260 q 414 176 354 176 z "},"œ":{"ha":1290,"x_min":42,"x_max":1250,"o":"m 414 -21 q 135 74 229 -21 q 42 358 42 168 q 135 650 42 565 q 414 735 229 735 q 619 698 535 735 q 747 578 703 661 q 790 358 790 496 q 693 74 790 168 q 414 -21 596 -21 m 414 176 q 480 195 451 176 q 524 254 508 214 q 540 358 540 294 q 524 474 540 435 q 480 526 508 513 q 414 540 451 540 q 347 526 375 540 q 306 474 319 513 q 292 358 292 435 q 323 218 292 260 q 414 176 354 176 m 917 -21 q 722 24 807 -21 q 590 149 638 68 q 543 339 543 231 q 638 630 543 525 q 914 735 733 735 q 1106 685 1032 735 q 1215 534 1179 635 q 1249 283 1250 433 l 722 283 l 689 432 l 1032 432 l 1006 346 q 981 505 1004 461 q 901 549 958 549 q 850 531 875 549 q 810 476 825 514 q 794 374 794 438 q 838 235 794 283 q 985 186 881 186 q 1056 196 1019 186 q 1124 217 1092 206 q 1176 235 1156 229 l 1176 25 q 1065 -7 1128 7 q 917 -21 1003 -21 z "},"p":{"ha":853,"x_min":83,"x_max":811,"o":"m 508 -21 q 451 -19 492 -21 q 364 -1 410 -17 q 286 53 318 14 l 331 131 l 331 -229 l 83 -229 l 83 549 q 110 629 83 594 q 183 688 136 664 q 296 723 231 711 q 440 735 361 735 q 638 699 556 735 q 766 581 721 664 q 811 351 811 497 q 774 158 811 242 q 670 26 738 74 q 508 -21 603 -21 m 421 176 q 498 191 467 176 q 545 245 529 206 q 561 361 561 285 q 548 456 561 419 q 506 509 535 492 q 429 526 478 526 q 348 515 365 526 q 331 486 331 504 l 331 197 q 376 182 350 188 q 421 176 403 176 z "},"þ":{"ha":842,"x_min":83,"x_max":800,"o":"m 333 -247 l 83 -247 l 83 972 l 333 972 l 333 -247 m 333 183 q 379 168 353 174 q 424 163 406 163 q 490 176 463 163 q 534 227 518 190 q 550 333 550 264 q 538 424 550 389 q 499 476 525 460 q 432 493 474 493 q 385 489 414 493 q 333 474 357 485 l 115 653 q 183 669 143 661 q 270 685 224 678 q 362 697 317 692 q 443 701 407 701 q 631 666 551 701 q 756 549 711 631 q 800 324 800 467 q 763 140 800 221 q 659 12 726 58 q 497 -35 592 -35 q 443 -33 481 -35 q 363 -15 406 -31 q 289 39 321 0 l 333 183 z "},"q":{"ha":854,"x_min":42,"x_max":771,"o":"m 428 729 q 603 710 525 729 q 726 645 681 690 q 771 519 771 600 l 771 -257 l 524 -257 l 524 144 l 565 67 q 492 1 535 19 q 413 -19 450 -17 q 360 -21 376 -21 q 125 72 208 -21 q 42 342 42 164 q 67 520 42 446 q 143 640 93 594 q 265 708 193 686 q 428 729 336 729 m 428 522 q 353 504 383 522 q 307 451 322 486 q 292 360 292 415 q 312 247 292 286 q 364 192 332 207 q 432 176 396 176 q 479 182 453 176 q 524 197 506 188 l 524 463 q 512 497 524 483 q 478 516 500 510 q 428 522 457 522 z "},"r":{"ha":625,"x_min":83,"x_max":604,"o":"m 83 0 l 83 625 q 155 670 104 646 q 269 713 206 694 q 394 731 333 731 q 532 718 483 731 q 604 686 581 706 l 604 507 q 548 517 585 513 q 469 524 511 522 q 392 526 428 526 q 336 524 356 526 l 336 0 l 83 0 z "},"ŕ":{"ha":625,"x_min":83,"x_max":604,"o":"m 83 0 l 83 625 q 155 670 104 646 q 269 713 206 694 q 394 731 333 731 q 532 718 483 731 q 604 686 581 706 l 604 507 q 548 517 585 513 q 469 524 511 522 q 392 526 428 526 q 336 524 356 526 l 336 0 l 83 0 z "},"ř":{"ha":625,"x_min":68,"x_max":604,"o":"m 83 0 l 83 625 q 155 670 104 646 q 269 713 206 694 q 394 731 333 731 q 532 718 483 731 q 604 686 581 706 l 604 507 q 548 517 585 513 q 469 524 511 522 q 392 526 428 526 q 336 524 356 526 l 336 0 l 83 0 z "},"ŗ":{"ha":625,"x_min":57,"x_max":604,"o":"m 83 0 l 83 625 q 155 670 104 646 q 269 713 206 694 q 394 731 333 731 q 532 718 483 731 q 604 686 581 706 l 604 507 q 548 517 585 513 q 469 524 511 522 q 392 526 428 526 q 336 524 356 526 l 336 0 l 83 0 z "},"ȑ":{"ha":625,"x_min":-64,"x_max":604,"o":"m 83 0 l 83 625 q 155 670 104 646 q 269 713 206 694 q 394 731 333 731 q 532 718 483 731 q 604 686 581 706 l 604 507 q 548 517 585 513 q 469 524 511 522 q 392 526 428 526 q 336 524 356 526 l 336 0 l 83 0 z "},"ȓ":{"ha":625,"x_min":71,"x_max":604,"o":"m 83 0 l 83 625 q 155 670 104 646 q 269 713 206 694 q 394 731 333 731 q 532 718 483 731 q 604 686 581 706 l 604 507 q 548 517 585 513 q 469 524 511 522 q 392 526 428 526 q 336 524 356 526 l 336 0 l 83 0 z "},"ṟ":{"ha":625,"x_min":-14,"x_max":604,"o":"m 83 0 l 83 625 q 155 670 104 646 q 269 713 206 694 q 394 731 333 731 q 532 718 483 731 q 604 686 581 706 l 604 507 q 548 517 585 513 q 469 524 511 522 q 392 526 428 526 q 336 524 356 526 l 336 0 l 83 0 z "},"s":{"ha":685,"x_min":63,"x_max":636,"o":"m 297 -21 q 167 -4 222 -21 q 69 28 113 13 l 69 242 q 129 203 92 224 q 214 167 167 182 q 313 153 261 153 q 363 165 353 153 q 374 190 374 176 q 353 219 374 207 q 299 239 332 231 q 228 253 265 247 q 167 273 197 258 q 114 314 138 288 q 76 379 90 340 q 63 469 63 418 q 91 592 63 543 q 166 669 119 640 q 266 711 213 699 q 368 722 319 724 q 518 702 465 718 q 610 658 571 686 l 611 471 q 517 521 567 496 q 407 546 468 546 q 341 532 356 546 q 326 499 326 518 q 340 466 326 478 q 374 447 353 454 q 422 433 396 440 q 494 415 457 425 q 563 382 531 404 q 616 320 596 360 q 636 214 636 281 q 587 74 633 125 q 464 1 540 22 q 297 -21 388 -21 z "},"ś":{"ha":685,"x_min":63,"x_max":636,"o":"m 297 -21 q 167 -4 222 -21 q 69 28 113 13 l 69 242 q 129 203 92 224 q 214 167 167 182 q 313 153 261 153 q 363 165 353 153 q 374 190 374 176 q 353 219 374 207 q 299 239 332 231 q 228 253 265 247 q 167 273 197 258 q 114 314 138 288 q 76 379 90 340 q 63 469 63 418 q 91 592 63 543 q 166 669 119 640 q 266 711 213 699 q 368 722 319 724 q 518 702 465 718 q 610 658 571 686 l 611 471 q 517 521 567 496 q 407 546 468 546 q 341 532 356 546 q 326 499 326 518 q 340 466 326 478 q 374 447 353 454 q 422 433 396 440 q 494 415 457 425 q 563 382 531 404 q 616 320 596 360 q 636 214 636 281 q 587 74 633 125 q 464 1 540 22 q 297 -21 388 -21 z "},"ṥ":{"ha":685,"x_min":63,"x_max":636,"o":"m 297 -21 q 167 -4 222 -21 q 69 28 113 13 l 69 242 q 129 203 92 224 q 214 167 167 182 q 313 153 261 153 q 363 165 353 153 q 374 190 374 176 q 353 219 374 207 q 299 239 332 231 q 228 253 265 247 q 167 273 197 258 q 114 314 138 288 q 76 379 90 340 q 63 469 63 418 q 91 592 63 543 q 166 669 119 640 q 266 711 213 699 q 368 722 319 724 q 518 702 465 718 q 610 658 571 686 l 611 471 q 517 521 567 496 q 407 546 468 546 q 341 532 356 546 q 326 499 326 518 q 340 466 326 478 q 374 447 353 454 q 422 433 396 440 q 494 415 457 425 q 563 382 531 404 q 616 320 596 360 q 636 214 636 281 q 587 74 633 125 q 464 1 540 22 q 297 -21 388 -21 z "},"š":{"ha":685,"x_min":63,"x_max":636,"o":"m 297 -21 q 167 -4 222 -21 q 69 28 113 13 l 69 242 q 129 203 92 224 q 214 167 167 182 q 313 153 261 153 q 363 165 353 153 q 374 190 374 176 q 353 219 374 207 q 299 239 332 231 q 228 253 265 247 q 167 273 197 258 q 114 314 138 288 q 76 379 90 340 q 63 469 63 418 q 91 592 63 543 q 166 669 119 640 q 266 711 213 699 q 368 722 319 724 q 518 702 465 718 q 610 658 571 686 l 611 471 q 517 521 567 496 q 407 546 468 546 q 341 532 356 546 q 326 499 326 518 q 340 466 326 478 q 374 447 353 454 q 422 433 396 440 q 494 415 457 425 q 563 382 531 404 q 616 320 596 360 q 636 214 636 281 q 587 74 633 125 q 464 1 540 22 q 297 -21 388 -21 z "},"ṧ":{"ha":685,"x_min":63,"x_max":636,"o":"m 297 -21 q 167 -4 222 -21 q 69 28 113 13 l 69 242 q 129 203 92 224 q 214 167 167 182 q 313 153 261 153 q 363 165 353 153 q 374 190 374 176 q 353 219 374 207 q 299 239 332 231 q 228 253 265 247 q 167 273 197 258 q 114 314 138 288 q 76 379 90 340 q 63 469 63 418 q 91 592 63 543 q 166 669 119 640 q 266 711 213 699 q 368 722 319 724 q 518 702 465 718 q 610 658 571 686 l 611 471 q 517 521 567 496 q 407 546 468 546 q 341 532 356 546 q 326 499 326 518 q 340 466 326 478 q 374 447 353 454 q 422 433 396 440 q 494 415 457 425 q 563 382 531 404 q 616 320 596 360 q 636 214 636 281 q 587 74 633 125 q 464 1 540 22 q 297 -21 388 -21 z "},"ş":{"ha":685,"x_min":63,"x_max":636,"o":"m 297 -21 q 167 -4 222 -21 q 69 28 113 13 l 69 242 q 129 203 92 224 q 214 167 167 182 q 313 153 261 153 q 363 165 353 153 q 374 190 374 176 q 353 219 374 207 q 299 239 332 231 q 228 253 265 247 q 167 273 197 258 q 114 314 138 288 q 76 379 90 340 q 63 469 63 418 q 91 592 63 543 q 166 669 119 640 q 266 711 213 699 q 368 722 319 724 q 518 702 465 718 q 610 658 571 686 l 611 471 q 517 521 567 496 q 407 546 468 546 q 341 532 356 546 q 326 499 326 518 q 340 466 326 478 q 374 447 353 454 q 422 433 396 440 q 494 415 457 425 q 563 382 531 404 q 616 320 596 360 q 636 214 636 281 q 587 74 633 125 q 464 1 540 22 q 297 -21 388 -21 z "},"ŝ":{"ha":685,"x_min":63,"x_max":636,"o":"m 297 -21 q 167 -4 222 -21 q 69 28 113 13 l 69 242 q 129 203 92 224 q 214 167 167 182 q 313 153 261 153 q 363 165 353 153 q 374 190 374 176 q 353 219 374 207 q 299 239 332 231 q 228 253 265 247 q 167 273 197 258 q 114 314 138 288 q 76 379 90 340 q 63 469 63 418 q 91 592 63 543 q 166 669 119 640 q 266 711 213 699 q 368 722 319 724 q 518 702 465 718 q 610 658 571 686 l 611 471 q 517 521 567 496 q 407 546 468 546 q 341 532 356 546 q 326 499 326 518 q 340 466 326 478 q 374 447 353 454 q 422 433 396 440 q 494 415 457 425 q 563 382 531 404 q 616 320 596 360 q 636 214 636 281 q 587 74 633 125 q 464 1 540 22 q 297 -21 388 -21 z "},"ș":{"ha":685,"x_min":63,"x_max":636,"o":"m 297 -21 q 167 -4 222 -21 q 69 28 113 13 l 69 242 q 129 203 92 224 q 214 167 167 182 q 313 153 261 153 q 363 165 353 153 q 374 190 374 176 q 353 219 374 207 q 299 239 332 231 q 228 253 265 247 q 167 273 197 258 q 114 314 138 288 q 76 379 90 340 q 63 469 63 418 q 91 592 63 543 q 166 669 119 640 q 266 711 213 699 q 368 722 319 724 q 518 702 465 718 q 610 658 571 686 l 611 471 q 517 521 567 496 q 407 546 468 546 q 341 532 356 546 q 326 499 326 518 q 340 466 326 478 q 374 447 353 454 q 422 433 396 440 q 494 415 457 425 q 563 382 531 404 q 616 320 596 360 q 636 214 636 281 q 587 74 633 125 q 464 1 540 22 q 297 -21 388 -21 z "},"ṡ":{"ha":685,"x_min":63,"x_max":636,"o":"m 297 -21 q 167 -4 222 -21 q 69 28 113 13 l 69 242 q 129 203 92 224 q 214 167 167 182 q 313 153 261 153 q 363 165 353 153 q 374 190 374 176 q 353 219 374 207 q 299 239 332 231 q 228 253 265 247 q 167 273 197 258 q 114 314 138 288 q 76 379 90 340 q 63 469 63 418 q 91 592 63 543 q 166 669 119 640 q 266 711 213 699 q 368 722 319 724 q 518 702 465 718 q 610 658 571 686 l 611 471 q 517 521 567 496 q 407 546 468 546 q 341 532 356 546 q 326 499 326 518 q 340 466 326 478 q 374 447 353 454 q 422 433 396 440 q 494 415 457 425 q 563 382 531 404 q 616 320 596 360 q 636 214 636 281 q 587 74 633 125 q 464 1 540 22 q 297 -21 388 -21 z "},"ṣ":{"ha":685,"x_min":63,"x_max":636,"o":"m 297 -21 q 167 -4 222 -21 q 69 28 113 13 l 69 242 q 129 203 92 224 q 214 167 167 182 q 313 153 261 153 q 363 165 353 153 q 374 190 374 176 q 353 219 374 207 q 299 239 332 231 q 228 253 265 247 q 167 273 197 258 q 114 314 138 288 q 76 379 90 340 q 63 469 63 418 q 91 592 63 543 q 166 669 119 640 q 266 711 213 699 q 368 722 319 724 q 518 702 465 718 q 610 658 571 686 l 611 471 q 517 521 567 496 q 407 546 468 546 q 341 532 356 546 q 326 499 326 518 q 340 466 326 478 q 374 447 353 454 q 422 433 396 440 q 494 415 457 425 q 563 382 531 404 q 616 320 596 360 q 636 214 636 281 q 587 74 633 125 q 464 1 540 22 q 297 -21 388 -21 m 238 -221 l 238 -69 l 404 -69 l 404 -221 l 238 -221 z "},"ṩ":{"ha":685,"x_min":63,"x_max":636,"o":"m 297 -21 q 167 -4 222 -21 q 69 28 113 13 l 69 242 q 129 203 92 224 q 214 167 167 182 q 313 153 261 153 q 363 165 353 153 q 374 190 374 176 q 353 219 374 207 q 299 239 332 231 q 228 253 265 247 q 167 273 197 258 q 114 314 138 288 q 76 379 90 340 q 63 469 63 418 q 91 592 63 543 q 166 669 119 640 q 266 711 213 699 q 368 722 319 724 q 518 702 465 718 q 610 658 571 686 l 611 471 q 517 521 567 496 q 407 546 468 546 q 341 532 356 546 q 326 499 326 518 q 340 466 326 478 q 374 447 353 454 q 422 433 396 440 q 494 415 457 425 q 563 382 531 404 q 616 320 596 360 q 636 214 636 281 q 587 74 633 125 q 464 1 540 22 q 297 -21 388 -21 m 238 -221 l 238 -69 l 404 -69 l 404 -221 l 238 -221 z "},"ß":{"ha":911,"x_min":83,"x_max":869,"o":"m 83 0 l 83 614 q 126 802 83 719 q 251 933 169 885 q 450 981 333 981 q 656 949 569 981 q 788 867 742 918 q 835 753 835 815 q 815 667 835 703 q 765 605 794 631 q 705 565 735 579 q 654 543 675 550 q 751 501 701 529 q 835 417 801 472 q 869 269 869 363 q 836 122 869 188 q 737 18 803 57 q 572 -22 671 -21 q 489 -18 533 -24 q 394 1 444 -12 l 394 203 q 465 172 432 181 q 525 163 499 163 q 591 192 567 163 q 615 279 615 222 q 594 353 615 328 q 538 388 572 378 q 464 399 503 397 l 464 599 q 542 619 513 599 q 572 686 572 639 q 560 731 572 711 q 525 762 549 750 q 467 774 501 774 q 374 734 411 774 q 338 617 338 694 l 338 0 l 83 0 z "},"t":{"ha":603,"x_min":35,"x_max":540,"o":"m 401 -35 q 194 28 258 -35 q 129 204 129 90 l 129 519 l 35 519 l 35 707 l 129 707 l 129 899 l 396 899 l 396 707 l 540 707 l 540 519 l 396 519 l 396 228 q 410 189 396 201 q 453 176 425 176 q 497 186 472 176 q 540 211 522 196 l 540 -1 q 470 -28 506 -21 q 401 -35 435 -35 z "},"ŧ":{"ha":569,"x_min":33,"x_max":511,"o":"m 372 -10 q 265 7 311 -10 q 189 55 219 24 q 143 131 158 86 q 128 233 128 176 l 128 297 l 53 297 l 53 433 l 128 433 l 128 533 l 33 533 l 33 693 l 128 693 l 128 899 l 367 899 l 367 693 l 511 693 l 511 533 l 367 533 l 367 433 l 493 433 l 493 297 l 367 297 l 367 197 q 379 172 367 183 q 410 160 392 160 q 453 167 429 160 q 511 194 478 175 l 511 24 q 441 -3 476 4 q 372 -10 406 -10 z "},"ť":{"ha":603,"x_min":35,"x_max":740,"o":"m 401 -35 q 194 28 258 -35 q 129 204 129 90 l 129 519 l 35 519 l 35 707 l 129 707 l 129 899 l 396 899 l 396 707 l 540 707 l 540 519 l 396 519 l 396 228 q 410 189 396 201 q 453 176 425 176 q 497 186 472 176 q 540 211 522 196 l 540 -1 q 470 -28 506 -21 q 401 -35 435 -35 z "},"ţ":{"ha":603,"x_min":35,"x_max":540,"o":"m 401 -35 q 194 28 258 -35 q 129 204 129 90 l 129 519 l 35 519 l 35 707 l 129 707 l 129 899 l 396 899 l 396 707 l 540 707 l 540 519 l 396 519 l 396 228 q 410 189 396 201 q 453 176 425 176 q 497 186 472 176 q 540 211 522 196 l 540 -1 q 470 -28 506 -21 q 401 -35 435 -35 z "},"ẗ":{"ha":603,"x_min":22,"x_max":540,"o":"m 401 -35 q 194 28 258 -35 q 129 204 129 90 l 129 519 l 35 519 l 35 707 l 129 707 l 129 899 l 396 899 l 396 707 l 540 707 l 540 519 l 396 519 l 396 228 q 410 189 396 201 q 453 176 425 176 q 497 186 472 176 q 540 211 522 196 l 540 -1 q 470 -28 506 -21 q 401 -35 435 -35 z "},"ṭ":{"ha":603,"x_min":35,"x_max":540,"o":"m 401 -35 q 194 28 258 -35 q 129 204 129 90 l 129 519 l 35 519 l 35 707 l 129 707 l 129 899 l 396 899 l 396 707 l 540 707 l 540 519 l 396 519 l 396 228 q 410 189 396 201 q 453 176 425 176 q 497 186 472 176 q 540 211 522 196 l 540 -1 q 470 -28 506 -21 q 401 -35 435 -35 m 218 -221 l 218 -69 l 385 -69 l 385 -221 l 218 -221 z "},"ṯ":{"ha":603,"x_min":35,"x_max":540,"o":"m 401 -35 q 194 28 258 -35 q 129 204 129 90 l 129 519 l 35 519 l 35 707 l 129 707 l 129 899 l 396 899 l 396 707 l 540 707 l 540 519 l 396 519 l 396 228 q 410 189 396 201 q 453 176 425 176 q 497 186 472 176 q 540 211 522 196 l 540 -1 q 470 -28 506 -21 q 401 -35 435 -35 z "},"u":{"ha":849,"x_min":83,"x_max":765,"o":"m 432 -21 q 252 9 331 -21 q 128 103 174 39 q 83 274 83 168 l 83 707 l 336 707 l 336 289 q 359 213 336 239 q 433 188 382 188 q 508 213 486 188 q 531 289 531 239 l 531 707 l 765 707 l 765 274 q 675 48 765 117 q 432 -21 585 -21 z "},"ú":{"ha":849,"x_min":83,"x_max":765,"o":"m 432 -21 q 252 9 331 -21 q 128 103 174 39 q 83 274 83 168 l 83 707 l 336 707 l 336 289 q 359 213 336 239 q 433 188 382 188 q 508 213 486 188 q 531 289 531 239 l 531 707 l 765 707 l 765 274 q 675 48 765 117 q 432 -21 585 -21 z "},"ŭ":{"ha":849,"x_min":83,"x_max":765,"o":"m 432 -21 q 252 9 331 -21 q 128 103 174 39 q 83 274 83 168 l 83 707 l 336 707 l 336 289 q 359 213 336 239 q 433 188 382 188 q 508 213 486 188 q 531 289 531 239 l 531 707 l 765 707 l 765 274 q 675 48 765 117 q 432 -21 585 -21 z "},"ǔ":{"ha":849,"x_min":83,"x_max":765,"o":"m 432 -21 q 252 9 331 -21 q 128 103 174 39 q 83 274 83 168 l 83 707 l 336 707 l 336 289 q 359 213 336 239 q 433 188 382 188 q 508 213 486 188 q 531 289 531 239 l 531 707 l 765 707 l 765 274 q 675 48 765 117 q 432 -21 585 -21 z "},"û":{"ha":849,"x_min":83,"x_max":765,"o":"m 432 -21 q 252 9 331 -21 q 128 103 174 39 q 83 274 83 168 l 83 707 l 336 707 l 336 289 q 359 213 336 239 q 433 188 382 188 q 508 213 486 188 q 531 289 531 239 l 531 707 l 765 707 l 765 274 q 675 48 765 117 q 432 -21 585 -21 z "},"ȕ":{"ha":849,"x_min":83,"x_max":765,"o":"m 432 -21 q 252 9 331 -21 q 128 103 174 39 q 83 274 83 168 l 83 707 l 336 707 l 336 289 q 359 213 336 239 q 433 188 382 188 q 508 213 486 188 q 531 289 531 239 l 531 707 l 765 707 l 765 274 q 675 48 765 117 q 432 -21 585 -21 z "},"ü":{"ha":849,"x_min":83,"x_max":765,"o":"m 432 -21 q 252 9 331 -21 q 128 103 174 39 q 83 274 83 168 l 83 707 l 336 707 l 336 289 q 359 213 336 239 q 433 188 382 188 q 508 213 486 188 q 531 289 531 239 l 531 707 l 765 707 l 765 274 q 675 48 765 117 q 432 -21 585 -21 z "},"ụ":{"ha":861,"x_min":117,"x_max":761,"o":"m 439 -10 q 203 65 290 -10 q 117 313 117 140 l 117 693 l 356 693 l 356 271 q 375 195 356 221 q 439 169 394 169 q 503 195 483 169 q 522 271 522 221 l 522 693 l 761 693 l 761 313 q 674 65 761 140 q 439 -10 588 -10 m 356 -221 l 356 -69 l 522 -69 l 522 -221 l 356 -221 z "},"ù":{"ha":849,"x_min":83,"x_max":765,"o":"m 432 -21 q 252 9 331 -21 q 128 103 174 39 q 83 274 83 168 l 83 707 l 336 707 l 336 289 q 359 213 336 239 q 433 188 382 188 q 508 213 486 188 q 531 289 531 239 l 531 707 l 765 707 l 765 274 q 675 48 765 117 q 432 -21 585 -21 z "},"ủ":{"ha":861,"x_min":117,"x_max":761,"o":"m 439 -10 q 203 65 290 -10 q 117 313 117 140 l 117 693 l 356 693 l 356 271 q 375 195 356 221 q 439 169 394 169 q 503 195 483 169 q 522 271 522 221 l 522 693 l 761 693 l 761 313 q 674 65 761 140 q 439 -10 588 -10 m 400 772 l 400 854 q 424 858 411 854 q 436 876 436 863 q 423 900 436 894 q 394 906 410 906 q 376 904 386 906 q 351 900 365 903 l 351 974 q 383 978 361 976 q 421 981 406 981 q 485 969 456 981 q 531 936 514 958 q 549 881 549 914 q 532 831 549 847 q 498 810 515 815 q 481 804 481 804 l 481 772 l 400 772 z "},"ư":{"ha":951,"x_min":83,"x_max":926,"o":"m 432 -21 q 252 9 331 -21 q 128 103 174 39 q 83 274 83 168 l 83 707 l 336 707 l 336 289 q 359 213 336 239 q 433 188 382 188 q 508 213 486 188 q 531 289 531 239 l 531 707 l 765 707 l 765 274 q 675 48 765 117 q 432 -21 585 -21 m 681 571 l 675 703 q 750 715 722 703 q 778 757 778 728 l 778 815 l 926 815 l 926 721 q 894 635 926 667 q 808 588 863 603 q 681 571 753 574 z "},"ứ":{"ha":951,"x_min":83,"x_max":926,"o":"m 432 -21 q 252 9 331 -21 q 128 103 174 39 q 83 274 83 168 l 83 707 l 336 707 l 336 289 q 359 213 336 239 q 433 188 382 188 q 508 213 486 188 q 531 289 531 239 l 531 707 l 765 707 l 765 274 q 675 48 765 117 q 432 -21 585 -21 m 681 571 l 675 703 q 750 715 722 703 q 778 757 778 728 l 778 815 l 926 815 l 926 721 q 894 635 926 667 q 808 588 863 603 q 681 571 753 574 z "},"ự":{"ha":951,"x_min":83,"x_max":926,"o":"m 432 -21 q 252 9 331 -21 q 128 103 174 39 q 83 274 83 168 l 83 707 l 336 707 l 336 289 q 359 213 336 239 q 433 188 382 188 q 508 213 486 188 q 531 289 531 239 l 531 707 l 765 707 l 765 274 q 675 48 765 117 q 432 -21 585 -21 m 681 571 l 675 703 q 750 715 722 703 q 778 757 778 728 l 778 815 l 926 815 l 926 721 q 894 635 926 667 q 808 588 863 603 q 681 571 753 574 m 342 -221 l 342 -69 l 508 -69 l 508 -221 l 342 -221 z "},"ừ":{"ha":951,"x_min":83,"x_max":926,"o":"m 432 -21 q 252 9 331 -21 q 128 103 174 39 q 83 274 83 168 l 83 707 l 336 707 l 336 289 q 359 213 336 239 q 433 188 382 188 q 508 213 486 188 q 531 289 531 239 l 531 707 l 765 707 l 765 274 q 675 48 765 117 q 432 -21 585 -21 m 681 571 l 675 703 q 750 715 722 703 q 778 757 778 728 l 778 815 l 926 815 l 926 721 q 894 635 926 667 q 808 588 863 603 q 681 571 753 574 z "},"ử":{"ha":951,"x_min":83,"x_max":926,"o":"m 432 -21 q 252 9 331 -21 q 128 103 174 39 q 83 274 83 168 l 83 707 l 336 707 l 336 289 q 359 213 336 239 q 433 188 382 188 q 508 213 486 188 q 531 289 531 239 l 531 707 l 765 707 l 765 274 q 675 48 765 117 q 432 -21 585 -21 m 681 571 l 675 703 q 750 715 722 703 q 778 757 778 728 l 778 815 l 926 815 l 926 721 q 894 635 926 667 q 808 588 863 603 q 681 571 753 574 m 389 769 l 389 851 q 425 861 411 851 q 439 885 439 871 q 424 910 439 903 q 383 917 408 917 q 365 915 375 917 q 340 911 354 914 l 340 1001 q 376 1006 350 1004 q 438 1008 401 1008 q 524 997 486 1008 q 583 960 561 985 q 606 894 606 935 q 583 826 606 851 q 524 801 560 801 l 524 769 l 389 769 z "},"ữ":{"ha":951,"x_min":83,"x_max":926,"o":"m 432 -21 q 252 9 331 -21 q 128 103 174 39 q 83 274 83 168 l 83 707 l 336 707 l 336 289 q 359 213 336 239 q 433 188 382 188 q 508 213 486 188 q 531 289 531 239 l 531 707 l 765 707 l 765 274 q 675 48 765 117 q 432 -21 585 -21 m 681 571 l 675 703 q 750 715 722 703 q 778 757 778 728 l 778 815 l 926 815 l 926 721 q 894 635 926 667 q 808 588 863 603 q 681 571 753 574 z "},"ű":{"ha":849,"x_min":83,"x_max":765,"o":"m 432 -21 q 252 9 331 -21 q 128 103 174 39 q 83 274 83 168 l 83 707 l 336 707 l 336 289 q 359 213 336 239 q 433 188 382 188 q 508 213 486 188 q 531 289 531 239 l 531 707 l 765 707 l 765 274 q 675 48 765 117 q 432 -21 585 -21 z "},"ȗ":{"ha":849,"x_min":83,"x_max":765,"o":"m 432 -21 q 252 9 331 -21 q 128 103 174 39 q 83 274 83 168 l 83 707 l 336 707 l 336 289 q 359 213 336 239 q 433 188 382 188 q 508 213 486 188 q 531 289 531 239 l 531 707 l 765 707 l 765 274 q 675 48 765 117 q 432 -21 585 -21 z "},"ū":{"ha":849,"x_min":83,"x_max":765,"o":"m 432 -21 q 252 9 331 -21 q 128 103 174 39 q 83 274 83 168 l 83 707 l 336 707 l 336 289 q 359 213 336 239 q 433 188 382 188 q 508 213 486 188 q 531 289 531 239 l 531 707 l 765 707 l 765 274 q 675 48 765 117 q 432 -21 585 -21 z "},"ṻ":{"ha":849,"x_min":83,"x_max":765,"o":"m 432 -21 q 252 9 331 -21 q 128 103 174 39 q 83 274 83 168 l 83 707 l 336 707 l 336 289 q 359 213 336 239 q 433 188 382 188 q 508 213 486 188 q 531 289 531 239 l 531 707 l 765 707 l 765 274 q 675 48 765 117 q 432 -21 585 -21 z "},"ț":{"ha":569,"x_min":33,"x_max":511,"o":"m 372 -10 q 265 7 311 -10 q 189 55 219 24 q 143 131 158 86 q 128 233 128 176 l 128 533 l 33 533 l 33 693 l 128 693 l 128 899 l 367 899 l 367 693 l 511 693 l 511 533 l 367 533 l 367 197 q 379 172 367 183 q 410 160 392 160 q 453 167 429 160 q 511 194 478 175 l 511 24 q 441 -3 476 4 q 372 -10 406 -10 m 206 -269 l 206 -179 q 238 -162 226 -175 q 255 -125 250 -149 q 258 -69 260 -101 l 390 -69 q 367 -170 392 -125 q 301 -242 343 -215 q 206 -269 260 -269 z "},"ų":{"ha":849,"x_min":83,"x_max":765,"o":"m 432 -21 q 252 9 331 -21 q 128 103 174 39 q 83 274 83 168 l 83 707 l 336 707 l 336 289 q 359 213 336 239 q 433 188 382 188 q 508 213 486 188 q 531 289 531 239 l 531 707 l 765 707 l 765 274 q 675 48 765 117 q 432 -21 585 -21 z "},"ů":{"ha":849,"x_min":83,"x_max":765,"o":"m 432 -21 q 252 9 331 -21 q 128 103 174 39 q 83 274 83 168 l 83 707 l 336 707 l 336 289 q 359 213 336 239 q 433 188 382 188 q 508 213 486 188 q 531 289 531 239 l 531 707 l 765 707 l 765 274 q 675 48 765 117 q 432 -21 585 -21 z "},"ũ":{"ha":849,"x_min":83,"x_max":765,"o":"m 432 -21 q 252 9 331 -21 q 128 103 174 39 q 83 274 83 168 l 83 707 l 336 707 l 336 289 q 359 213 336 239 q 433 188 382 188 q 508 213 486 188 q 531 289 531 239 l 531 707 l 765 707 l 765 274 q 675 48 765 117 q 432 -21 585 -21 z "},"ṹ":{"ha":849,"x_min":83,"x_max":765,"o":"m 432 -21 q 252 9 331 -21 q 128 103 174 39 q 83 274 83 168 l 83 707 l 336 707 l 336 289 q 359 213 336 239 q 433 188 382 188 q 508 213 486 188 q 531 289 531 239 l 531 707 l 765 707 l 765 274 q 675 48 765 117 q 432 -21 585 -21 z "},"v":{"ha":894,"x_min":28,"x_max":867,"o":"m 321 0 l 28 707 l 301 707 l 497 193 l 435 193 l 597 707 l 867 707 l 574 0 l 321 0 z "},"w":{"ha":1167,"x_min":28,"x_max":1139,"o":"m 265 0 l 28 707 l 301 707 l 442 161 l 360 161 l 494 707 l 672 707 l 801 178 l 735 178 l 868 707 l 1139 707 l 903 0 l 679 0 l 560 386 l 603 386 l 489 0 l 265 0 z "},"ẃ":{"ha":1167,"x_min":28,"x_max":1139,"o":"m 265 0 l 28 707 l 301 707 l 442 161 l 360 161 l 494 707 l 672 707 l 801 178 l 735 178 l 868 707 l 1139 707 l 903 0 l 679 0 l 560 386 l 603 386 l 489 0 l 265 0 z "},"ŵ":{"ha":1167,"x_min":28,"x_max":1139,"o":"m 265 0 l 28 707 l 301 707 l 442 161 l 360 161 l 494 707 l 672 707 l 801 178 l 735 178 l 868 707 l 1139 707 l 903 0 l 679 0 l 560 386 l 603 386 l 489 0 l 265 0 z "},"ẅ":{"ha":1167,"x_min":28,"x_max":1139,"o":"m 265 0 l 28 707 l 301 707 l 442 161 l 360 161 l 494 707 l 672 707 l 801 178 l 735 178 l 868 707 l 1139 707 l 903 0 l 679 0 l 560 386 l 603 386 l 489 0 l 265 0 z "},"ẁ":{"ha":1167,"x_min":28,"x_max":1139,"o":"m 265 0 l 28 707 l 301 707 l 442 161 l 360 161 l 494 707 l 672 707 l 801 178 l 735 178 l 868 707 l 1139 707 l 903 0 l 679 0 l 560 386 l 603 386 l 489 0 l 265 0 z "},"x":{"ha":861,"x_min":21,"x_max":840,"o":"m 461 271 l 285 0 l 21 0 l 351 426 l 461 271 m 824 0 l 528 0 l 28 707 l 322 707 l 824 0 m 393 426 l 576 707 l 840 707 l 503 271 l 393 426 z "},"y":{"ha":856,"x_min":28,"x_max":828,"o":"m 269 -274 q 189 -266 229 -274 q 118 -244 149 -258 l 118 -43 q 168 -56 147 -53 q 210 -60 189 -60 q 263 -48 239 -60 q 303 -1 288 -36 q 325 104 319 35 l 332 -46 l 28 707 l 317 707 l 447 256 l 426 256 l 554 707 l 828 707 l 561 14 q 475 -153 521 -90 q 378 -245 429 -217 q 269 -274 326 -274 z "},"ý":{"ha":856,"x_min":28,"x_max":828,"o":"m 269 -274 q 189 -266 229 -274 q 118 -244 149 -258 l 118 -43 q 168 -56 147 -53 q 210 -60 189 -60 q 263 -48 239 -60 q 303 -1 288 -36 q 325 104 319 35 l 332 -46 l 28 707 l 317 707 l 447 256 l 426 256 l 554 707 l 828 707 l 561 14 q 475 -153 521 -90 q 378 -245 429 -217 q 269 -274 326 -274 z "},"ŷ":{"ha":856,"x_min":28,"x_max":828,"o":"m 269 -274 q 189 -266 229 -274 q 118 -244 149 -258 l 118 -43 q 168 -56 147 -53 q 210 -60 189 -60 q 263 -48 239 -60 q 303 -1 288 -36 q 325 104 319 35 l 332 -46 l 28 707 l 317 707 l 447 256 l 426 256 l 554 707 l 828 707 l 561 14 q 475 -153 521 -90 q 378 -245 429 -217 q 269 -274 326 -274 z "},"ÿ":{"ha":856,"x_min":28,"x_max":828,"o":"m 269 -274 q 189 -266 229 -274 q 118 -244 149 -258 l 118 -43 q 168 -56 147 -53 q 210 -60 189 -60 q 263 -48 239 -60 q 303 -1 288 -36 q 325 104 319 35 l 332 -46 l 28 707 l 317 707 l 447 256 l 426 256 l 554 707 l 828 707 l 561 14 q 475 -153 521 -90 q 378 -245 429 -217 q 269 -274 326 -274 z "},"ẏ":{"ha":856,"x_min":28,"x_max":828,"o":"m 269 -274 q 189 -266 229 -274 q 118 -244 149 -258 l 118 -43 q 168 -56 147 -53 q 210 -60 189 -60 q 263 -48 239 -60 q 303 -1 288 -36 q 325 104 319 35 l 332 -46 l 28 707 l 317 707 l 447 256 l 426 256 l 554 707 l 828 707 l 561 14 q 475 -153 521 -90 q 378 -245 429 -217 q 269 -274 326 -274 z "},"ỵ":{"ha":856,"x_min":28,"x_max":828,"o":"m 269 -274 q 189 -266 229 -274 q 118 -244 149 -258 l 118 -43 q 168 -56 147 -53 q 210 -60 189 -60 q 263 -48 239 -60 q 303 -1 288 -36 q 325 104 319 35 l 332 -46 l 28 707 l 317 707 l 447 256 l 426 256 l 554 707 l 828 707 l 561 14 q 475 -153 521 -90 q 378 -245 429 -217 q 269 -274 326 -274 m 604 -221 l 604 -69 l 771 -69 l 771 -221 l 604 -221 z "},"ỳ":{"ha":856,"x_min":28,"x_max":828,"o":"m 269 -274 q 189 -266 229 -274 q 118 -244 149 -258 l 118 -43 q 168 -56 147 -53 q 210 -60 189 -60 q 263 -48 239 -60 q 303 -1 288 -36 q 325 104 319 35 l 332 -46 l 28 707 l 317 707 l 447 256 l 426 256 l 554 707 l 828 707 l 561 14 q 475 -153 521 -90 q 378 -245 429 -217 q 269 -274 326 -274 z "},"ỷ":{"ha":856,"x_min":28,"x_max":828,"o":"m 269 -274 q 189 -266 229 -274 q 118 -244 149 -258 l 118 -43 q 168 -56 147 -53 q 210 -60 189 -60 q 263 -48 239 -60 q 303 -1 288 -36 q 325 104 319 35 l 332 -46 l 28 707 l 317 707 l 447 256 l 426 256 l 554 707 l 828 707 l 561 14 q 475 -153 521 -90 q 378 -245 429 -217 q 269 -274 326 -274 m 378 742 l 378 824 q 414 833 400 824 q 428 857 428 843 q 413 882 428 875 q 372 889 397 889 q 353 888 364 889 q 329 883 343 886 l 329 974 q 365 978 339 976 q 426 981 390 981 q 513 969 475 981 q 572 932 550 957 q 594 867 594 907 q 572 799 594 824 q 513 774 549 774 l 513 742 l 378 742 z "},"ȳ":{"ha":856,"x_min":28,"x_max":828,"o":"m 269 -274 q 189 -266 229 -274 q 118 -244 149 -258 l 118 -43 q 168 -56 147 -53 q 210 -60 189 -60 q 263 -48 239 -60 q 303 -1 288 -36 q 325 104 319 35 l 332 -46 l 28 707 l 317 707 l 447 256 l 426 256 l 554 707 l 828 707 l 561 14 q 475 -153 521 -90 q 378 -245 429 -217 q 269 -274 326 -274 z "},"ỹ":{"ha":856,"x_min":28,"x_max":828,"o":"m 269 -274 q 189 -266 229 -274 q 118 -244 149 -258 l 118 -43 q 168 -56 147 -53 q 210 -60 189 -60 q 263 -48 239 -60 q 303 -1 288 -36 q 325 104 319 35 l 332 -46 l 28 707 l 317 707 l 447 256 l 426 256 l 554 707 l 828 707 l 561 14 q 475 -153 521 -90 q 378 -245 429 -217 q 269 -274 326 -274 z "},"z":{"ha":706,"x_min":63,"x_max":643,"o":"m 63 0 l 63 196 l 425 571 l 444 522 l 69 522 l 69 707 l 643 707 l 643 514 l 319 133 l 310 199 l 643 199 l 643 0 l 63 0 z "},"ź":{"ha":706,"x_min":63,"x_max":643,"o":"m 63 0 l 63 196 l 425 571 l 444 522 l 69 522 l 69 707 l 643 707 l 643 514 l 319 133 l 310 199 l 643 199 l 643 0 l 63 0 z "},"ž":{"ha":706,"x_min":63,"x_max":643,"o":"m 63 0 l 63 196 l 425 571 l 444 522 l 69 522 l 69 707 l 643 707 l 643 514 l 319 133 l 310 199 l 643 199 l 643 0 l 63 0 z "},"ż":{"ha":706,"x_min":63,"x_max":643,"o":"m 63 0 l 63 196 l 425 571 l 444 522 l 69 522 l 69 707 l 643 707 l 643 514 l 319 133 l 310 199 l 643 199 l 643 0 l 63 0 z "},"ﬁ":{"ha":983,"x_min":35,"x_max":900,"o":"m 131 0 l 131 519 l 35 519 l 35 707 l 133 707 l 133 714 q 146 828 133 779 q 182 913 158 878 q 240 968 206 947 q 320 999 275 989 q 421 1008 365 1008 q 475 1004 444 1008 q 524 993 506 1000 l 524 769 q 492 801 508 789 q 444 813 476 813 q 418 808 429 813 q 400 794 407 803 q 390 774 393 786 q 386 750 386 763 l 386 707 l 524 707 l 524 519 l 383 519 l 383 0 l 131 0 m 644 0 l 644 693 l 897 693 l 900 0 l 644 0 m 642 790 l 642 972 l 900 972 l 900 790 l 642 790 z "},"ﬂ":{"ha":975,"x_min":35,"x_max":892,"o":"m 131 0 l 131 519 l 35 519 l 35 707 l 133 707 l 133 714 q 146 828 133 779 q 182 913 158 878 q 240 968 206 947 q 320 999 275 989 q 421 1008 365 1008 q 475 1004 444 1008 q 524 993 506 1000 l 524 769 q 492 801 508 789 q 444 813 476 813 q 418 808 429 813 q 400 794 407 803 q 390 774 393 786 q 386 750 386 763 l 386 707 l 524 707 l 524 519 l 383 519 l 383 0 l 131 0 m 892 0 l 642 0 l 642 972 l 892 972 l 892 0 z "},"ª":{"ha":565,"x_min":90,"x_max":463,"o":"m 271 525 q 194 533 228 525 q 138 557 161 540 q 102 599 114 574 q 90 658 90 624 q 119 741 90 707 q 226 775 147 775 q 283 769 263 775 q 313 757 303 764 q 300 813 313 793 q 260 833 288 833 q 195 827 231 833 q 128 810 160 821 l 128 910 q 199 930 160 922 q 269 938 238 938 q 413 894 364 938 q 463 769 463 851 l 463 657 q 452 592 463 618 q 419 552 442 567 q 360 531 397 538 q 271 525 324 525 m 276 621 q 306 629 297 621 q 315 650 315 638 l 315 693 q 300 699 308 696 q 279 701 292 701 q 258 696 268 701 q 243 682 249 690 q 238 663 238 674 q 241 642 238 651 q 253 626 244 632 q 276 621 263 621 z "},"º":{"ha":589,"x_min":103,"x_max":476,"o":"m 290 540 q 189 563 231 540 q 125 631 147 586 q 103 739 103 675 q 125 849 103 804 q 189 916 147 893 q 290 939 231 939 q 391 916 350 939 q 454 849 432 893 q 476 739 476 804 q 454 631 476 675 q 391 563 432 586 q 290 540 350 540 m 290 638 q 329 663 315 638 q 343 739 343 688 q 329 817 343 792 q 290 842 315 842 q 250 817 264 842 q 236 739 236 792 q 250 663 236 688 q 290 638 264 638 z "},"π":{"ha":881,"x_min":49,"x_max":829,"o":"m 182 0 l 182 519 l 49 519 l 49 693 l 829 693 l 829 519 l 693 519 l 693 0 l 519 0 l 519 519 l 358 519 l 358 0 l 182 0 z "},"₀":{"ha":528,"x_min":21,"x_max":507,"o":"m 264 -214 q 77 -149 133 -214 q 21 42 21 -85 q 77 233 21 168 q 264 297 133 297 q 451 233 396 297 q 507 42 507 168 q 451 -149 507 -85 q 264 -214 396 -214 m 264 -75 q 297 -66 282 -75 q 322 -31 313 -57 q 332 42 332 -6 q 322 115 332 90 q 297 150 313 140 q 264 160 282 160 q 231 150 247 160 q 206 115 215 140 q 196 42 196 90 q 206 -31 196 -6 q 231 -66 215 -57 q 264 -75 247 -75 z "},"₁":{"ha":347,"x_min":24,"x_max":271,"o":"m 104 -208 l 104 167 l 126 128 l 24 71 l 24 225 l 128 290 l 271 290 l 271 -208 l 104 -208 z "},"₂":{"ha":471,"x_min":60,"x_max":429,"o":"m 60 -208 l 60 -107 q 119 -66 86 -87 q 183 -20 153 -44 q 233 32 214 4 q 253 92 253 60 q 231 147 253 131 q 185 164 208 164 q 115 150 142 164 q 63 117 89 136 l 63 247 q 135 282 94 267 q 218 297 175 297 q 344 274 299 297 q 408 213 389 250 q 426 138 426 176 q 403 56 426 94 q 339 -14 381 17 q 242 -65 297 -44 l 228 -51 l 429 -51 l 429 -208 l 60 -208 z "},"₃":{"ha":465,"x_min":56,"x_max":422,"o":"m 207 -215 q 128 -203 167 -215 q 56 -174 90 -190 l 56 -50 q 118 -86 93 -72 q 174 -100 143 -100 q 227 -85 207 -100 q 247 -49 247 -71 q 233 -11 247 -29 q 172 7 218 7 l 118 7 l 118 99 l 174 99 q 213 112 201 99 q 225 140 225 125 q 204 169 225 160 q 160 178 183 178 q 113 170 138 178 q 65 151 89 163 l 65 260 q 130 285 94 275 q 201 296 165 296 q 287 284 240 296 q 367 242 333 272 q 401 158 401 213 q 390 114 401 135 q 360 79 378 93 q 324 61 343 65 q 375 34 353 53 q 410 -11 397 15 q 422 -69 422 -37 q 401 -142 422 -114 q 346 -187 379 -171 q 276 -209 313 -203 q 207 -215 239 -215 z "},"₄":{"ha":476,"x_min":33,"x_max":463,"o":"m 250 -208 l 250 -96 l 33 -96 l 33 17 l 251 290 l 403 290 l 403 28 l 463 28 l 463 -96 l 403 -96 l 403 -208 l 250 -208 m 169 28 l 250 28 l 250 164 l 274 164 l 169 28 z "},"₅":{"ha":453,"x_min":64,"x_max":432,"o":"m 238 -214 q 149 -205 190 -214 q 75 -181 108 -196 l 75 -50 q 135 -77 104 -68 q 192 -86 165 -86 q 242 -72 228 -86 q 257 -31 257 -57 q 249 -3 257 -14 q 228 15 242 8 q 197 21 214 21 q 164 15 179 21 q 135 1 149 8 l 64 50 l 92 292 l 400 292 l 400 163 l 203 163 l 200 119 q 221 121 208 121 q 265 121 233 121 q 342 106 304 121 q 406 56 381 90 q 432 -37 432 21 q 407 -140 432 -101 q 338 -197 382 -179 q 238 -214 294 -214 z "},"₆":{"ha":482,"x_min":17,"x_max":453,"o":"m 250 -215 q 69 -156 122 -215 q 17 21 17 -96 q 43 169 17 114 q 112 252 69 225 q 203 288 154 279 q 297 296 253 296 q 353 291 325 296 q 399 278 382 286 l 399 169 q 344 183 365 181 q 308 186 322 186 q 270 181 290 186 q 232 162 250 175 q 203 127 214 149 q 192 74 192 106 q 229 105 204 90 q 315 119 254 119 q 410 83 367 119 q 453 -33 453 46 q 430 -130 453 -89 q 363 -193 407 -171 q 250 -215 318 -215 m 236 -118 q 265 -96 253 -118 q 276 -47 276 -74 q 265 10 276 -4 q 242 25 254 25 q 214 10 228 25 q 193 -22 200 -4 q 198 -69 193 -47 q 213 -104 203 -90 q 236 -118 222 -118 z "},"₇":{"ha":447,"x_min":49,"x_max":426,"o":"m 71 -208 l 265 228 l 338 135 l 49 135 l 49 290 l 426 290 l 426 210 l 261 -208 l 71 -208 z "},"₈":{"ha":476,"x_min":8,"x_max":467,"o":"m 238 -215 q 108 -199 158 -215 q 33 -148 57 -182 q 8 -64 8 -114 q 22 -8 8 -33 q 59 34 36 17 q 108 58 82 51 q 70 78 89 64 q 40 112 51 92 q 28 158 28 132 q 49 235 28 206 q 117 281 71 265 q 238 296 164 296 q 357 281 311 296 q 424 235 403 265 q 446 158 446 206 q 434 112 446 132 q 404 78 422 92 q 367 58 386 64 q 416 34 393 51 q 453 -8 439 17 q 467 -64 467 -33 q 442 -148 467 -114 q 367 -199 418 -182 q 238 -215 317 -215 m 238 -110 q 281 -92 268 -110 q 294 -49 294 -74 q 281 -16 294 -33 q 238 1 268 1 q 193 -16 207 1 q 179 -49 179 -33 q 193 -92 179 -74 q 238 -110 207 -110 m 238 93 q 272 103 257 93 q 288 140 288 114 q 276 175 288 160 q 238 190 265 190 q 200 175 211 190 q 189 140 189 160 q 204 103 189 114 q 238 93 219 93 z "},"₉":{"ha":485,"x_min":17,"x_max":453,"o":"m 172 -214 q 116 -209 144 -214 q 71 -196 88 -204 l 71 -87 q 126 -101 104 -97 q 161 -104 147 -104 q 199 -99 179 -104 q 238 -80 219 -93 q 267 -45 256 -67 q 278 8 278 -24 q 240 -23 265 -8 q 154 -37 215 -37 q 60 -1 103 -37 q 17 115 17 36 q 40 213 17 172 q 108 275 63 253 q 219 297 153 297 q 400 238 347 297 q 453 61 453 178 q 426 -87 453 -32 q 358 -170 400 -143 q 266 -206 315 -197 q 172 -214 217 -214 m 228 57 q 257 72 243 57 q 276 104 271 86 q 272 151 276 129 q 258 186 267 172 q 233 200 249 200 q 213 190 222 200 q 199 163 204 179 q 193 129 193 147 q 204 72 193 86 q 228 57 215 57 z "},"⁰":{"ha":528,"x_min":21,"x_max":507,"o":"m 264 638 q 77 702 133 638 q 21 893 21 767 q 77 1084 21 1019 q 264 1149 133 1149 q 451 1084 396 1149 q 507 893 507 1019 q 451 702 507 767 q 264 638 396 638 m 264 776 q 297 785 282 776 q 322 820 313 794 q 332 893 332 846 q 322 967 332 942 q 297 1001 313 992 q 264 1011 282 1011 q 231 1001 247 1011 q 206 967 215 992 q 196 893 196 942 q 206 820 196 846 q 231 785 215 794 q 264 776 247 776 z "},"¹":{"ha":347,"x_min":24,"x_max":271,"o":"m 104 642 l 104 1017 l 126 978 l 24 921 l 24 1075 l 128 1140 l 271 1140 l 271 642 l 104 642 z "},"²":{"ha":471,"x_min":60,"x_max":429,"o":"m 60 643 l 60 744 q 119 785 86 764 q 183 831 153 807 q 233 883 214 856 q 253 943 253 911 q 231 999 253 982 q 185 1015 208 1015 q 115 1001 142 1015 q 63 968 89 988 l 63 1099 q 135 1133 94 1118 q 218 1149 175 1149 q 344 1125 299 1149 q 408 1065 389 1101 q 426 989 426 1028 q 403 907 426 946 q 339 838 381 868 q 242 786 297 807 l 228 800 l 429 800 l 429 643 l 60 643 z "},"³":{"ha":465,"x_min":56,"x_max":422,"o":"m 207 636 q 128 649 167 636 q 56 678 90 661 l 56 801 q 118 765 93 779 q 174 751 143 751 q 227 766 207 751 q 247 803 247 781 q 233 840 247 822 q 172 858 218 858 l 118 858 l 118 950 l 174 950 q 213 963 201 950 q 225 992 225 976 q 204 1020 225 1011 q 160 1029 183 1029 q 113 1022 138 1029 q 65 1003 89 1014 l 65 1111 q 130 1137 94 1126 q 201 1147 165 1147 q 287 1135 240 1147 q 367 1094 333 1124 q 401 1010 401 1064 q 390 965 401 986 q 360 931 378 944 q 324 913 343 917 q 375 885 353 904 q 410 840 397 867 q 422 782 422 814 q 401 709 422 738 q 346 665 379 681 q 276 642 313 649 q 207 636 239 636 z "},"⁴":{"ha":476,"x_min":33,"x_max":463,"o":"m 250 643 l 250 756 l 33 756 l 33 868 l 251 1142 l 403 1142 l 403 879 l 463 879 l 463 756 l 403 756 l 403 643 l 250 643 m 169 879 l 250 879 l 250 1015 l 274 1015 l 169 879 z "},"⁵":{"ha":453,"x_min":64,"x_max":432,"o":"m 238 636 q 149 645 190 636 q 75 669 108 654 l 75 800 q 135 773 104 782 q 192 764 165 764 q 242 778 228 764 q 257 819 257 793 q 249 847 257 836 q 228 865 242 858 q 197 871 214 871 q 164 865 179 871 q 135 851 149 858 l 64 900 l 92 1142 l 400 1142 l 400 1013 l 203 1013 l 200 969 q 221 971 208 971 q 265 971 233 971 q 342 956 304 971 q 406 906 381 940 q 432 813 432 871 q 407 710 432 749 q 338 653 382 671 q 238 636 294 636 z "},"⁶":{"ha":482,"x_min":17,"x_max":453,"o":"m 250 636 q 69 696 122 636 q 17 872 17 756 q 43 1021 17 965 q 112 1103 69 1076 q 203 1139 154 1131 q 297 1147 253 1147 q 353 1142 325 1147 q 399 1129 382 1138 l 399 1021 q 344 1035 365 1032 q 308 1038 322 1038 q 270 1032 290 1038 q 232 1013 250 1026 q 203 978 214 1000 q 192 925 192 957 q 229 956 204 942 q 315 971 254 971 q 410 934 367 971 q 453 818 453 897 q 430 722 453 763 q 363 658 407 681 q 250 636 318 636 m 236 733 q 265 756 253 733 q 276 804 276 778 q 265 862 276 847 q 242 876 254 876 q 214 862 228 876 q 193 829 200 847 q 198 783 193 804 q 213 747 203 761 q 236 733 222 733 z "},"⁷":{"ha":447,"x_min":49,"x_max":426,"o":"m 71 642 l 265 1078 l 338 985 l 49 985 l 49 1140 l 426 1140 l 426 1060 l 261 642 l 71 642 z "},"⁸":{"ha":476,"x_min":8,"x_max":467,"o":"m 238 636 q 108 653 158 636 q 33 703 57 669 q 8 788 8 738 q 22 843 8 818 q 59 885 36 868 q 108 910 82 903 q 70 929 89 915 q 40 963 51 943 q 28 1010 28 983 q 49 1087 28 1057 q 117 1132 71 1117 q 238 1147 164 1147 q 357 1132 311 1147 q 424 1087 403 1117 q 446 1010 446 1057 q 434 963 446 983 q 404 929 422 943 q 367 910 386 915 q 416 885 393 903 q 453 843 439 868 q 467 788 467 818 q 442 703 467 738 q 367 653 418 669 q 238 636 317 636 m 238 742 q 281 760 268 742 q 294 803 294 778 q 281 835 294 818 q 238 853 268 853 q 193 835 207 853 q 179 803 179 818 q 193 760 179 778 q 238 742 207 742 m 238 944 q 272 955 257 944 q 288 992 288 965 q 276 1026 288 1011 q 238 1042 265 1042 q 200 1026 211 1042 q 189 992 189 1011 q 204 955 189 965 q 238 944 219 944 z "},"⁹":{"ha":485,"x_min":17,"x_max":453,"o":"m 172 636 q 116 641 144 636 q 71 654 88 646 l 71 763 q 126 749 104 753 q 161 746 147 746 q 199 751 179 746 q 238 770 219 757 q 267 805 256 783 q 278 858 278 826 q 240 827 265 842 q 154 813 215 813 q 60 849 103 813 q 17 965 17 886 q 40 1063 17 1022 q 108 1125 63 1103 q 219 1147 153 1147 q 400 1088 347 1147 q 453 911 453 1028 q 426 763 453 818 q 358 680 400 707 q 266 644 315 653 q 172 636 217 636 m 228 907 q 257 922 243 907 q 276 954 271 936 q 272 1001 276 979 q 258 1036 267 1022 q 233 1050 249 1050 q 213 1040 222 1050 q 199 1013 204 1029 q 193 979 193 997 q 204 922 193 936 q 228 907 215 907 z "},"⁄":{"ha":543,"x_min":-97,"x_max":640,"o":"m -97 -31 l 468 951 l 640 951 l 75 -31 l -97 -31 z "},"½":{"ha":1054,"x_min":24,"x_max":985,"o":"m 104 433 l 104 808 l 126 769 l 24 713 l 24 867 l 128 932 l 271 932 l 271 433 l 104 433 m 83 -31 l 649 951 l 821 951 l 256 -31 l 83 -31 m 615 0 l 615 101 q 675 142 642 121 q 739 188 708 164 q 789 240 769 213 q 808 300 808 268 q 786 356 808 339 q 740 372 764 372 q 671 358 697 372 q 618 325 644 344 l 618 456 q 690 490 650 475 q 774 506 731 506 q 899 482 854 506 q 963 422 944 458 q 982 346 982 385 q 959 264 982 303 q 894 194 936 225 q 797 143 853 164 l 783 157 l 985 157 l 985 0 l 615 0 z "},"⅓":{"ha":1069,"x_min":24,"x_max":1000,"o":"m 104 433 l 104 808 l 126 769 l 24 713 l 24 867 l 128 932 l 271 932 l 271 433 l 104 433 m 83 -31 l 649 951 l 821 951 l 256 -31 l 83 -31 m 785 -7 q 706 6 744 -7 q 633 35 668 18 l 633 158 q 696 122 671 136 q 751 108 721 108 q 805 123 785 108 q 825 160 825 138 q 810 197 825 179 q 750 215 796 215 l 696 215 l 696 307 l 751 307 q 791 320 779 307 q 803 349 803 333 q 782 377 803 368 q 738 386 761 386 q 691 378 715 386 q 643 360 667 371 l 643 468 q 708 494 672 483 q 779 504 743 504 q 865 492 818 504 q 945 451 911 481 q 979 367 979 421 q 967 322 979 343 q 938 288 956 301 q 901 269 921 274 q 953 242 931 261 q 988 197 975 224 q 1000 139 1000 171 q 978 66 1000 94 q 924 22 957 38 q 853 -1 890 6 q 785 -7 817 -7 z "},"¼":{"ha":1018,"x_min":24,"x_max":949,"o":"m 104 433 l 104 808 l 126 769 l 24 713 l 24 867 l 128 932 l 271 932 l 271 433 l 104 433 m 83 -31 l 649 951 l 821 951 l 256 -31 l 83 -31 m 736 0 l 736 113 l 519 113 l 519 225 l 738 499 l 889 499 l 889 236 l 949 236 l 949 113 l 889 113 l 889 0 l 736 0 m 656 236 l 736 236 l 736 372 l 760 372 l 656 236 z "},"¾":{"ha":1110,"x_min":56,"x_max":1040,"o":"m 207 446 q 128 458 167 446 q 56 488 90 471 l 56 611 q 118 575 93 589 q 174 561 143 561 q 227 576 207 561 q 247 613 247 590 q 233 650 247 632 q 172 668 218 668 l 118 668 l 118 760 l 174 760 q 213 773 201 760 q 225 801 225 786 q 204 830 225 821 q 160 839 183 839 q 113 831 138 839 q 65 813 89 824 l 65 921 q 130 947 94 936 q 201 957 165 957 q 287 945 240 957 q 367 903 333 933 q 401 819 401 874 q 390 775 401 796 q 360 740 378 754 q 324 722 343 726 q 375 695 353 714 q 410 650 397 676 q 422 592 422 624 q 401 519 422 547 q 346 474 379 490 q 276 452 313 458 q 207 446 239 446 m 153 -31 l 718 951 l 890 951 l 325 -31 l 153 -31 m 828 0 l 828 113 l 611 113 l 611 225 l 829 499 l 981 499 l 981 236 l 1040 236 l 1040 113 l 981 113 l 981 0 l 828 0 m 747 236 l 828 236 l 828 372 l 851 372 l 747 236 z "},"⅛":{"ha":1113,"x_min":24,"x_max":1057,"o":"m 104 433 l 104 808 l 126 769 l 24 713 l 24 867 l 128 932 l 271 932 l 271 433 l 104 433 m 83 -31 l 649 951 l 821 951 l 256 -31 l 83 -31 m 828 -7 q 698 10 749 -7 q 623 60 647 26 q 599 144 599 94 q 613 200 599 175 q 649 242 626 225 q 699 267 672 260 q 660 286 679 272 q 630 320 642 300 q 618 367 618 340 q 640 444 618 414 q 708 489 661 474 q 828 504 754 504 q 947 489 901 504 q 1015 444 993 474 q 1036 367 1036 414 q 1024 320 1036 340 q 994 286 1013 300 q 957 267 976 272 q 1006 242 983 260 q 1043 200 1029 225 q 1057 144 1057 175 q 1033 60 1057 94 q 958 10 1008 26 q 828 -7 907 -7 m 828 99 q 872 117 858 99 q 885 160 885 135 q 872 192 885 175 q 828 210 858 210 q 783 192 797 210 q 769 160 769 175 q 783 117 769 135 q 828 99 797 99 m 828 301 q 863 312 847 301 q 878 349 878 322 q 867 383 878 368 q 828 399 856 399 q 790 383 801 399 q 779 349 779 368 q 794 312 779 322 q 828 301 810 301 z "},"⅜":{"ha":1210,"x_min":56,"x_max":1154,"o":"m 207 446 q 128 458 167 446 q 56 488 90 471 l 56 611 q 118 575 93 589 q 174 561 143 561 q 227 576 207 561 q 247 613 247 590 q 233 650 247 632 q 172 668 218 668 l 118 668 l 118 760 l 174 760 q 213 773 201 760 q 225 801 225 786 q 204 830 225 821 q 160 839 183 839 q 113 831 138 839 q 65 813 89 824 l 65 921 q 130 947 94 936 q 201 957 165 957 q 287 945 240 957 q 367 903 333 933 q 401 819 401 874 q 390 775 401 796 q 360 740 378 754 q 324 722 343 726 q 375 695 353 714 q 410 650 397 676 q 422 592 422 624 q 401 519 422 547 q 346 474 379 490 q 276 452 313 458 q 207 446 239 446 m 172 -31 l 738 951 l 910 951 l 344 -31 l 172 -31 m 925 -7 q 795 10 846 -7 q 720 60 744 26 q 696 144 696 94 q 710 200 696 175 q 747 242 724 225 q 796 267 769 260 q 758 286 776 272 q 727 320 739 300 q 715 367 715 340 q 737 444 715 414 q 805 489 758 474 q 925 504 851 504 q 1044 489 999 504 q 1112 444 1090 474 q 1133 367 1133 414 q 1122 320 1133 340 q 1092 286 1110 300 q 1054 267 1074 272 q 1103 242 1081 260 q 1140 200 1126 225 q 1154 144 1154 175 q 1130 60 1154 94 q 1055 10 1106 26 q 925 -7 1004 -7 m 925 99 q 969 117 956 99 q 982 160 982 135 q 969 192 982 175 q 925 210 956 210 q 881 192 894 210 q 867 160 867 175 q 881 117 867 135 q 925 99 894 99 m 925 301 q 960 312 944 301 q 975 349 975 322 q 964 383 975 368 q 925 399 953 399 q 888 383 899 399 q 876 349 876 368 q 892 312 876 322 q 925 301 907 301 z "},"⅝":{"ha":1238,"x_min":64,"x_max":1182,"o":"m 238 414 q 149 423 190 414 q 75 447 108 432 l 75 578 q 135 551 104 560 q 192 542 165 542 q 242 556 228 542 q 257 597 257 571 q 249 625 257 614 q 228 642 242 636 q 197 649 214 649 q 164 642 179 649 q 135 629 149 636 l 64 678 l 92 919 l 400 919 l 400 790 l 203 790 l 200 747 q 221 749 208 749 q 265 749 233 749 q 342 733 304 749 q 406 683 381 718 q 432 590 432 649 q 407 488 432 526 q 338 431 382 449 q 238 414 294 414 m 208 -31 l 774 951 l 946 951 l 381 -31 l 208 -31 m 953 -7 q 823 10 874 -7 q 748 60 772 26 q 724 144 724 94 q 738 200 724 175 q 774 242 751 225 q 824 267 797 260 q 785 286 804 272 q 755 320 767 300 q 743 367 743 340 q 765 444 743 414 q 833 489 786 474 q 953 504 879 504 q 1072 489 1026 504 q 1140 444 1118 474 q 1161 367 1161 414 q 1149 320 1161 340 q 1119 286 1138 300 q 1082 267 1101 272 q 1131 242 1108 260 q 1168 200 1154 225 q 1182 144 1182 175 q 1158 60 1182 94 q 1083 10 1133 26 q 953 -7 1032 -7 m 953 99 q 997 117 983 99 q 1010 160 1010 135 q 997 192 1010 175 q 953 210 983 210 q 908 192 922 210 q 894 160 894 175 q 908 117 894 135 q 953 99 922 99 m 953 301 q 988 312 972 301 q 1003 349 1003 322 q 992 383 1003 368 q 953 399 981 399 q 915 383 926 399 q 904 349 904 368 q 919 312 904 322 q 953 301 935 301 z "},"⅞":{"ha":1172,"x_min":49,"x_max":1117,"o":"m 71 433 l 265 869 l 338 776 l 49 776 l 49 932 l 426 932 l 426 851 l 261 433 l 71 433 m 124 -31 l 689 951 l 861 951 l 296 -31 l 124 -31 m 888 -7 q 758 10 808 -7 q 683 60 707 26 q 658 144 658 94 q 672 200 658 175 q 709 242 686 225 q 758 267 732 260 q 720 286 739 272 q 690 320 701 300 q 678 367 678 340 q 699 444 678 414 q 767 489 721 474 q 888 504 814 504 q 1007 489 961 504 q 1074 444 1053 474 q 1096 367 1096 414 q 1084 320 1096 340 q 1054 286 1072 300 q 1017 267 1036 272 q 1066 242 1043 260 q 1103 200 1089 225 q 1117 144 1117 175 q 1092 60 1117 94 q 1017 10 1068 26 q 888 -7 967 -7 m 888 99 q 931 117 918 99 q 944 160 944 135 q 931 192 944 175 q 888 210 918 210 q 843 192 857 210 q 829 160 829 175 q 843 117 829 135 q 888 99 857 99 m 888 301 q 922 312 907 301 q 938 349 938 322 q 926 383 938 368 q 888 399 915 399 q 850 383 861 399 q 839 349 839 368 q 854 312 839 322 q 888 301 869 301 z "},"*":{"ha":574,"x_min":117,"x_max":464,"o":"m 236 639 l 244 728 l 169 674 l 117 768 l 224 807 l 117 846 l 169 940 l 244 886 l 236 975 l 344 975 l 338 886 l 411 940 l 464 846 l 358 807 l 464 768 l 411 674 l 338 728 l 344 639 l 236 639 z "},"\\":{"ha":597,"x_min":-51,"x_max":632,"o":"m 460 -136 l -51 1050 l 122 1050 l 632 -136 l 460 -136 z "},"·":{"ha":503,"x_min":146,"x_max":346,"o":"m 146 285 l 146 476 l 346 476 l 346 285 l 146 285 z "},"•":{"ha":736,"x_min":117,"x_max":619,"o":"m 369 200 q 242 233 300 200 q 151 324 185 267 q 117 451 117 382 q 151 579 117 522 q 242 669 185 636 q 369 703 300 703 q 496 669 439 703 q 586 579 553 636 q 619 451 619 522 q 586 324 619 382 q 496 233 553 267 q 369 200 439 200 z "},":":{"ha":589,"x_min":190,"x_max":390,"o":"m 190 454 l 190 646 l 390 646 l 390 454 l 190 454 m 190 49 l 190 240 l 390 240 l 390 49 l 190 49 z "},",":{"ha":510,"x_min":103,"x_max":399,"o":"m 103 -156 l 206 117 l 399 117 l 265 -156 l 103 -156 z "},"…":{"ha":1254,"x_min":149,"x_max":1111,"o":"m 149 0 l 149 192 l 349 192 l 349 0 l 149 0 m 529 0 l 529 192 l 729 192 l 729 0 l 529 0 m 911 0 l 911 192 l 1111 192 l 1111 0 l 911 0 z "},"!":{"ha":599,"x_min":189,"x_max":429,"o":"m 219 265 l 189 926 l 429 926 l 399 265 l 219 265 m 201 0 l 201 178 l 417 178 l 417 0 l 201 0 z "},"¡":{"ha":599,"x_min":183,"x_max":424,"o":"m 183 -233 l 214 428 l 393 428 l 424 -233 l 183 -233 m 196 515 l 196 693 l 411 693 l 411 515 l 196 515 z "},"#":{"ha":874,"x_min":103,"x_max":769,"o":"m 176 26 l 203 168 l 103 168 l 103 294 l 222 294 l 251 458 l 140 458 l 140 583 l 272 583 l 297 725 l 431 725 l 406 583 l 553 583 l 578 725 l 711 725 l 685 583 l 769 583 l 769 458 l 665 458 l 636 294 l 733 294 l 733 168 l 615 168 l 590 26 l 457 26 l 482 168 l 333 168 l 310 26 l 176 26 m 356 294 l 506 294 l 532 458 l 385 458 l 356 294 z "},".":{"ha":367,"x_min":69,"x_max":297,"o":"m 69 0 l 69 219 l 297 219 l 297 0 l 69 0 z "},"?":{"ha":729,"x_min":111,"x_max":638,"o":"m 242 267 l 242 285 q 263 411 242 361 q 313 495 283 461 q 374 555 343 529 q 425 607 404 581 q 446 669 446 633 q 426 733 446 714 q 378 758 407 753 q 319 764 349 764 q 213 747 269 764 q 111 694 156 731 l 111 872 q 174 905 136 890 q 258 928 213 919 q 350 938 303 938 q 486 915 431 938 q 575 853 542 892 q 623 766 608 814 q 638 668 638 718 q 617 569 638 608 q 565 499 596 529 q 504 441 535 469 q 453 375 474 413 q 432 281 432 338 l 432 267 l 242 267 m 229 0 l 229 178 l 444 178 l 444 0 l 229 0 z "},"¿":{"ha":729,"x_min":111,"x_max":638,"o":"m 399 -244 q 263 -222 318 -244 q 174 -160 207 -199 q 126 -73 140 -121 q 111 25 111 -25 q 132 124 111 85 q 183 194 153 164 q 244 252 214 224 q 296 318 275 281 q 317 413 317 356 l 317 426 l 507 426 l 507 408 q 486 282 507 332 q 435 198 465 232 q 375 138 406 164 q 324 86 344 113 q 303 24 303 60 q 322 -40 303 -19 q 371 -65 342 -60 q 429 -71 400 -71 q 537 -53 479 -71 q 638 -1 594 -36 l 638 -179 q 574 -211 613 -196 q 491 -235 536 -226 q 399 -244 446 -244 m 304 515 l 304 693 l 519 693 l 519 515 l 304 515 z "},"\"":{"ha":610,"x_min":113,"x_max":496,"o":"m 349 660 l 324 939 l 496 939 l 472 660 l 349 660 m 138 660 l 113 939 l 285 939 l 261 660 l 138 660 z "},"'":{"ha":396,"x_min":113,"x_max":285,"o":"m 138 660 l 113 939 l 285 939 l 261 660 l 138 660 z "},";":{"ha":443,"x_min":49,"x_max":374,"o":"m 49 -156 l 151 144 l 372 144 l 211 -156 l 49 -156 m 146 426 l 146 646 l 374 646 l 374 426 l 146 426 z "},"/":{"ha":643,"x_min":-19,"x_max":664,"o":"m -19 -136 l 490 1050 l 664 1050 l 153 -136 l -19 -136 z "},"_":{"ha":758,"x_min":0,"x_max":758,"o":"m 0 -175 l 0 -33 l 758 -33 l 758 -175 l 0 -175 z "},"{":{"ha":556,"x_min":63,"x_max":507,"o":"m 465 -151 q 261 -122 333 -151 q 160 -43 189 -93 q 132 69 132 7 l 132 253 q 115 301 132 285 q 80 324 97 318 q 63 329 63 329 l 63 490 q 80 496 63 490 q 115 518 97 501 q 132 567 132 535 l 132 750 q 160 863 132 813 q 261 942 189 913 q 465 971 333 971 l 507 971 l 507 749 l 476 749 q 429 735 443 749 q 413 700 415 721 q 410 657 410 679 l 410 558 q 368 456 410 490 q 278 410 326 421 q 368 365 326 400 q 410 261 410 331 l 410 163 q 413 119 410 140 q 429 85 415 99 q 476 71 443 71 l 507 71 l 507 -151 l 465 -151 z "},"}":{"ha":546,"x_min":63,"x_max":507,"o":"m 63 -151 l 63 71 l 93 71 q 140 85 126 71 q 157 119 154 99 q 160 163 160 140 l 160 261 q 202 365 160 331 q 292 410 244 400 q 202 456 244 421 q 160 558 160 490 l 160 657 q 157 700 160 679 q 140 735 154 721 q 93 749 126 749 l 63 749 l 63 971 l 104 971 q 308 942 236 971 q 409 863 381 913 q 438 750 438 813 l 438 567 q 455 518 438 535 q 490 496 472 501 q 507 490 507 490 l 507 329 q 490 324 507 329 q 455 301 472 318 q 438 253 438 285 l 438 69 q 409 -43 438 7 q 308 -122 381 -93 q 104 -151 236 -151 l 63 -151 z "},"[":{"ha":558,"x_min":90,"x_max":510,"o":"m 90 -161 l 90 967 l 510 967 l 510 744 l 368 744 l 368 63 l 510 63 l 510 -161 l 90 -161 z "}}}
